<svg width="390" height="337" viewBox="0 0 390 337" fill="none" xmlns="http://www.w3.org/2000/svg">
<path d="M94.6027 254.52C58.8105 276.35 12.9093 179.512 48.6027 157.52C58.9257 151.159 69.4075 157.423 78.6027 149.52C85.8947 143.252 88.2503 137.343 90.6027 128.02C97.5219 100.596 76.8701 68.0892 48.6027 69.0195C29.9768 69.6325 16.6919 79.2845 9.60269 96.5195C0.904126 117.667 4.06059 131.078 2.60269 149.52C-1.97702 207.45 19.6417 247.601 64.1027 285.02C85.7562 303.243 99.9761 322.162 128.103 319.02C149.27 316.655 165.721 309.878 174.603 290.52C188.948 259.252 149.301 206.992 118.603 222.52C104.663 229.57 107.939 246.385 94.6027 254.52Z" fill="#1691A1" stroke="black" stroke-width="3"/>
<path d="M136.988 174.546L146.988 142.046C146.988 142.046 119.239 113.491 115.488 90.0463C106.846 36.025 169.801 0.537637 224.488 2.0463C275.182 3.44478 324.282 32.3621 325.988 83.0463C327.259 120.779 307.286 146.751 273.988 164.546C241.957 181.665 180.988 164.546 180.988 164.546L136.988 174.546Z" fill="#F0FFFE" stroke="black" stroke-width="3"/>
<path d="M161.41 86.6352L178.289 101.249" stroke="#1F545B" stroke-width="2"/>
<path d="M143.569 73.4361C143.569 73.4361 156.033 72.8382 162.151 77.2945C163.26 78.1019 164.834 79.5635 164.834 79.5635" stroke="#1F545B" stroke-width="2"/>
<path d="M200.447 118.075L183.738 109.687" stroke="#1F545B" stroke-width="2"/>
<path d="M144.732 73.8503C146.947 84.261 150.098 89.2191 158.581 95.6476C166.383 101.56 182.356 104.635 182.356 104.635" stroke="#1F545B" stroke-width="2"/>
<path d="M170.941 72.3516L182.469 87.6533" stroke="#1F545B" stroke-width="2"/>
<path d="M182.333 87.7611C182.333 87.7611 166.877 80.7578 161.787 72.0754C157.813 65.2961 157.105 52.2831 157.105 52.2831C157.105 52.2831 170.08 55.8625 174.188 62.3511C176.071 65.3252 177.324 70.8567 177.324 70.8567" stroke="#1F545B" stroke-width="2"/>
<path d="M193.493 73.7578C190.487 65.2485 179.331 55.6975 179.331 55.6975C179.331 55.6975 175.76 71.1128 178.576 79.973C181.456 89.039 193.483 98.9838 193.483 98.9838C193.483 98.9838 196.712 82.8692 193.493 73.7578Z" stroke="#1F545B" stroke-width="2"/>
<path d="M186.27 78.9766L193.33 99.0971" stroke="#1F545B" stroke-width="2"/>
<path d="M183.971 105.78C184.011 105.53 164.787 101.745 164.787 101.745C164.787 101.745 171.829 110.548 178.089 113.901C185.902 118.087 200.807 118.235 200.807 118.235L198.728 114.383" stroke="#1F545B" stroke-width="2"/>
<path d="M179.923 94.9164L198.656 113.998" stroke="#1F545B" stroke-width="2"/>
<path d="M182.434 87.9054L163.982 77.5947C163.982 77.5947 169.408 91.2697 175.439 98.2146C182.658 106.526 198.722 114.386 198.722 114.386L193.331 99.097" stroke="#1F545B" stroke-width="2"/>
<path d="M278.16 84.6352L261.282 99.2495" stroke="#1F545B" stroke-width="2"/>
<path d="M296.002 71.4361C296.002 71.4361 283.537 70.8382 277.419 75.2945C276.311 76.1019 274.736 77.5635 274.736 77.5635" stroke="#1F545B" stroke-width="2"/>
<path d="M239.123 116.075L255.832 107.687" stroke="#1F545B" stroke-width="2"/>
<path d="M294.838 71.8503C292.623 82.261 289.473 87.2191 280.99 93.6476C273.188 99.5597 257.214 102.635 257.214 102.635" stroke="#1F545B" stroke-width="2"/>
<path d="M268.629 70.3516L257.101 85.6533" stroke="#1F545B" stroke-width="2"/>
<path d="M257.237 85.7611C257.237 85.7611 272.693 78.7578 277.783 70.0754C281.757 63.2961 282.465 50.2831 282.465 50.2831C282.465 50.2831 269.49 53.8625 265.382 60.3511C263.499 63.3252 262.246 68.8567 262.246 68.8567" stroke="#1F545B" stroke-width="2"/>
<path d="M246.077 71.7578C249.084 63.2485 260.24 53.6975 260.24 53.6975C260.24 53.6975 263.81 69.1128 260.995 77.973C258.114 87.039 246.087 96.9838 246.087 96.9838C246.087 96.9838 242.859 80.8692 246.077 71.7578Z" stroke="#1F545B" stroke-width="2"/>
<path d="M253.301 76.9766L246.241 97.0971" stroke="#1F545B" stroke-width="2"/>
<path d="M255.599 103.78C255.559 103.53 274.784 99.7454 274.784 99.7454C274.784 99.7454 267.742 108.548 261.482 111.901C253.669 116.087 238.764 116.235 238.764 116.235L240.842 112.383" stroke="#1F545B" stroke-width="2"/>
<path d="M259.647 92.9164L240.914 111.998" stroke="#1F545B" stroke-width="2"/>
<path d="M257.136 85.9054L275.588 75.5947C275.588 75.5947 270.162 89.2697 264.131 96.2146C256.913 104.526 240.848 112.386 240.848 112.386L246.24 97.097" stroke="#1F545B" stroke-width="2"/>
<path d="M155 313.5C155 313.5 180.419 337.905 199.5 335C223.556 331.338 211.903 287.882 236 284.5C252.41 282.197 259.125 302.542 275.5 300C295.568 296.885 290.88 264.76 311 262C329.605 259.448 334.91 287.166 353.5 284.5C374.783 281.448 388.5 242 388.5 242" stroke="black" stroke-width="3"/>
</svg>
