<svg width="66" height="66" viewBox="0 0 66 66" fill="none" xmlns="http://www.w3.org/2000/svg">
<path d="M58.7994 13.4005H48.9995V6.86725C48.9995 5.13452 48.3112 3.47276 47.0859 2.24753C45.8607 1.02231 44.1989 0.333984 42.4662 0.333984H22.8664C21.1337 0.333984 19.4719 1.02231 18.2467 2.24753C17.0215 3.47276 16.3332 5.13452 16.3332 6.86725V13.4005H6.53326C4.80053 13.4005 3.13877 14.0888 1.91355 15.3141C0.688324 16.5393 0 18.201 0 19.9338V59.1334C0 60.8661 0.688324 62.5279 1.91355 63.7531C3.13877 64.9783 4.80053 65.6666 6.53326 65.6666H58.7994C60.5321 65.6666 62.1939 64.9783 63.4191 63.7531C64.6443 62.5279 65.3326 60.8661 65.3326 59.1334V19.9338C65.3326 18.201 64.6443 16.5393 63.4191 15.3141C62.1939 14.0888 60.5321 13.4005 58.7994 13.4005ZM22.8664 6.86725H42.4662V13.4005H22.8664V6.86725Z" fill="#1F545B"/>
<path d="M64.157 16.2097C63.5566 15.3443 62.7559 14.6368 61.8231 14.1477C60.8903 13.6585 59.853 13.4021 58.7997 13.4004H6.53363C5.48034 13.4021 4.44308 13.6585 3.51027 14.1477C2.57745 14.6368 1.77673 15.3443 1.17635 16.2097C0.838446 16.6769 0.630228 17.2252 0.572854 17.799C0.515479 18.3727 0.610993 18.9514 0.849691 19.4763L6.53363 33.0002C7.80872 35.9218 9.91088 38.4065 12.581 40.1478C15.2511 41.8892 18.3724 42.8112 21.5601 42.8001H43.5119C46.7439 42.8628 49.9218 41.9651 52.6433 40.2205C55.3647 38.476 57.5073 35.9632 58.7997 33.0002L64.6144 19.4437C64.8286 18.9119 64.8992 18.3331 64.8189 17.7654C64.7386 17.1977 64.5103 16.6612 64.157 16.2097Z" fill="white"/>
<path d="M35.8995 35.3193H29.3662C27.5621 35.3193 26.0996 36.7819 26.0996 38.586V45.1192C26.0996 46.9233 27.5621 48.3859 29.3662 48.3859H35.8995C37.7036 48.3859 39.1661 46.9233 39.1661 45.1192V38.586C39.1661 36.7819 37.7036 35.3193 35.8995 35.3193Z" fill="#1F545B"/>
</svg>
