<svg width="50" height="54" viewBox="0 0 50 54" fill="none" xmlns="http://www.w3.org/2000/svg">
<path d="M49.4999 38.0893C49.5112 37.2609 48.8489 36.5802 48.0205 36.5689L34.5218 36.3843C33.6934 36.373 33.0127 37.0353 33.0014 37.8637C32.9901 38.692 33.6524 39.3727 34.4808 39.384L46.4796 39.5481L46.3156 51.547C46.3042 52.3753 46.9666 53.056 47.7949 53.0674C48.6233 53.0787 49.3039 52.4164 49.3153 51.588L49.4999 38.0893ZM23.8103 50.9989L23.7907 52.4987L23.8103 50.9989ZM48 38.0688C46.9539 36.9937 46.9541 36.9935 46.9542 36.9934C46.9542 36.9935 46.9542 36.9934 46.9542 36.9935C46.9541 36.9936 46.9537 36.9939 46.9532 36.9944C46.9521 36.9954 46.9503 36.9972 46.9476 36.9998C46.9423 37.005 46.9338 37.0132 46.9221 37.0244C46.8987 37.0468 46.8628 37.0812 46.8149 37.1266C46.719 37.2175 46.5748 37.3527 46.3864 37.526C46.0095 37.8727 45.4559 38.3709 44.757 38.9698C43.3575 40.1691 41.384 41.7645 39.0861 43.3525C34.4068 46.5863 28.7002 49.5626 23.8299 49.499L23.7907 52.4987C29.677 52.5756 36.0653 49.0869 40.7917 45.8205C43.1967 44.1584 45.2537 42.495 46.709 41.2479C47.4376 40.6236 48.0175 40.1018 48.4172 39.7342C48.6171 39.5504 48.772 39.4049 48.8781 39.3044C48.9312 39.2542 48.972 39.2151 49.0002 39.1881C49.0143 39.1746 49.0252 39.1641 49.0328 39.1566C49.0367 39.1529 49.0397 39.15 49.0419 39.1479C49.043 39.1468 49.0439 39.1459 49.0446 39.1452C49.0449 39.1449 49.0453 39.1446 49.0455 39.1444C49.0458 39.1441 49.0461 39.1438 48 38.0688ZM23.8299 49.499C19.0486 49.4365 13.9592 46.0424 9.8801 42.3365C7.88274 40.5219 6.20742 38.7068 5.03068 37.3436C4.44322 36.6631 3.98232 36.0979 3.67007 35.7052C3.514 35.5089 3.39522 35.3559 3.31651 35.2534C3.27715 35.2021 3.24782 35.1635 3.22887 35.1384C3.21939 35.1259 3.21251 35.1167 3.20826 35.1111C3.20614 35.1082 3.20468 35.1063 3.20388 35.1052C3.20348 35.1047 3.20325 35.1044 3.20319 35.1043C3.20315 35.1042 3.20323 35.1043 3.20321 35.1043C3.20333 35.1045 3.20349 35.1047 2 36C0.796509 36.8953 0.796753 36.8957 0.797039 36.896C0.797192 36.8962 0.79752 36.8967 0.797825 36.8971C0.798431 36.8979 0.79921 36.899 0.800156 36.9002C0.802044 36.9027 0.804607 36.9062 0.807842 36.9105C0.814304 36.9191 0.823441 36.9313 0.835205 36.9468C0.858738 36.978 0.892792 37.0228 0.937023 37.0804C1.02548 37.1956 1.15469 37.362 1.32188 37.5723C1.65615 37.9927 2.14286 38.5893 2.75976 39.304C3.99174 40.7311 5.75214 42.6394 7.8628 44.557C11.9997 48.3153 17.8155 52.4207 23.7907 52.4987L23.8299 49.499Z" fill="white"/>
<path d="M0.50014 15.9107C0.488813 16.7391 1.15114 17.4198 1.97949 17.4311L15.4782 17.6157C16.3066 17.627 16.9873 16.9647 16.9986 16.1363C17.0099 15.308 16.3476 14.6273 15.5192 14.616L3.52037 14.4519L3.68445 2.45301C3.69577 1.62466 3.03345 0.943972 2.2051 0.932645C1.37675 0.921318 0.696054 1.58365 0.684727 2.41199L0.50014 15.9107ZM26.1897 3.00114L26.2093 1.50126L26.1897 3.00114ZM2 15.9312C3.04606 17.0063 3.0459 17.0065 3.04579 17.0066C3.04582 17.0065 3.04576 17.0066 3.04582 17.0065C3.04594 17.0064 3.04627 17.0061 3.0468 17.0056C3.04785 17.0046 3.04972 17.0028 3.05238 17.0002C3.05771 16.995 3.06624 16.9868 3.07791 16.9756C3.10125 16.9532 3.13715 16.9188 3.18511 16.8734C3.28104 16.7825 3.42518 16.6473 3.6136 16.474C3.99054 16.1273 4.54413 15.6291 5.24302 15.0302C6.64253 13.8309 8.61604 12.2355 10.9139 10.6475C15.5932 7.41369 21.2998 4.43738 26.1701 4.50101L26.2093 1.50126C20.323 1.42436 13.9347 4.9131 9.2083 8.1795C6.80333 9.84156 4.74629 11.505 3.29095 12.7521C2.56243 13.3764 1.98252 13.8982 1.58282 14.2658C1.38293 14.4496 1.22796 14.5951 1.12186 14.6956C1.06881 14.7458 1.02796 14.7849 0.999814 14.8119C0.98574 14.8254 0.974839 14.8359 0.967174 14.8434C0.963341 14.8471 0.960317 14.85 0.958109 14.8521C0.957005 14.8532 0.956105 14.8541 0.95541 14.8548C0.955063 14.8551 0.954695 14.8554 0.954522 14.8556C0.954206 14.8559 0.953941 14.8562 2 15.9312ZM26.1701 4.50101C30.9514 4.56348 36.0408 7.95759 40.1199 11.6635C42.1173 13.4781 43.7926 15.2932 44.9693 16.6564C45.5568 17.3369 46.0177 17.9021 46.3299 18.2948C46.486 18.4911 46.6048 18.6441 46.6835 18.7466C46.7229 18.7979 46.7522 18.8365 46.7711 18.8616C46.7806 18.8741 46.7875 18.8833 46.7917 18.8889C46.7939 18.8918 46.7953 18.8937 46.7961 18.8948C46.7965 18.8953 46.7967 18.8956 46.7968 18.8957C46.7968 18.8958 46.7968 18.8957 46.7968 18.8957C46.7967 18.8955 46.7965 18.8953 48 18C49.2035 17.1047 49.2032 17.1043 49.203 17.104C49.2028 17.1038 49.2025 17.1033 49.2022 17.1029C49.2016 17.1021 49.2008 17.101 49.1998 17.0998C49.198 17.0973 49.1954 17.0938 49.1922 17.0895C49.1857 17.0809 49.1766 17.0687 49.1648 17.0532C49.1413 17.022 49.1072 16.9772 49.063 16.9196C48.9745 16.8044 48.8453 16.638 48.6781 16.4277C48.3438 16.0073 47.8571 15.4107 47.2402 14.696C46.0083 13.2689 44.2479 11.3606 42.1372 9.44303C38.0003 5.68465 32.1845 1.57933 26.2093 1.50126L26.1701 4.50101Z" fill="white"/>
</svg>
