<svg width="395" height="239" viewBox="0 0 395 239" fill="none" xmlns="http://www.w3.org/2000/svg">
<path d="M196.717 169C117.775 169.196 2 234 2 234H393C393 234 276.248 168.804 196.717 169Z" fill="white" stroke="#45929C"/>
<g clip-path="url(#clip0_990_454)">
<path d="M289.659 181.851C278.5 125.121 281.74 141.896 274.34 102.6C272.279 91.6855 261.789 84.5248 250.845 86.5556C241.377 88.3393 234.744 96.4936 234.479 105.748L219.136 121.314L195.864 113.923C195.048 113.664 194.241 113.721 193.425 113.659C193.433 112.823 193.425 111.991 193.392 111.146C196.366 109.691 200.405 106.267 204.229 101.702C210.244 94.5165 211.356 85.5383 211.356 85.5383C211.356 85.5383 202.704 88.1958 196.687 95.3816C194.924 97.4867 193.442 99.5807 192.222 101.557C190.739 93.7945 188.398 87.495 188.208 87.0089C187.673 85.6117 186.099 84.9274 184.723 85.4392C183.322 85.9669 182.62 87.5318 183.148 88.9289C183.215 89.0985 188.489 103.222 188.011 114.504C185.374 115.74 183.223 117.965 182.266 120.96C180.463 126.655 183.61 132.74 189.304 134.549L218.905 143.952C219.985 144.294 221.089 144.463 222.184 144.463C225.036 144.463 227.83 143.334 229.889 141.236L230.376 140.742L225.333 172.181L209.147 180.734C203.693 183.615 200.907 189.84 202.39 195.818C203.882 201.802 209.246 206.005 215.41 206.005H281.698C289.107 206.005 295.106 200 295.106 192.593C295.106 188.175 292.948 184.294 289.659 181.851Z" fill="#45929C"/>
<path d="M243.321 82.8513C256.959 80.2764 265.942 67.1324 263.363 53.4823C260.792 39.84 247.655 30.8608 234.001 33.4367C220.346 36.0077 211.373 49.1517 213.943 62.8022C216.522 76.4479 229.665 85.4223 243.321 82.8513Z" fill="#45929C"/>
<path d="M179.588 70.0204C181.484 70.0204 183.025 62.2619 183.025 60.3714C183.025 58.4677 181.484 56.9343 179.588 56.9343C177.701 56.9343 176.16 58.4677 176.16 60.3714C176.16 62.2619 177.701 70.0204 179.588 70.0204Z" fill="#45929C"/>
<path d="M183.025 85.2454C183.025 83.3457 181.484 75.5955 179.588 75.5955C177.701 75.5955 176.16 83.3457 176.16 85.2454C176.16 87.1408 177.701 88.6776 179.588 88.6776C181.484 88.6776 183.025 87.1408 183.025 85.2454Z" fill="#45929C"/>
<path d="M177.619 70.8318C178.954 69.497 174.562 62.9207 173.219 61.5859C171.876 60.2424 169.708 60.2424 168.365 61.5772C167.022 62.9202 167.022 65.0925 168.365 66.4355C169.708 67.779 176.284 72.1758 177.619 70.8318Z" fill="#45929C"/>
<path d="M181.566 74.7753C180.223 76.1188 184.624 82.687 185.968 84.03C187.311 85.3687 189.477 85.3687 190.812 84.03C192.155 82.6904 192.155 80.5152 190.812 79.1717C189.477 77.8325 182.902 73.4362 181.566 74.7753Z" fill="#45929C"/>
<path d="M176.803 72.8098C176.803 70.9106 169.056 69.3743 167.153 69.3781C165.25 69.3781 163.725 70.9057 163.717 72.8016C163.717 74.7014 165.25 76.2377 167.153 76.2377C169.056 76.2382 176.803 74.7014 176.803 72.8098Z" fill="#45929C"/>
<path d="M182.381 72.8021C182.381 74.7019 190.136 76.2382 192.031 76.2348C193.935 76.2348 195.468 74.7019 195.468 72.8021C195.468 70.9063 193.935 69.3699 192.031 69.3699C190.136 69.3743 182.381 70.9111 182.381 72.8021Z" fill="#45929C"/>
<path d="M177.626 74.7753C176.284 73.4362 169.707 77.8325 168.38 79.1765C167.038 80.5195 167.038 82.687 168.364 84.03C169.707 85.3687 171.875 85.3687 173.226 84.03C174.562 82.687 178.954 76.1188 177.626 74.7753Z" fill="#45929C"/>
<path d="M181.566 70.8318C182.91 72.1753 189.477 67.779 190.813 66.4355C192.156 65.0886 192.156 62.9207 190.813 61.5772C189.487 60.238 187.311 60.238 185.968 61.5772C184.624 62.9207 180.223 69.4883 181.566 70.8318Z" fill="#45929C"/>
<path d="M142.456 148.938C144.342 148.938 145.883 141.178 145.883 139.287C145.883 137.383 144.342 135.852 142.456 135.852C140.561 135.852 139.02 137.384 139.02 139.287C139.02 141.178 140.561 148.938 142.456 148.938Z" fill="#45929C"/>
<path d="M142.456 167.594C144.342 167.594 145.883 166.057 145.883 164.162C145.883 162.262 144.342 154.512 142.456 154.512C140.561 154.512 139.02 162.262 139.02 164.162C139.02 166.057 140.561 167.594 142.456 167.594Z" fill="#45929C"/>
<path d="M144.425 149.749C145.76 151.092 152.337 146.696 153.68 145.353C155.022 144.009 155.022 141.839 153.68 140.494C152.337 139.159 150.168 139.159 148.825 140.503C147.483 141.839 143.091 148.415 144.425 149.749Z" fill="#45929C"/>
<path d="M131.232 158.089C129.889 159.432 129.889 161.607 131.232 162.946C132.568 164.286 134.735 164.286 136.077 162.946C137.421 161.604 141.823 155.035 140.478 153.693C139.143 152.354 132.568 156.75 131.232 158.089Z" fill="#45929C"/>
<path d="M154.892 148.295C152.988 148.29 145.242 149.828 145.242 151.727C145.242 153.619 152.988 155.156 154.892 155.156C156.795 155.156 158.327 153.619 158.327 151.72C158.32 149.824 156.795 148.295 154.892 148.295Z" fill="#45929C"/>
<path d="M130.014 155.151C131.909 155.155 139.663 153.618 139.663 151.719C139.663 149.827 131.909 148.29 130.014 148.286C128.11 148.286 126.576 149.824 126.576 151.719C126.576 153.618 128.11 155.151 130.014 155.151Z" fill="#45929C"/>
<path d="M144.417 153.693C143.09 155.035 147.483 161.604 148.817 162.946C150.169 164.286 152.337 164.286 153.68 162.946C155.006 161.604 155.006 159.435 153.663 158.092C152.336 156.75 145.76 152.354 144.417 153.693Z" fill="#45929C"/>
<path d="M140.478 149.749C141.822 148.406 137.421 141.839 136.077 140.495C134.735 139.156 132.559 139.156 131.232 140.495C129.889 141.839 129.889 144.006 131.232 145.353C132.568 146.696 139.135 151.092 140.478 149.749Z" fill="#45929C"/>
<path d="M75.8712 148.938C77.7671 148.938 79.3082 141.178 79.3082 139.287C79.3082 137.383 77.7666 135.852 75.8712 135.852C73.984 135.852 72.4434 137.384 72.4434 139.287C72.4434 141.178 73.984 148.938 75.8712 148.938Z" fill="#45929C"/>
<path d="M75.8712 154.512C73.984 154.512 72.4434 162.263 72.4434 164.163C72.4434 166.058 73.984 167.595 75.8712 167.595C77.7671 167.595 79.3082 166.058 79.3082 164.163C79.3082 162.263 77.7671 154.512 75.8712 154.512Z" fill="#45929C"/>
<path d="M73.8999 149.749C75.2366 148.414 70.8437 141.839 69.5006 140.503C68.1571 139.16 65.9887 139.16 64.6467 140.494C63.3027 141.838 63.3027 144.009 64.6467 145.353C65.9892 146.696 72.5651 151.092 73.8999 149.749Z" fill="#45929C"/>
<path d="M87.0956 162.946C88.4386 161.607 88.4386 159.432 87.0956 158.089C85.7603 156.75 79.1844 152.354 77.8496 153.693C76.5066 155.035 80.9063 161.603 82.2498 162.945C83.5933 164.285 85.7608 164.285 87.0956 162.946Z" fill="#45929C"/>
<path d="M73.0861 151.727C73.0861 149.827 65.3406 148.29 63.4356 148.295C61.532 148.295 60.0072 149.824 60 151.719C60 153.618 61.532 155.155 63.4356 155.155C65.3406 155.155 73.0861 153.618 73.0861 151.727Z" fill="#45929C"/>
<path d="M78.6641 151.719C78.6641 153.619 86.4182 155.155 88.3145 155.151C90.2177 155.151 91.7501 153.619 91.7501 151.719C91.7501 149.824 90.2172 148.286 88.3145 148.286C86.4182 148.29 78.6641 149.827 78.6641 151.719Z" fill="#45929C"/>
<path d="M73.9103 153.693C72.5668 152.354 65.9904 156.75 64.6643 158.092C63.3203 159.435 63.3203 161.604 64.6483 162.946C65.9904 164.286 68.1588 164.286 69.5096 162.946C70.8453 161.604 75.2378 155.035 73.9103 153.693Z" fill="#45929C"/>
<path d="M77.8497 149.749C79.1928 151.092 85.7604 146.696 87.0957 145.353C88.4387 144.006 88.4387 141.839 87.0957 140.494C85.7691 139.155 83.5934 139.155 82.2504 140.494C80.9064 141.839 76.5063 148.406 77.8497 149.749Z" fill="#45929C"/>
<path d="M88.4701 177.545C88.3473 177.924 88.256 178.291 88.1487 178.665C86.6655 171.756 84.6633 166.375 84.4903 165.926C83.9558 164.533 82.3808 163.841 81.004 164.356C79.6035 164.883 78.9037 166.449 79.4305 167.846C79.4889 167.995 83.4194 178.543 84.1941 188.682C83.3208 187.162 82.348 185.592 81.2113 184.002C75.7643 176.371 67.3496 173.049 67.3496 173.049C67.3496 173.049 67.7531 182.09 73.2001 189.712C76.6197 194.5 80.3284 198.207 83.1715 199.918C83.1546 199.959 83.1546 200 83.1391 200.037C82.6273 201.438 83.3532 202.991 84.7619 203.503C85.0673 203.614 85.38 203.667 85.684 203.667C86.7892 203.667 87.8268 202.984 88.2313 201.884C89.0137 199.728 89.4265 197.33 89.6077 194.838C92.1705 193.391 95.4983 187.792 97.8311 180.569C100.707 171.649 98.3593 162.914 98.3593 162.914C98.3593 162.914 91.346 168.629 88.4701 177.545Z" fill="#45929C"/>
<path d="M137.116 179.407C136.3 180.548 135.574 181.678 134.891 182.794C136.291 174.833 138.854 167.961 138.896 167.841C139.423 166.445 138.723 164.883 137.322 164.356C135.936 163.816 134.371 164.528 133.836 165.926C133.638 166.437 131.05 173.375 129.592 181.694C126.583 173.182 119.966 167.743 119.966 167.743C119.966 167.743 117.618 176.478 120.493 185.398C123.082 193.425 126.914 199.482 129.542 200.013C129.715 200.648 129.872 201.282 130.094 201.884C130.499 202.984 131.536 203.667 132.642 203.667C132.946 203.667 133.259 203.614 133.565 203.503C134.973 202.991 135.698 201.438 135.187 200.037C134.71 198.735 134.412 197.297 134.223 195.789C137.149 194.413 141.309 190.462 145.126 185.118C150.573 177.496 150.976 168.455 150.976 168.455C150.976 168.455 142.564 171.776 137.116 179.407Z" fill="#45929C"/>
</g>
<path d="M272.003 33.3551L269.992 42.2743" stroke="#45929C"/>
<path d="M274.677 24.6694C274.677 24.6694 270.424 27.5016 269.49 30.4573C269.321 30.9928 269.157 31.8572 269.157 31.8572" stroke="#45929C"/>
<path d="M266.779 53.2083L270.248 46.3827" stroke="#45929C"/>
<path d="M274.392 25.089C276.192 29.0589 276.359 31.4587 275.125 35.6393C273.99 39.4842 269.473 44.3798 269.473 44.3798" stroke="#45929C"/>
<path d="M265.385 30.9671L265.304 38.8123" stroke="#45929C"/>
<path d="M265.384 38.8141C265.384 38.8141 268.776 32.7494 268.344 28.6505C268.006 25.4501 265.077 20.9888 265.077 20.9888C265.077 20.9888 261.67 25.3219 261.893 28.4591C261.995 29.8971 262.926 32.0248 262.926 32.0248" stroke="#45929C"/>
<path d="M258.299 36.907C257.222 33.3716 258.578 27.5122 258.578 27.5122C258.578 27.5122 263.501 31.7255 264.726 35.3302C265.98 39.0186 264.433 45.2194 264.433 45.2194C264.433 45.2194 259.452 40.6925 258.299 36.907Z" stroke="#45929C"/>
<path d="M261.945 36.8746L264.508 45.2225" stroke="#45929C"/>
<path d="M269.22 45.1508C269.146 45.0779 274.563 39.1584 274.563 39.1584C274.563 39.1584 274.382 43.7713 273.133 46.3981C271.575 49.6765 266.698 53.3478 266.698 53.3478L266.447 51.5728" stroke="#45929C"/>
<path d="M267.912 40.5873L266.375 51.4294" stroke="#45929C"/>
<path d="M265.382 38.8841L268.958 31.0012C268.958 31.0012 270.493 36.8272 270.193 40.5822C269.834 45.076 266.449 51.5709 266.449 51.5709L264.51 45.2212" stroke="#45929C"/>
<path d="M208.146 30.5182L208.847 39.6345" stroke="#45929C"/>
<path d="M206.756 21.5371C206.756 21.5371 210.556 24.9547 211.052 28.0143C211.142 28.5687 211.179 29.4477 211.179 29.4477" stroke="#45929C"/>
<path d="M210.444 50.9184L207.999 43.6629" stroke="#45929C"/>
<path d="M206.978 21.9936C204.623 25.6614 204.111 28.0119 204.728 32.327C205.294 36.2955 209.057 41.793 209.057 41.793" stroke="#45929C"/>
<path d="M215.041 29.1125L213.986 36.8869" stroke="#45929C"/>
<path d="M213.906 36.8773C213.906 36.8773 211.426 30.3856 212.447 26.3925C213.244 23.2745 216.787 19.2837 216.787 19.2837C216.787 19.2837 219.532 24.064 218.858 27.136C218.549 28.5441 217.319 30.5147 217.319 30.5147" stroke="#45929C"/>
<path d="M221.192 36.0147C222.77 32.6723 222.275 26.6784 222.275 26.6784C222.275 26.6784 216.794 30.1354 215.061 33.5249C213.287 36.9932 213.921 43.3526 213.921 43.3526C213.921 43.3526 219.504 39.5936 221.192 36.0147Z" stroke="#45929C"/>
<path d="M217.59 35.4554L213.847 43.3449" stroke="#45929C"/>
<path d="M209.194 42.5924C209.278 42.5309 204.774 35.8903 204.774 35.8903C204.774 35.8903 204.287 40.481 205.142 43.2607C206.21 46.7299 210.504 51.0679 210.504 51.0679L211.009 49.348" stroke="#45929C"/>
<path d="M211.149 38.266L211.102 49.2165" stroke="#45929C"/>
<path d="M213.897 36.9466L211.499 28.6294C211.499 28.6294 209.137 34.1722 208.891 37.9311C208.597 42.4296 211.007 49.3458 211.007 49.3458L213.843 43.3432" stroke="#45929C"/>
<defs>
<clipPath id="clip0_990_454">
<rect width="239" height="239" fill="white" transform="translate(60)"/>
</clipPath>
</defs>
</svg>
