<svg width="72" height="94" viewBox="0 0 72 94" fill="none" xmlns="http://www.w3.org/2000/svg">
<path d="M26.7448 93.0248C26.4872 93.0253 26.2371 92.938 26.0357 92.7773C25.8344 92.6166 25.6938 92.3921 25.6371 92.1408C25.5805 91.8895 25.6111 91.6263 25.7241 91.3948C25.837 91.1632 26.0255 90.9771 26.2584 90.867C28.1006 89.9976 30.0101 89.1334 31.8627 88.3055C37.0529 85.9665 41.9534 83.762 45.5136 81.3247C47.3559 80.0673 48.6495 78.8719 49.4723 77.6714C50.2951 76.4708 50.6315 75.2444 50.4504 73.9921C50.2227 72.4138 49.3016 71.0736 47.6405 69.8989C46.0673 68.7863 43.8629 67.8342 40.8926 66.9959C40.603 66.9142 40.3577 66.7208 40.2107 66.4583C40.0637 66.1958 40.027 65.8857 40.1086 65.5961C40.1903 65.3065 40.3836 65.0612 40.6461 64.9142C40.9086 64.7672 41.2188 64.7305 41.5084 64.8121C44.7323 65.7229 47.1644 66.7785 48.9549 68.0463C51.1179 69.5781 52.3805 71.4668 52.6962 73.6661C52.9601 75.4824 52.5047 77.2626 51.3404 78.9599C50.3572 80.3881 48.8721 81.7749 46.797 83.198C43.0712 85.7491 38.0775 87.995 32.7941 90.3754C30.9519 91.2033 29.0528 92.0572 27.2261 92.9162C27.0763 92.9894 26.9115 93.0266 26.7448 93.0248Z" fill="#1F545B"/>
<path d="M49.7026 48.1501L61.9098 41.6817C72.7354 23.4769 71.1416 6.02768 70.8156 0.863281C54.8049 19.3423 48.3158 17.3345 36.3931 30.9182L34.0128 41.0711L31.0994 37.7075C15.5182 60.0521 26.6801 85.6619 26.6801 85.6619C30.0334 72.192 46.9496 61.2629 54.6134 51.7104C55.6484 50.5305 56.6212 49.3438 57.532 48.1501H49.7026Z" fill="#CDEEEB"/>
<path d="M23.2298 64.7564L23.0539 64.746C16.8752 63.7732 11.9592 62.821 8.05227 61.3151C3.18283 59.4367 0.579927 56.8907 0.0935006 53.522C-0.392926 50.1532 1.01461 47.1933 4.40924 44.4765C7.2657 42.1841 11.2089 40.2643 15.3849 38.2358C20.1871 35.9071 25.1548 33.4957 28.8806 30.3184C30.847 28.6418 32.2753 26.9238 33.2429 25.066C34.3193 23.0013 34.8109 20.8072 34.7333 18.3647C34.1537 10.5664 27.9181 6.54561 27.8509 6.50421C27.616 6.33436 27.4549 6.08135 27.4001 5.79677C27.3454 5.51218 27.4013 5.21744 27.5564 4.97262C27.7114 4.7278 27.954 4.55134 28.2347 4.4792C28.5154 4.40706 28.813 4.44468 29.0669 4.58438C29.1394 4.63095 30.935 5.77975 32.8031 8.02041C35.2766 10.9907 36.7307 14.5199 36.9998 18.2198C36.999 18.2355 37.0007 18.2513 37.005 18.2664C37.1757 23.5809 34.9972 28.0881 30.3554 32.0468C26.4071 35.4104 21.31 37.8839 16.3784 40.2798C12.3214 42.2514 8.48694 44.1143 5.82712 46.2463C4.47651 47.3278 3.53988 48.3938 2.96031 49.496C2.38074 50.5982 2.14788 51.8712 2.33934 53.196C2.53081 54.5207 3.15178 55.5867 4.26435 56.5906C5.37692 57.5945 6.88277 58.4328 8.8647 59.1987C12.8079 60.7149 18.1844 61.6826 23.4057 62.5002C23.6928 62.5387 23.9543 62.6857 24.1364 62.911C24.3185 63.1362 24.4074 63.4227 24.3849 63.7115C24.3623 64.0003 24.2301 64.2695 24.0153 64.4638C23.8005 64.6581 23.5194 64.7628 23.2298 64.7564Z" fill="#1F545B"/>
<path d="M36.2694 43.5291L38.6549 33.3762C50.355 20.0461 55.5039 18.4109 70.816 0.89433V0.863281C54.8053 19.3423 48.3162 17.3345 36.3936 30.9182L34.0391 40.9521L36.2694 43.5291Z" fill="#BAE0DE"/>
<path d="M33.2986 40.2478L31.0994 37.707C15.5182 60.0516 26.6801 85.6614 26.6801 85.6614C26.8648 84.9191 27.0876 84.1868 27.3477 83.4673C24.9569 75.0842 21.8262 56.7863 33.2986 40.2478Z" fill="#BAE0DE"/>
<path d="M51.2506 51.7106C44.5079 60.1196 30.593 69.5945 25.0664 80.9272C25.9151 83.9131 26.6809 85.6621 26.6809 85.6621C30.0342 72.1923 46.9504 61.2632 54.6142 51.7106C55.6492 50.5308 56.622 49.344 57.5328 48.1504H54.1692C53.2584 49.3406 52.2856 50.5273 51.2506 51.7106Z" fill="#45929C"/>
<path d="M70.8151 0.863281C69.7181 2.12592 68.6659 3.29714 67.6585 4.37694C67.969 11.8182 67.5861 26.4886 58.551 41.6817L46.3438 48.1501H49.7022L61.9094 41.6817C72.735 23.4769 71.1411 6.02768 70.8151 0.863281Z" fill="#45929C"/>
<path d="M51.3314 31.3175C44.8475 36.6113 39.5278 43.1004 35.5226 50.6038C32.3246 56.5961 29.9545 63.2457 28.4746 70.361C27.4604 75.2922 26.8872 80.3039 26.7617 85.3367C27.3361 83.1737 28.2572 81.0727 29.4319 79.039C29.7149 76.2801 30.138 73.5374 30.6997 70.8215C32.1331 63.9184 34.4307 57.4759 37.5252 51.675C41.3856 44.4355 46.5137 38.1792 52.7648 33.0769C52.9981 32.8868 53.1464 32.6119 53.177 32.3125C53.2075 32.0131 53.1179 31.7138 52.9278 31.4805C52.7378 31.2472 52.4628 31.0989 52.1634 31.0684C51.864 31.0378 51.5647 31.1274 51.3314 31.3175Z" fill="#45929C"/>
<path d="M26.743 93.0251C26.4632 93.0242 26.1935 92.9203 25.9855 92.7333C25.7774 92.5462 25.6455 92.289 25.6149 92.0109C25.6046 91.9177 25.3666 89.5891 25.4338 85.7494C25.5337 80.5774 26.1105 75.4257 27.157 70.3597C28.6318 63.2444 31.0019 56.5949 34.1999 50.6025C38.2051 43.0991 43.5248 36.61 50.0087 31.3162C50.1228 31.2108 50.2572 31.1298 50.4037 31.0782C50.5502 31.0267 50.7058 31.0056 50.8607 31.0164C51.0157 31.0272 51.1668 31.0696 51.3048 31.141C51.4427 31.2124 51.5646 31.3112 51.6629 31.4315C51.7613 31.5517 51.8339 31.6908 51.8765 31.8402C51.919 31.9896 51.9306 32.1462 51.9104 32.3002C51.8902 32.4542 51.8387 32.6024 51.759 32.7358C51.6794 32.8692 51.5733 32.9848 51.4473 33.0756C45.1962 38.178 40.068 44.4342 36.2025 51.6737C33.108 57.4746 30.8104 63.9172 29.377 70.8203C26.9397 82.5876 27.866 91.6797 27.8763 91.7728C27.9068 92.0718 27.8178 92.3707 27.6288 92.6043C27.4397 92.8379 27.166 92.9873 26.8672 93.0199L26.743 93.0251Z" fill="#1F545B"/>
</svg>
