<svg width="234" height="152" viewBox="0 0 234 152" fill="none" xmlns="http://www.w3.org/2000/svg">
<path d="M33.0194 25.2816L18.7612 18.6741L20.6013 109.211L89.7532 142.023L33.1998 95.013L33.0194 94.8631V94.6285V25.2816Z" fill="#4AA4B0" stroke="#4AA4B0"/>
<path d="M197.811 25.2259L212.069 18.6184L210.229 109.155L141.077 141.967L197.63 94.9573L197.811 94.8074V94.5728V25.2259Z" fill="#4AA4B0" stroke="#4AA4B0"/>
<path d="M15.4278 114.822L15.1479 114.685V114.373V48.5596H1.98376L0.508095 148.536L90.0846 151.425L15.4278 114.822Z" fill="#1F545B" stroke="#1F545B"/>
<path d="M218.148 112.589L218.428 112.451V112.14V46.3262H231.592L233.068 146.303L143.492 149.192L218.148 112.589Z" fill="#1F545B" stroke="#1F545B"/>
<path d="M188.436 90.2859L191.372 1.09641L117.154 62.8224V148.708L188.436 90.2859Z" fill="#4AA4B0" stroke="#4AA4B0"/>
<path d="M39.977 92.1445L36.6732 1.47379L110.887 63.1964V148.358L39.977 92.1445Z" fill="#4AA4B0" stroke="#4AA4B0"/>
</svg>
