<svg width="124" height="167" viewBox="0 0 124 167" fill="none" xmlns="http://www.w3.org/2000/svg">
<path d="M122.53 75.6724V123.633H112.347V75.6721C112.347 62.1577 107.042 49.4103 97.4127 39.7814C87.7838 30.1525 75.036 24.8473 61.522 24.8473C48.008 24.8473 35.2602 30.1525 25.6313 39.7814C16.0025 49.4103 10.6973 62.158 10.6973 75.6721V123.633H0.513672V75.6721C0.513672 59.4381 6.87513 44.1359 18.4306 32.5807L18.4306 32.5807C29.9855 21.0252 45.288 14.6641 61.522 14.6641C77.756 14.6641 93.0582 21.0255 104.613 32.581L104.967 32.2275L104.613 32.581C116.169 44.1362 122.53 59.4384 122.53 75.6724Z" fill="#1691A1" stroke="black"/>
<path d="M69.9851 83.4365L69.9851 83.4365C75.7748 75.1134 83.6296 70.5801 92.0887 70.5801C100.547 70.5801 108.402 75.1131 114.192 83.4365L114.603 83.151L114.192 83.4365C119.56 91.152 122.529 101.333 122.53 112.11C122.53 129.792 108.851 144.135 92.089 144.135C75.3273 144.135 61.6484 129.792 61.6484 112.11C61.6484 101.333 64.6177 91.152 69.9851 83.4365Z" fill="#ABD1CD" stroke="black"/>
<mask id="path-3-inside-1_91_23279" fill="white">
<path d="M92.0879 144.635C109.149 144.635 123.028 130.045 123.028 112.11C123.028 101.246 120.036 90.9618 114.602 83.151C108.739 74.7219 100.743 70.0801 92.0882 70.0801"/>
</mask>
<path d="M92.0879 144.635C109.149 144.635 123.028 130.045 123.028 112.11C123.028 101.246 120.036 90.9618 114.602 83.151C108.739 74.7219 100.743 70.0801 92.0882 70.0801" fill="#CDEEEB"/>
<path d="M114.602 83.151L113.781 83.722L113.781 83.7221L114.602 83.151ZM92.0879 145.635C109.747 145.635 124.028 130.549 124.028 112.11H122.028C122.028 129.54 108.55 143.635 92.0879 143.635V145.635ZM124.028 112.11C124.028 101.072 120.99 90.5813 115.423 82.5799L113.781 83.7221C119.083 91.3422 122.028 101.421 122.028 112.11H124.028ZM115.423 82.5799C109.413 73.9393 101.134 69.0801 92.0882 69.0801V71.0801C100.351 71.0801 108.065 75.5044 113.781 83.722L115.423 82.5799Z" fill="black" mask="url(#path-3-inside-1_91_23279)"/>
<path d="M30.9543 70.5801C39.4137 70.5801 47.2682 75.1131 53.0585 83.4365C58.4259 91.152 61.3949 101.333 61.3949 112.11C61.3949 129.792 47.7154 144.135 30.9543 144.135C14.1931 144.135 0.513672 129.792 0.513672 112.11C0.513672 101.333 3.4826 91.152 8.85 83.4365C14.6403 75.1134 22.4949 70.5801 30.9543 70.5801Z" fill="#ABD1CD" stroke="black"/>
<mask id="path-6-inside-2_91_23279" fill="white">
<path d="M30.9551 144.635C48.0156 144.635 61.8957 130.045 61.8957 112.11C61.8957 101.246 58.9035 90.9618 53.4698 83.151C47.6059 74.7219 39.6102 70.0801 30.9551 70.0801"/>
</mask>
<path d="M30.9551 144.635C48.0156 144.635 61.8957 130.045 61.8957 112.11C61.8957 101.246 58.9035 90.9618 53.4698 83.151C47.6059 74.7219 39.6102 70.0801 30.9551 70.0801" fill="#CDEEEB"/>
<path d="M53.4698 83.151L52.6489 83.7221V83.7221L53.4698 83.151ZM30.9551 145.635C48.6143 145.635 62.8957 130.549 62.8957 112.11H60.8957C60.8957 129.54 47.4168 143.635 30.9551 143.635V145.635ZM62.8957 112.11C62.8957 101.072 59.857 90.5813 54.2907 82.5799L52.6489 83.7221C57.95 91.3422 60.8957 101.421 60.8957 112.11H62.8957ZM54.2907 82.5799C48.2797 73.9394 40.0016 69.0801 30.9551 69.0801V71.0801C39.2188 71.0801 46.9321 75.5044 52.6489 83.7221L54.2907 82.5799Z" fill="black" mask="url(#path-6-inside-2_91_23279)"/>
<path d="M61.5226 70.5801C69.9814 70.5801 77.8362 75.1131 83.6262 83.4365L84.0367 83.151L83.6262 83.4365C88.9936 91.152 91.9626 101.333 91.9632 112.11C91.9632 129.792 78.2841 144.135 61.5226 144.135C44.7615 144.135 31.082 129.792 31.082 112.11C31.082 101.333 34.051 91.152 39.4184 83.4365C45.2087 75.1134 53.0639 70.5801 61.5226 70.5801Z" fill="#45929C" stroke="black"/>
<mask id="path-9-inside-3_91_23279" fill="white">
<path d="M61.5215 144.635C78.5823 144.635 92.4621 130.045 92.4621 112.11C92.4621 101.246 89.4699 90.9618 84.0359 83.151C78.1723 74.7219 70.1763 70.0801 61.5218 70.0801"/>
</mask>
<path d="M61.5215 144.635C78.5823 144.635 92.4621 130.045 92.4621 112.11C92.4621 101.246 89.4699 90.9618 84.0359 83.151C78.1723 74.7219 70.1763 70.0801 61.5218 70.0801" fill="#4AA4B0"/>
<path d="M84.0359 83.151L83.2149 83.722L83.215 83.7221L84.0359 83.151ZM61.5215 145.635C79.181 145.635 93.4621 130.549 93.4621 112.11H91.4621C91.4621 129.54 77.9835 143.635 61.5215 143.635V145.635ZM93.4621 112.11C93.4621 101.072 90.4234 90.5813 84.8567 82.5799L83.215 83.7221C88.5164 91.3422 91.4621 101.421 91.4621 112.11H93.4621ZM84.8568 82.5799C78.8461 73.9393 70.5677 69.0801 61.5218 69.0801V71.0801C69.7849 71.0801 77.4985 75.5044 83.2149 83.722L84.8568 82.5799Z" fill="black" mask="url(#path-9-inside-3_91_23279)"/>
<path d="M0.513672 143.89V110.751H122.53V143.89C122.53 156.358 112.386 166.502 99.9178 166.502H23.1259C10.6577 166.502 0.513672 156.358 0.513672 143.89Z" fill="#4AA4B0" stroke="black"/>
<path d="M99.9183 166.502H61.8359V110.751H122.531V143.89C122.531 156.358 112.386 166.502 99.9183 166.502Z" fill="#1691A1" stroke="black"/>
<path d="M60.6603 19.3372C60.5638 19.2313 60.4455 19.1019 60.3069 18.951C59.8837 18.4902 59.2717 17.8295 58.5172 17.0308C57.0079 15.4332 54.9301 13.285 52.6546 11.0811C50.3777 8.87596 47.9094 6.62138 45.6183 4.80773C43.3086 2.9793 41.2396 1.64916 39.7505 1.22482L39.8874 0.74444L39.7505 1.22482C33.6404 -0.516479 27.2759 3.02538 25.5346 9.13523L60.6603 19.3372ZM60.6603 19.3372C60.5638 19.443 60.4455 19.5724 60.3069 19.7233C59.8837 20.1841 59.2717 20.8448 58.5172 21.6435C57.0079 23.2411 54.9301 25.3893 52.6546 27.5932C50.3777 29.7984 47.9094 32.0529 45.6183 33.8666C43.3086 35.695 41.2396 37.0252 39.7505 37.4495L39.8876 37.9304L39.7505 37.4495C33.6407 39.1908 27.2759 35.6492 25.5346 29.5391M60.6603 19.3372L25.5346 9.13528C24.5283 12.6673 25.2892 16.2822 27.2908 19.0437L27.5035 19.3372L27.2908 19.6306C25.2892 22.3921 24.5283 26.0071 25.5346 29.5391M25.5346 29.5391L25.0537 29.6761L25.5346 29.5391Z" fill="#DFF4F2" stroke="black"/>
<path d="M62.0109 19.3372C62.1073 19.443 62.2257 19.5724 62.3643 19.7233C62.7874 20.1841 63.3995 20.8448 64.154 21.6435C65.6632 23.2411 67.741 25.3893 70.0166 27.5932C72.2934 29.7984 74.7617 32.0529 77.0528 33.8666C79.3626 35.695 81.4315 37.0252 82.9206 37.4495C89.0311 39.1908 95.3952 35.6493 97.1366 29.5391L62.0109 19.3372ZM62.0109 19.3372C62.1073 19.2313 62.2257 19.1019 62.3643 18.951C62.7875 18.4902 63.3995 17.8295 64.154 17.0309C65.6634 15.4332 67.7412 13.285 70.0168 11.0811C72.2937 8.87596 74.762 6.62138 77.0531 4.80772C79.3628 2.9793 81.4317 1.64915 82.9206 1.22482C89.0311 -0.516486 95.3953 3.0254 97.1366 9.13528C98.1428 12.6673 97.3819 16.2822 95.3803 19.0437L95.1676 19.3372L95.3803 19.6306C97.3819 22.3921 98.1428 26.0071 97.1366 29.5391L62.0109 19.3372Z" fill="#DFF4F2" stroke="black"/>
<path d="M72.2044 18.9206C72.2044 24.8208 67.4214 29.6039 61.5212 29.6039C55.621 29.6039 50.8379 24.8208 50.8379 18.9206C50.8379 13.0204 55.621 8.2373 61.5212 8.2373C67.4214 8.2373 72.2044 13.0204 72.2044 18.9206Z" fill="#4AA4B0" stroke="black"/>
<mask id="path-16-inside-4_91_23279" fill="white">
<path d="M61.5215 7.7373C67.6976 7.7373 72.7048 12.7444 72.7048 18.9206C72.7048 25.0967 67.6976 30.1039 61.5215 30.1039"/>
</mask>
<path d="M61.5215 7.7373C67.6976 7.7373 72.7048 12.7444 72.7048 18.9206C72.7048 25.0967 67.6976 30.1039 61.5215 30.1039" fill="#1691A1"/>
<path d="M61.5215 8.7373C67.1453 8.7373 71.7048 13.2967 71.7048 18.9206H73.7048C73.7048 12.1922 68.2499 6.7373 61.5215 6.7373V8.7373ZM71.7048 18.9206C71.7048 24.5444 67.1453 29.1039 61.5215 29.1039V31.1039C68.2499 31.1039 73.7048 25.649 73.7048 18.9206H71.7048Z" fill="black" mask="url(#path-16-inside-4_91_23279)"/>
<path d="M61.5957 7.78418V30.083" stroke="black"/>
<path d="M0.513672 121.364V108.975H122.53V121.364L121.801 122.575L121.801 122.575C116.188 131.909 105.944 137.707 95.0715 137.707C89.2146 137.707 83.4876 136.048 78.5613 132.974L78.2966 132.809L78.0319 132.974C73.1055 136.048 67.3785 137.707 61.5217 137.707C55.6648 137.707 49.9378 136.048 45.0115 132.974L44.7468 132.809L44.4821 132.974C39.5557 136.048 33.8287 137.707 27.9719 137.707C17.0999 137.707 6.85595 131.909 1.24221 122.575L1.24215 122.575L0.513672 121.364Z" fill="#1F545B" stroke="black"/>
<mask id="path-20-inside-5_91_23279" fill="white">
<path d="M61.5225 138.208C67.4736 138.208 73.2922 136.523 78.2974 133.4C83.3026 136.523 89.1212 138.208 95.0723 138.208C106.12 138.208 116.527 132.317 122.23 122.833L123.031 121.504V108.476H61.3359"/>
</mask>
<path d="M61.5225 138.208C67.4736 138.208 73.2922 136.523 78.2974 133.4C83.3026 136.523 89.1212 138.208 95.0723 138.208C106.12 138.208 116.527 132.317 122.23 122.833L123.031 121.504V108.476H61.3359" fill="#1F545B"/>
<path d="M78.2974 133.4L78.8268 132.551L78.2974 132.221L77.7681 132.551L78.2974 133.4ZM122.23 122.833L121.374 122.318L121.374 122.318L122.23 122.833ZM123.031 121.504L123.887 122.019L124.031 121.782V121.504H123.031ZM123.031 108.476H124.031V107.476H123.031V108.476ZM61.5225 139.208C67.6622 139.208 73.664 137.469 78.8268 134.248L77.7681 132.551C72.9205 135.576 67.2851 137.208 61.5225 137.208V139.208ZM77.7681 134.248C82.9309 137.469 88.9327 139.208 95.0723 139.208V137.208C89.3097 137.208 83.6743 135.576 78.8268 132.551L77.7681 134.248ZM95.0723 139.208C106.472 139.208 117.203 133.133 123.087 123.349L121.374 122.318C115.85 131.502 105.769 137.208 95.0723 137.208V139.208ZM123.087 123.349L123.887 122.019L122.174 120.988L121.374 122.318L123.087 123.349ZM124.031 121.504V108.476H122.031V121.504H124.031ZM123.031 107.476H61.3359V109.476H123.031V107.476Z" fill="black" mask="url(#path-20-inside-5_91_23279)"/>
<path d="M31 71V108.5" stroke="black"/>
<path d="M62 71V108.5" stroke="black"/>
<path d="M92 71V108.5" stroke="black"/>
</svg>
