<svg width="162" height="161" viewBox="0 0 162 161" fill="none" xmlns="http://www.w3.org/2000/svg">
<path d="M160.969 118.36C160.969 126.577 154.308 133.238 146.091 133.238C137.874 133.238 131.213 126.577 131.213 118.36C131.213 110.144 137.874 103.482 146.091 103.482C154.308 103.482 160.969 110.144 160.969 118.36Z" fill="#7CBFC8" stroke="black"/>
<path d="M69.537 21.2533L69.537 21.2533C70.0093 16.2032 68.487 11.2744 65.2505 7.37001C62.0133 3.46532 57.4521 1.05618 52.4027 0.584121C47.3534 0.112665 42.424 1.63382 38.5194 4.8706C34.6147 8.10777 32.2055 12.6686 31.7335 17.7184L31.306 17.6785L31.7335 17.7184C31.1388 24.0786 29.119 66.3986 29.0327 68.2092M69.537 21.2533L29.0327 68.2092M69.537 21.2533C68.8269 28.8495 62.728 69.6666 62.4666 71.414L62.9611 71.4879L62.4666 71.414L61.7287 76.349L28.7936 73.2292M69.537 21.2533L28.7936 73.2292M29.0327 68.2092L28.7936 73.2292M29.0327 68.2092L28.7936 73.2292" fill="#7CBFC8" stroke="black"/>
<path d="M93.6802 79.9247L93.6913 80.406L94.1727 80.4131H94.1731L94.1744 80.4131L94.1796 80.4132L94.2002 80.4135L94.2812 80.4147L94.5904 80.4197C94.8578 80.4242 95.242 80.4308 95.7089 80.4396C96.6429 80.4572 97.9075 80.4835 99.2306 80.5182C101.897 80.5881 104.744 80.6913 105.649 80.8212C124.944 83.5916 139.824 100.231 139.824 120.281V132.106C139.824 147.568 127.243 160.148 111.781 160.148H111.49H40.3669C32.1637 160.148 25.4889 153.473 25.4889 145.27C25.4889 137.067 32.1637 130.392 40.3669 130.392H41.5265H42.164L42.0121 129.773C41.7087 128.537 41.4633 127.278 41.279 125.999C41.0098 124.131 40.8675 122.222 40.8675 120.281C40.8675 118.311 41.0136 116.374 41.2908 114.48L41.362 113.993L40.8768 113.914C32.9148 112.611 25.5771 109.614 19.6337 105.157C12.7471 99.9917 8.35412 93.3939 6.85012 86.1887L6.7578 85.7464L6.30845 85.7936C6.13071 85.8122 5.95009 85.8217 5.76683 85.8217C2.85807 85.8217 0.5 83.4637 0.5 80.5549C0.5 77.6461 2.85806 75.2881 5.76683 75.2881C5.95008 75.2881 6.13123 75.2976 6.31004 75.3158L6.75807 75.3614L6.85011 74.9205C8.35443 67.7156 12.7472 61.1179 19.6337 55.9528C27.1166 50.3403 36.8024 47.0309 47.1664 46.5227L47.499 46.5064L47.6122 46.1932C52.1021 33.7627 57.1569 19.8737 58.5099 16.5804L58.5099 16.5803C61.52 9.25109 68.6197 4.80859 76.0956 4.80859C78.4929 4.80859 80.9297 5.26561 83.2827 6.23189C92.9649 10.2088 97.6071 21.3226 93.6308 31.005C92.4019 33.9971 88.4354 42.6076 81.8198 56.6437L81.655 56.9934L81.9519 57.2409C89.3061 63.3724 93.4837 71.4138 93.6802 79.9247Z" fill="#D0EDEB" stroke="black"/>
<path d="M45.6333 77.3498C45.6333 80.2586 43.2752 82.6167 40.3664 82.6167C37.4576 82.6167 35.0996 80.2586 35.0996 77.3498C35.0996 74.441 37.4576 72.083 40.3664 72.083C43.2752 72.083 45.6333 74.441 45.6333 77.3498Z" fill="#366A71" stroke="black"/>
<path d="M79.7781 29.7789L79.7781 29.779C79.2494 30.9916 77.7658 33.6894 75.7194 37.2387C73.7332 40.6837 71.2327 44.9039 68.6011 49.2871C66.7595 48.6224 64.8516 48.0527 62.8871 47.587C64.3777 42.4526 65.8427 37.4903 67.0541 33.527C68.3104 29.417 69.2828 26.4191 69.7284 25.397L69.7284 25.397C70.936 22.627 74.1728 21.3551 76.9441 22.5633L77.1435 22.1058L76.9441 22.5633C79.7147 23.7712 80.9862 27.0087 79.7781 29.7789Z" fill="white" stroke="black"/>
<path d="M73.0821 149.703H73.538L73.58 149.249C74.5432 138.818 83.313 130.613 93.9776 130.555H94.0929H109.011V141.088H94.0929C88.539 141.088 84.0218 145.605 84.0218 151.159C84.0218 155.099 86.2953 158.515 89.599 160.169L38.3878 160.237C30.1846 160.237 23.5098 153.563 23.5098 145.359C23.5098 137.156 30.1846 130.481 38.3878 130.481H59.0326V141.015H38.3878C36.028 141.015 34.0434 142.999 34.0434 145.359C34.0434 147.719 36.028 149.703 38.3878 149.703H73.0821Z" fill="#7CBFC8" stroke="black"/>
<path d="M5.76683 85.8091C8.95176 85.8091 11.5337 83.2271 11.5337 80.0422C11.5337 76.8573 8.95176 74.2754 5.76683 74.2754C2.5819 74.2754 0 76.8573 0 80.0422C0 83.2271 2.5819 85.8091 5.76683 85.8091Z" fill="#1E2E3B"/>
</svg>
