<svg width="195" height="285" viewBox="0 0 195 285" fill="none" xmlns="http://www.w3.org/2000/svg">
<g filter="url(#filter0_d_1013_566)">
<path d="M111.261 11.1578C111.648 11.2868 112.357 11.6094 112.808 11.9105C113.259 12.1901 113.797 12.4266 114.012 12.4266C114.463 12.4266 117.084 14.147 117.084 14.4481C117.084 14.5771 117.342 14.8782 117.664 15.1147L118.223 15.5878L117.772 16.8997C117.364 18.1254 117.364 18.319 117.643 18.9856C117.815 19.3942 117.944 19.9749 117.944 20.2974C117.944 20.6845 118.03 20.835 118.245 20.749C118.975 20.4695 119.77 22.4479 119.426 23.6522C119.211 24.4048 119.512 25.6951 120.071 26.6199C120.329 27.0069 120.415 27.7381 120.415 29.6306C120.415 31.9316 120.458 32.1897 121.016 33.2434C121.511 34.2111 121.618 34.6197 121.575 35.7165C121.532 36.6412 121.618 37.2648 121.876 37.7379C122.327 38.5981 122.284 39.6089 121.747 40.5336C121.468 41.0067 121.382 41.4368 121.489 41.8669C121.575 42.3185 121.468 42.8346 121.059 43.6948C120.759 44.34 120.436 45.2432 120.372 45.6733C120.307 46.0819 120.114 46.4905 119.963 46.555C119.792 46.6195 119.663 46.8775 119.663 47.1356C119.663 47.6732 118.997 48.727 118.373 49.2001C117.987 49.5011 117.944 49.6302 118.137 50.1463C118.266 50.4689 118.373 51.4581 118.373 52.3183V53.9312L119.383 54.4258C120.501 54.9849 128.429 56.8343 130.535 57.0279C131.803 57.1354 133.93 57.8235 134.381 58.2536C134.489 58.3612 133.909 58.4472 132.834 58.4472C131.352 58.4472 129.762 58.7268 129.762 59.0063C129.762 59.0493 130.084 59.5869 130.492 60.2106C131.502 61.802 132.018 63.4363 132.684 67.0492C133.2 69.9738 133.414 70.8125 133.414 69.9954C133.414 69.5222 133.844 69.2857 134.081 69.6513C134.188 69.8233 134.274 70.748 134.274 71.6942C134.274 73.092 134.381 73.6942 134.811 74.6834C135.305 75.8017 135.348 76.0812 135.219 77.7586C135.112 79.3715 135.198 80.1887 135.864 83.7155C136.788 88.5756 137.368 90.7906 137.948 91.5863C138.185 91.9304 138.356 92.5325 138.356 93.0272C138.356 93.5003 138.507 94.2959 138.679 94.7906C138.851 95.2852 139.001 96.0593 139.001 96.4894C139.001 96.9195 139.194 97.5001 139.431 97.8012C139.667 98.1023 139.861 98.6614 139.861 99.0485C139.861 99.7582 140.419 101.048 141.171 102.124C141.386 102.425 141.623 102.941 141.708 103.306C141.773 103.651 142.074 104.231 142.353 104.618C142.632 104.984 142.869 105.414 142.869 105.521C142.869 105.651 143.256 105.909 143.728 106.102C144.91 106.575 145.318 107.392 145.168 108.962C145.125 109.629 144.889 110.532 144.674 110.962C144.308 111.758 144.308 111.844 144.674 113.435C144.889 114.36 145.211 115.457 145.404 115.865C145.576 116.274 145.748 117.285 145.748 118.102C145.77 119.027 145.877 119.629 146.027 119.672C146.779 119.93 147.725 120.811 148.004 121.521C148.262 122.231 148.262 122.618 147.918 124.79C147.489 127.435 147.596 128.532 148.455 130.596C148.67 131.069 148.842 132.08 148.842 132.854C148.864 134.51 148.993 135.435 149.551 137.628C149.766 138.532 149.96 139.8 149.96 140.467C149.96 141.134 150.11 142.553 150.303 143.65C150.518 144.854 150.583 146.058 150.497 146.746C150.411 147.456 150.475 148.359 150.69 149.284C150.883 150.08 151.034 150.768 151.034 150.811C151.034 150.854 150.733 150.746 150.389 150.553C149.508 150.123 149.165 149.521 148.971 148.166C148.885 147.542 148.756 147.005 148.67 146.94C148.391 146.768 147.961 148.66 147.832 150.811C147.746 151.994 147.617 153.09 147.51 153.241C147.252 153.65 146.736 153.542 146.543 153.004C146.35 152.553 146.35 152.553 146.199 152.961C145.662 154.596 145.275 155.327 144.932 155.391C144.695 155.456 144.588 155.391 144.674 155.241C144.76 155.112 144.674 154.789 144.502 154.531C144.094 153.951 144.072 153.241 144.48 152.144L144.76 151.306L144.308 151.714C143.191 152.682 143.191 152.682 143.127 151.607C143.084 150.682 143.191 150.445 144.373 148.768C145.082 147.757 145.619 146.789 145.555 146.617C145.49 146.445 145.361 145.779 145.232 145.134C145.125 144.51 144.824 143.671 144.609 143.306C144.394 142.94 144.137 142.144 144.051 141.542C143.943 140.639 143.814 140.381 143.384 140.187C142.117 139.628 141.515 140.252 141.257 142.424C141.107 143.865 140.591 145.112 139.796 146.058C139.345 146.574 139.173 146.639 138.614 146.51C137.948 146.381 137.948 146.359 138.056 145.37C138.142 144.811 138.335 143.671 138.507 142.854C138.679 142.015 138.894 140.575 138.98 139.628C139.109 138.295 139.345 137.478 140.011 136.08C140.484 135.069 140.828 134.123 140.763 133.973C140.72 133.822 140.828 133.306 141.021 132.833C141.472 131.693 141.451 130.446 140.956 129.586C140.742 129.198 140.505 128.295 140.441 127.586C140.355 126.553 140.075 125.736 139.023 123.672C138.314 122.231 137.433 120.725 137.067 120.317C136.723 119.908 136.423 119.435 136.423 119.263C136.423 119.091 135.928 118.446 135.348 117.822C133.887 116.295 133.543 115.586 133.586 114.145C133.586 113.177 133.479 112.79 132.963 111.973C132.619 111.435 132.34 110.726 132.34 110.382C132.34 109.801 132.34 109.779 131.91 110.167C131.567 110.468 131.502 110.726 131.631 111.392C131.738 112.21 131.695 112.296 130.621 113.306C129.998 113.887 129.375 114.36 129.224 114.36C128.924 114.36 128.472 112.984 128.472 111.994C128.472 111.414 128.73 111.048 129.955 109.844L131.416 108.403L131.158 107.091C130.836 105.543 130.041 103.113 129.59 102.21C129.396 101.844 129.181 101.07 129.096 100.489C128.58 96.8335 126.109 87.0488 125.099 84.6617C124.863 84.0811 124.841 83.7585 124.991 83.4575C125.163 83.1349 125.034 82.4252 124.433 80.3822C123.724 78.0167 123.616 77.7801 123.358 78.1457C122.735 79.0059 120.307 83.522 120.307 83.823C120.286 84.3821 118.481 88.6186 117.772 89.7154C117.278 90.4896 117.084 91.0487 117.084 91.7153C117.084 92.339 116.848 93.0917 116.418 93.9734C115.301 96.1884 114.807 100.618 115.473 102.253C115.645 102.661 115.795 103.199 115.795 103.414C115.795 103.737 115.967 103.823 116.633 103.823C118.846 103.823 119.555 106.253 117.75 107.607C117.471 107.823 117.6 108.102 118.696 109.5C122.048 113.758 122.757 114.855 124.39 118.123C125.335 120.016 126.216 121.715 126.324 121.887C126.582 122.295 128.494 127.285 129.482 130.123C129.869 131.306 130.986 135.177 131.932 138.725C136.595 156.23 137.325 158.295 145.297 176.079C148.198 182.574 154.107 194.272 156.771 198.767C163.969 210.96 169.234 222.293 173.703 235.218C176.152 242.314 175.68 241.476 178 242.745C182.534 245.175 187.884 249.261 189.474 251.476C190.42 252.787 191 254.379 191 255.604C191 258.164 188.959 261.196 185.091 264.422C180.149 268.55 175.852 270.679 167.643 273.045C156.062 276.4 150.733 276.83 144.867 274.873C141.966 273.905 141.343 273.475 140.247 271.669C138.937 269.561 138.808 268.895 137.604 258.336C136.788 251.261 135.606 242.702 134.962 239.304L134.575 237.261L133.2 237.325C128.73 237.54 114.269 239.261 113.883 239.605C113.646 239.841 113.646 240.035 113.861 240.637C114.076 241.218 114.076 241.562 113.904 242.078C113.711 242.637 113.711 242.917 113.99 243.411C114.57 244.529 114.613 247.132 114.119 249.54C113.861 250.701 113.367 254.271 113.023 257.475C111.82 268.077 111.927 267.626 110.939 268.271C110.015 268.852 107.63 269.196 103.332 269.325C98.2615 269.475 98.283 269.475 98.283 267.26C98.283 266.034 98.3904 265.454 98.7342 264.787C101.57 259.497 101.356 260.078 101.914 256.271C102.366 253.196 102.666 248.744 102.774 243.476C102.817 241.97 102.795 241.949 102.151 241.734C101.807 241.626 101.356 241.454 101.162 241.368C100.904 241.261 100.69 241.497 100.26 242.486C99.1424 244.96 98.4763 248.701 98.2615 253.755C98.1325 256.572 98.0681 256.938 97.7028 257.045C97.4879 257.131 97.1441 257.131 96.9293 257.067C96.5855 256.938 96.5425 256.744 96.607 255.26C96.6499 254.357 96.607 252.529 96.521 251.239L96.3491 248.873L95.8549 250.164C95.4681 251.131 95.2748 252.314 95.0814 254.895C94.7805 258.701 94.4797 259.626 93.3624 260.486C91.7079 261.733 87.2386 262.787 83.4998 262.83C81.0503 262.852 80.9428 262.83 80.5346 262.336C80.2123 261.948 80.1478 261.626 80.2552 261.045C80.4701 259.712 81.7808 257.282 82.7477 256.379C85.4336 253.906 85.8419 253.389 86.4221 251.777C87.0667 249.949 87.3245 248.228 87.1096 247.261L86.9592 246.594L86.0997 247.841C84.8965 249.54 84.2733 250.185 83.5428 250.508C82.7263 250.83 82.6188 250.701 82.9196 249.669C83.07 249.045 83.4568 248.508 84.1874 247.863C85.2617 246.917 86.8948 244.637 86.7658 244.293C86.7014 244.142 75.7429 246.486 74.7115 246.873C74.4967 246.96 74.2818 247.734 74.0239 249.304C73.2719 253.949 72.4124 256.4 71.0158 257.949C69.4472 259.712 67.0621 260.551 60.0358 261.905C54.2558 263.024 46.7783 263.002 44.9089 261.862C43.2973 260.873 43.5337 259.282 45.5965 257.26C47.4658 255.411 50.474 253.927 59.821 250.207L62.1846 249.282L63.7531 245.089C67.7067 234.508 68.1365 232.766 68.5018 226.186C68.7381 222.1 69.5546 210.788 70.1348 203.498C70.3067 201.24 70.5216 198.681 70.586 197.799C70.6505 196.918 70.9298 193.434 71.2091 190.057C71.51 186.681 71.9827 180.918 72.2835 177.262C72.9711 168.811 73.0785 167.843 74.2388 160.187C75.7429 150.209 76.1082 147.026 76.7958 137.37C77.1396 132.446 77.247 131.65 78.1065 127.521C78.5578 125.392 78.6222 124.747 78.4288 124.209C78.0635 123.199 78.128 122.747 78.8586 121.392C79.9114 119.371 80.599 117.371 80.7924 115.693C80.9213 114.511 81.1577 113.758 81.7164 112.769C82.2535 111.801 82.6403 110.661 83.0056 108.876L83.5428 106.317L82.7477 105.392C81.1362 103.5 80.5775 102.618 80.4486 101.844C80.2123 100.468 81.2436 99.1345 82.9841 98.6184L83.8221 98.3604L83.6717 96.1238C83.4998 93.2637 83.4138 93.0702 82.8552 93.9734C82.6188 94.3605 82.2965 95.0486 82.1461 95.5002C81.8023 96.4464 80.2767 98.3819 79.0734 99.3926C78.6007 99.8012 77.1611 100.769 75.8933 101.586C74.6256 102.382 73.5298 103.07 73.4868 103.091C73.4653 103.134 73.5727 103.371 73.7661 103.651C74.2388 104.317 74.2173 105.263 73.7017 105.543C73.4008 105.694 72.9496 105.629 71.9827 105.285L70.6935 104.812L69.6621 105.285C69.1034 105.521 67.8142 106.081 66.8258 106.511C65.8374 106.962 64.6985 107.543 64.2688 107.823C63.8605 108.102 63.3019 108.339 63.0225 108.339C62.7432 108.339 61.8193 108.618 60.9598 108.962C60.1003 109.306 58.4028 109.887 57.178 110.253L54.9863 110.941V111.736C54.9863 112.167 55.0938 114.123 55.2227 116.08C55.3946 118.704 54.6719 114.568 54.5 115.041C54.2851 115.558 53.0525 113.778 52.7732 113.541C52.15 113.025 53.8475 119.22 53.6112 115.435L53.3533 111.672L52.7732 112.79C51.3335 115.543 50.8178 115.199 50.7964 118.79C50.7749 121.22 51.0972 123.285 50.7964 124.467C50.5385 125.5 50.3881 127.091 50.3451 128.854C50.2807 131.155 50.2162 131.693 49.8939 132.037C48.927 133.112 47.6592 132.919 47.122 131.628C46.8212 130.94 46.8212 130.145 47.0146 125.349C47.1435 122.317 47.3369 119.07 47.4873 118.123C47.6807 116.79 47.6807 116.252 47.4658 115.758C47.2725 115.263 47.165 115.199 47.0576 115.457C46.8857 115.865 46.4774 116.381 45.575 117.263C45.2097 117.629 44.8874 118.123 44.8874 118.36C44.8874 118.898 44.7585 119.07 43.5552 120.037C42.2874 121.048 41.4924 121.048 41.1486 120.016C41.0197 119.65 40.8478 119.285 40.7833 119.199C40.6329 119.07 38.6776 122.08 37.8611 123.715C36.7652 125.865 36.6363 126.51 36.6363 130.704C36.6149 134.962 36.3355 136.446 35.433 137.263C35.0033 137.65 35.0033 137.607 35.0033 134.596C35.0033 132.145 34.8959 131.005 34.4446 128.833C34.0579 126.897 33.9289 125.844 34.0364 125.134C34.2298 123.801 35.2826 121.586 37.0231 118.79C38.5487 116.381 38.5917 116.08 37.5603 115.758C36.5934 115.435 36.4215 114.209 36.9371 111.457C37.2595 109.822 37.4313 109.521 38.1619 109.263C41.342 108.102 42.6098 107.521 42.8676 107.134C43.1469 106.726 43.0395 106.403 41.6858 103.586C38.9354 97.8227 38.1834 94.1024 39.5371 92.6831C40.0957 92.0594 43.5337 107.629 44.8874 108.339C46.2196 109.027 44.2489 105.823 45.2374 107.823C46.4621 110.317 46.6594 104.855 46.509 107.822L46.6493 106.618H47.6807C48.4113 106.618 48.927 106.468 49.4856 106.081C49.9369 105.78 50.7964 105.285 51.398 104.962C52.6442 104.339 52.8806 104.081 53.8046 102.21C54.2773 101.264 54.664 100.812 55.2442 100.489C55.8888 100.145 56.1896 99.7152 57.0061 98.0163C58.1879 95.5647 58.5747 94.511 58.983 92.5755C59.4557 90.339 59.3912 90.0379 58.3168 88.5971C56.469 86.1456 56.3185 84.9413 57.3284 81.0059C58.3813 76.8554 59.2408 75.006 59.9928 75.2856C60.4441 75.4576 61.1102 77.7371 61.8622 81.7801C62.206 83.5865 62.6787 85.8015 62.9366 86.7477C63.5167 88.9627 63.4738 89.6939 62.7217 92.7476C62.3779 94.1669 62.0771 95.3497 62.0771 95.3712C62.0771 95.4357 66.2671 92.9411 67.1481 92.339C68.115 91.6938 68.6307 91.6293 68.91 92.1454C69.1034 92.4895 69.1679 92.468 69.7265 92.1239C70.8439 91.4143 71.3166 90.8551 71.3166 90.2745C71.3166 89.9734 71.4025 89.6294 71.51 89.5218C71.6174 89.3928 71.8108 88.7907 71.9397 88.1455C72.0901 87.4144 72.4124 86.7262 72.8207 86.2531C73.186 85.866 73.4653 85.3929 73.4653 85.1993C73.4653 85.0273 73.7017 84.4252 73.981 83.866C74.9264 82.0166 76.452 77.8232 76.7958 76.2533C76.9677 75.4146 77.5908 73.6942 78.171 72.4469C78.7511 71.1996 79.5462 69.1567 79.9329 67.9094C80.2982 66.6621 80.728 65.4148 80.8998 65.1137C81.0503 64.8127 81.5874 63.1138 82.0816 61.3504C82.5759 59.5655 83.156 57.716 83.3924 57.2214C83.9295 56.0816 85.2832 54.5333 86.2716 53.9096L87.0452 53.4366L85.0684 52.8129C83.6287 52.3398 83.156 52.1032 83.3279 51.9312C83.4998 51.7592 83.9295 51.7592 84.8965 51.9527C85.6485 52.0817 87.303 52.2538 88.6137 52.3183C89.903 52.4043 92.1591 52.5548 93.6202 52.6624C96.0053 52.8559 96.3706 52.8344 97.1227 52.4903C97.8747 52.1463 97.9606 52.0172 97.8962 51.5011C97.8532 51.1785 97.8962 50.856 98.0036 50.7914C98.3904 50.5549 98.1325 50.2968 97.359 50.1678C96.9293 50.0818 95.9838 49.8237 95.2748 49.6087C93.3194 48.942 86.0138 45.4582 86.1427 45.2217C86.465 44.5765 89.2798 45.4152 91.8368 46.899C92.7608 47.4582 93.5558 47.8668 93.5988 47.8238C93.6417 47.7808 93.3409 47.0496 92.9112 46.1679C92.5029 45.2862 91.9228 43.6518 91.6434 42.5336C91.2137 40.7917 90.3112 38.082 90.0964 37.824C90.0749 37.8025 89.817 37.91 89.5377 38.1035C89.022 38.4691 88.0766 38.5766 88.0766 38.2541C88.0766 37.9745 89.1509 37.1573 89.5162 37.1573C89.7526 37.1573 89.7955 37.0498 89.6881 36.7702C89.1079 35.3724 88.9146 34.2756 88.9361 32.3187C88.9575 30.0607 88.6997 28.0392 88.3129 27.308C87.7757 26.2973 87.7972 24.6414 88.3774 22.8995C89.065 20.7705 89.5162 20.0394 90.3972 19.4802C90.7839 19.2437 91.2567 18.8136 91.45 18.534C91.6219 18.2544 91.8583 18.0609 91.9442 18.1254C92.0517 18.1899 92.2021 18.1254 92.288 17.9964C92.374 17.8243 92.3525 17.8028 92.2021 17.8889C92.0517 17.9749 91.9442 17.9533 91.9442 17.8458C91.9442 17.5878 92.9112 16.7061 93.0616 16.8351C93.2335 17.0287 94.3078 16.4695 94.3078 16.19C94.3078 15.8029 95.8549 14.4051 96.6929 14.061C97.1226 13.8889 97.6598 13.7814 97.8962 13.8459C98.1325 13.9104 98.4763 13.8244 98.6697 13.6309C98.8416 13.4373 99.0565 13.2868 99.121 13.2868C99.2069 13.2868 99.7871 12.8567 100.432 12.3191C101.656 11.3299 102.344 11.1148 103.977 11.1578C104.514 11.1793 106.19 11.1363 107.737 11.0718C109.306 11.0073 110.853 11.0503 111.261 11.1578ZM92.5674 17.3082C92.288 17.6523 92.3095 17.6738 92.6318 17.3943C92.9971 17.1147 93.1046 16.9427 92.9327 16.9427C92.8897 16.9427 92.7178 17.1147 92.5674 17.3082ZM90.5261 33.6735C90.7839 33.91 90.9129 33.523 90.741 33.0284L90.5691 32.5337L90.4831 33.0284C90.4401 33.3079 90.4616 33.5875 90.5261 33.6735ZM89.1509 33.394C89.1509 33.8025 89.2369 34.1466 89.3228 34.1466C89.4088 34.1466 89.4517 33.8025 89.4088 33.394C89.3658 32.9854 89.2798 32.6413 89.2369 32.6413C89.1939 32.6413 89.1509 32.9854 89.1509 33.394ZM89.6451 33.5445C89.7096 33.695 89.7526 33.5875 89.7526 33.2864C89.7526 32.9853 89.7096 32.8778 89.6451 33.0069C89.6021 33.1574 89.6021 33.4155 89.6451 33.5445ZM117.471 33.7595C117.664 33.9531 117.729 33.9101 117.729 33.5015C117.729 33.0929 117.664 33.0499 117.471 33.2434C117.278 33.4369 117.278 33.566 117.471 33.7595ZM90.4401 34.7918C90.4401 35.3079 91.2352 37.3939 91.5575 37.6949C91.6864 37.824 91.6864 37.6949 91.536 37.4154C91.3856 37.1573 91.2996 36.8132 91.3211 36.6627C91.3426 36.5337 91.2352 35.953 91.0633 35.3724C90.7839 34.3402 90.4401 34.0176 90.4401 34.7918ZM89.774 35.738C90.0104 36.2756 90.2468 36.7272 90.3112 36.7272C90.3542 36.7272 90.2038 36.2541 89.9459 35.6519C89.7096 35.0713 89.4517 34.6197 89.4088 34.6627C89.3658 34.7273 89.5162 35.2004 89.774 35.738ZM117.492 37.0713C117.278 37.3078 117.127 37.5659 117.192 37.6304C117.256 37.6734 117.321 38.2755 117.321 38.9422C117.364 40.383 116.891 42.1035 116.461 42.1035C116.311 42.1035 115.838 41.7379 115.408 41.3078C114.828 40.6841 114.699 40.6196 114.807 40.9852C114.914 41.2648 114.871 41.4583 114.742 41.4583C114.377 41.4583 114.463 42.555 114.85 42.9851C115.129 43.2862 115.15 43.5873 114.978 44.6625C114.785 45.9313 114.807 45.9743 115.473 46.6195C115.838 46.9636 116.203 47.2646 116.289 47.2646C116.483 47.2646 117.192 45.6087 117.492 44.383C117.643 43.8023 117.901 43.0281 118.094 42.6626C118.287 42.297 118.524 41.5658 118.61 41.0282C118.696 40.4906 118.846 39.6734 118.911 39.2003C119.018 38.6411 118.932 37.781 118.696 36.8347C118.202 34.7488 118.073 34.5337 117.987 35.6519C117.944 36.2326 117.75 36.7917 117.492 37.0713ZM90.7839 38.125C90.9558 38.5336 91.3211 39.8454 91.6219 41.0497C92.2451 43.6518 92.8252 45.2647 93.7062 46.7915C94.3508 47.9528 94.845 48.3829 95.8119 48.6624C96.3061 48.813 96.3061 48.7915 95.6186 47.9958C94.9739 47.2861 94.2004 45.8023 92.9327 42.8991C92.7393 42.426 92.4814 42.1464 92.3525 42.2325C92.2236 42.3185 92.1376 42.211 92.1806 41.9744C92.288 41.2432 90.9773 37.3723 90.6335 37.3723C90.5476 37.3723 90.612 37.7164 90.7839 38.125ZM94.8665 46.1249C95.0814 46.4689 95.3822 46.985 95.5541 47.3076C95.8549 47.9098 96.2417 48.2969 96.2417 47.9743C96.2417 47.7378 94.7591 45.5442 94.6087 45.5442C94.5227 45.5442 94.6516 45.8023 94.8665 46.1249ZM114.721 47.0281C114.721 47.1356 114.871 47.2646 115.021 47.3291C115.236 47.4152 115.301 47.3506 115.215 47.1356C115.086 46.813 114.721 46.727 114.721 47.0281ZM114.935 48.6839C114.935 48.856 115.043 48.942 115.15 48.8775C115.279 48.7915 115.322 48.6409 115.258 48.5334C115.064 48.2324 114.935 48.2968 114.935 48.6839ZM60.8953 97.8012C60.8308 97.9087 60.8738 98.0163 60.9813 98.0163C61.1102 98.0163 61.2176 97.9087 61.2176 97.8012C61.2176 97.6722 61.1746 97.5862 61.1317 97.5862C61.0672 97.5862 60.9598 97.6722 60.8953 97.8012ZM63.2159 252.766C63.2804 252.83 63.4738 252.852 63.6242 252.787C63.7961 252.723 63.7316 252.658 63.4953 252.658C63.2589 252.637 63.13 252.701 63.2159 252.766ZM64.677 256.486C63.1085 256.615 61.7548 256.766 61.6689 256.852C61.6044 256.938 62.0771 256.938 62.7217 256.873C63.3663 256.809 64.9994 256.68 66.3101 256.594C67.6423 256.508 68.7381 256.357 68.7381 256.271C68.7381 256.164 68.4803 256.142 68.1365 256.185C67.8142 256.25 66.2671 256.379 64.677 256.486ZM140.183 266.508C140.742 267.153 141.236 267.69 141.3 267.69C141.343 267.69 140.935 267.11 140.398 266.378C139.839 265.669 139.345 265.131 139.28 265.196C139.216 265.26 139.624 265.841 140.183 266.508Z" fill="#4AA4B0"/>
</g>
<g filter="url(#filter1_d_1013_566)">
<path d="M131.341 11.4712L128.082 17.6627" stroke="black" stroke-width="0.5"/>
<path d="M135.109 5.62663C135.109 5.62663 131.3 6.92739 130.02 8.93502C129.788 9.29876 129.495 9.90397 129.495 9.90397" stroke="black" stroke-width="0.5"/>
<path d="M123.524 25.1291L127.468 20.7103" stroke="black" stroke-width="0.5"/>
<path d="M134.963 5.63277C135.538 8.83484 134.986 10.8049 133.24 13.6588C131.634 16.2835 127.28 19.1168 127.28 19.1168" stroke="black" stroke-width="0.5"/>
<path d="M126.835 8.62842L125.238 14.354" stroke="black" stroke-width="0.5"/>
<path d="M125.296 14.3685C125.296 14.3685 129.034 10.4936 129.511 7.42366C129.884 5.02658 128.556 1.27802 128.556 1.27802C128.556 1.27802 125.147 3.88378 124.7 6.21561C124.495 7.28445 124.779 8.99509 124.779 8.99509" stroke="black" stroke-width="0.5"/>
<path d="M120.345 11.8004C120.228 9.03582 122.394 4.97403 122.394 4.97403C122.394 4.97403 125.27 8.87131 125.485 11.7111C125.705 14.6168 123.327 18.8967 123.327 18.8967C123.327 18.8967 120.47 14.7606 120.345 11.8004Z" stroke="black" stroke-width="0.5"/>
<path d="M123.092 12.3801L123.383 18.9111" stroke="black" stroke-width="0.5"/>
<path d="M126.937 19.639C126.896 19.5735 132.127 16.1401 132.127 16.1401C132.127 16.1401 131.087 19.4844 129.634 21.1993C127.821 23.3395 123.436 25.2178 123.436 25.2178L123.595 23.8778" stroke="black" stroke-width="0.5"/>
<path d="M126.849 16.0843L123.57 23.7611" stroke="black" stroke-width="0.5"/>
<path d="M125.282 14.4194L129.514 9.24495C129.514 9.24495 129.526 13.761 128.565 16.4582C127.415 19.686 123.599 23.8768 123.599 23.8768L123.385 18.9109" stroke="black" stroke-width="0.5"/>
</g>
<g filter="url(#filter2_d_1013_566)">
<path d="M80.2537 11.5891L81.774 18.4188" stroke="black" stroke-width="0.5"/>
<path d="M78.1515 4.96039C78.1515 4.96039 81.4856 7.21494 82.1946 9.48824C82.323 9.90011 82.4464 10.5608 82.4464 10.5608" stroke="black" stroke-width="0.5"/>
<path d="M84.2128 26.8191L81.5662 21.5202" stroke="black" stroke-width="0.5"/>
<path d="M78.2914 5.00459C76.8961 7.94351 76.9115 9.9893 77.8477 13.2014C78.7088 16.1556 82.1674 20.0321 82.1674 20.0321" stroke="black" stroke-width="0.5"/>
<path d="M85.3496 10.0286L85.3887 15.9727" stroke="black" stroke-width="0.5"/>
<path d="M85.327 15.9708C85.327 15.9708 82.7368 11.251 83.0813 8.16321C83.3503 5.75223 85.6152 2.4834 85.6152 2.4834C85.6152 2.4834 88.2214 5.89244 88.0409 8.25987C87.9582 9.34502 87.2359 10.9214 87.2359 10.9214" stroke="black" stroke-width="0.5"/>
<path d="M90.7792 14.7919C91.6177 12.1549 90.5925 7.66694 90.5925 7.66694C90.5925 7.66694 86.7954 10.6732 85.8429 13.3571C84.8682 16.1033 86.0394 20.8571 86.0394 20.8571C86.0394 20.8571 89.8815 17.6155 90.7792 14.7919Z" stroke="black" stroke-width="0.5"/>
<path d="M87.9766 14.6309L85.9819 20.8566" stroke="black" stroke-width="0.5"/>
<path d="M82.359 20.6259C82.4159 20.5735 78.2691 15.8879 78.2691 15.8879C78.2691 15.8879 78.3953 19.388 79.3473 21.4239C80.5354 23.965 84.2737 26.9279 84.2737 26.9279L84.472 25.5931" stroke="black" stroke-width="0.5"/>
<path d="M83.377 17.2189L84.5267 25.487" stroke="black" stroke-width="0.5"/>
<path d="M85.3268 16.0238L82.6009 9.9202C82.6009 9.9202 81.4036 14.2747 81.6234 17.1296C81.8864 20.546 84.4695 25.5914 84.4695 25.5914L85.9783 20.8554" stroke="black" stroke-width="0.5"/>
</g>
<rect y="68" width="58" height="73" fill="#1F545B"/>
<path d="M33 68.5398L66.5 75.0398L68 91.5398L52 103.54L40.5 89.0398L33 68.5398Z" fill="#1F545B"/>
<g filter="url(#filter3_d_1013_566)">
<path d="M66.8226 110.099L60.54 103.441L56.4351 72.4838C56.2365 70.9863 54.9746 69.9178 53.6172 70.0978L9.97864 75.8842C8.6212 76.0642 7.68193 77.4246 7.88049 78.9221L11.9854 109.879L7.65436 117.944C7.54141 118.154 7.49749 118.402 7.53018 118.649L7.96219 121.907C8.12073 123.102 9.12695 123.954 10.2103 123.81L65.8838 116.428C66.9671 116.284 67.7167 115.2 67.5581 114.004L67.1261 110.746C67.0934 110.5 66.987 110.272 66.8226 110.099ZM11.4964 79.5768L53.1143 74.0583L56.564 100.075L14.9461 105.593L11.4964 79.5768ZM43.307 116.803L32.1046 118.289L31.6708 115.017L42.8732 113.532L43.307 116.803Z" fill="#1691A1"/>
</g>
<path d="M11.5 79.5398L53.5 74L56.5 100.04L15 106.04L11.5 79.5398Z" fill="white"/>
<path d="M18.8436 93.4378L18.0798 87.8901L18.9278 87.7734L21.9105 91.4893L21.4667 91.5504L23.2946 87.1721L24.1426 87.0554L24.9143 92.602L23.9395 92.7362L23.3784 88.7192L23.5844 88.6908L22.0215 92.3542L21.5618 92.4175L19.0353 89.3171L19.2731 89.2844L19.8263 93.3025L18.8436 93.4378ZM26.3177 92.4088L25.735 88.1767L26.7257 88.0403L27.3084 92.2724L26.3177 92.4088ZM26.1383 87.4105C25.9534 87.436 25.7922 87.3989 25.6546 87.2994C25.5224 87.1992 25.445 87.0672 25.4224 86.9034C25.3992 86.7343 25.438 86.5863 25.539 86.4594C25.6445 86.3264 25.7897 86.2472 25.9746 86.2217C26.1596 86.1963 26.3178 86.231 26.4493 86.326C26.5854 86.4149 26.6647 86.5413 26.6872 86.7051C26.7112 86.8794 26.6735 87.0353 26.574 87.1729C26.4737 87.3051 26.3285 87.3843 26.1383 87.4105ZM30.4207 87.4831C30.7589 87.4365 31.0691 87.4611 31.3515 87.5568C31.6391 87.6518 31.8785 87.8261 32.0695 88.0798C32.2598 88.3282 32.3845 88.6663 32.4434 89.0943L32.7773 91.5194L31.7866 91.6558L31.4702 89.3575C31.4185 88.9824 31.2902 88.7147 31.0851 88.5545C30.8852 88.3936 30.6268 88.3349 30.3098 88.3786C30.0773 88.4106 29.8778 88.4865 29.7113 88.6064C29.5447 88.7262 29.4244 88.8881 29.3502 89.0922C29.2805 89.2902 29.2654 89.5318 29.3046 89.8171L29.5992 91.957L28.6086 92.0933L28.0259 87.8613L28.969 87.7314L29.1261 88.8727L28.9117 88.5469C29.0225 88.257 29.2082 88.0215 29.4685 87.8403C29.7335 87.6531 30.0509 87.534 30.4207 87.4831ZM36.0386 91.1269C35.5684 91.1917 35.1435 91.1559 34.7641 91.0198C34.3892 90.8776 34.0814 90.6561 33.8408 90.3555C33.6055 90.0541 33.4591 89.6947 33.4017 89.2773C33.3435 88.8546 33.3847 88.4694 33.5252 88.1216C33.6703 87.7679 33.8939 87.476 34.196 87.246C34.5034 87.0152 34.8685 86.8707 35.2912 86.8125C35.7033 86.7558 36.0828 86.7951 36.4299 86.9303C36.7769 87.0656 37.0654 87.2843 37.2954 87.5864C37.5255 87.8885 37.671 88.2615 37.7321 88.7053C37.7379 88.7476 37.7418 88.7955 37.7438 88.849C37.7511 88.9019 37.7554 88.9524 37.7566 89.0007L34.2299 89.4863L34.1393 88.8285L37.143 88.4149L36.783 88.6745C36.7549 88.4307 36.6752 88.2236 36.5441 88.0532C36.413 87.8829 36.2477 87.7576 36.0482 87.6774C35.854 87.5964 35.638 87.5723 35.4003 87.6051C35.1572 87.6385 34.9505 87.7208 34.7801 87.852C34.6151 87.9824 34.4928 88.1499 34.4133 88.3547C34.3384 88.5534 34.3184 88.7796 34.3533 89.0332L34.3751 89.1917C34.41 89.4453 34.499 89.6619 34.6422 89.8414C34.7853 90.0208 34.9699 90.1489 35.1958 90.2255C35.4216 90.302 35.672 90.3214 35.9467 90.2836C36.1845 90.2508 36.3933 90.1844 36.5734 90.0842C36.7534 89.9841 36.9065 89.8446 37.0326 89.6657L37.6476 90.2028C37.4879 90.4509 37.2712 90.6557 36.9973 90.8173C36.728 90.9728 36.4084 91.076 36.0386 91.1269ZM38.9718 90.6666L38.3891 86.4345L39.3322 86.3046L39.4926 87.4696L39.3347 87.1441C39.4223 86.8414 39.5906 86.5975 39.8396 86.4124C40.094 86.2267 40.4246 86.1058 40.8315 86.0498L40.9613 86.9929C40.9176 86.9881 40.8772 86.9883 40.8402 86.9934C40.8025 86.9932 40.7652 86.9956 40.7282 87.0007C40.3531 87.0524 40.0698 87.2044 39.8785 87.4569C39.6864 87.7041 39.6202 88.0443 39.6798 88.4775L39.9624 90.5302L38.9718 90.6666ZM43.5412 90.0374L41.1437 86.0552L42.174 85.9134L44.2492 89.4312L43.7419 89.501L44.8448 85.5457L45.7958 85.4147L44.5636 89.8967L43.5412 90.0374ZM49.4735 89.2207L49.3556 88.3648L49.275 88.1901L49.0688 86.6923C49.0288 86.4017 48.9107 86.1891 48.7145 86.0546C48.5176 85.9148 48.2422 85.8693 47.8882 85.918C47.6504 85.9508 47.4204 86.0201 47.1981 86.1261C46.9811 86.2314 46.8024 86.3609 46.6621 86.5148L46.1745 85.8471C46.3777 85.6415 46.6293 85.4749 46.9294 85.3475C47.234 85.214 47.5554 85.124 47.8936 85.0775C48.5065 84.9931 48.9997 85.0759 49.3733 85.326C49.7515 85.57 49.9827 85.9985 50.0671 86.6113L50.4086 89.0919L49.4735 89.2207ZM48.1496 89.4595C47.8326 89.5031 47.548 89.4885 47.2957 89.4155C47.0426 89.3373 46.837 89.2122 46.6787 89.0402C46.525 88.8622 46.4314 88.6516 46.3979 88.4086C46.3652 88.1708 46.3912 87.9492 46.476 87.7437C46.566 87.5375 46.7329 87.3611 46.9765 87.2145C47.2201 87.0679 47.5559 86.9652 47.9839 86.9062L49.2123 86.7371L49.3028 87.3949L48.1457 87.5542C47.8076 87.6008 47.5881 87.6875 47.4871 87.8145C47.3854 87.9361 47.3455 88.0762 47.3673 88.2347C47.392 88.4144 47.483 88.5472 47.6402 88.6332C47.7974 88.7193 48.0028 88.7448 48.2564 88.7099C48.4995 88.6765 48.7084 88.5912 48.8834 88.454C49.0636 88.3161 49.181 88.1331 49.2358 87.9048L49.484 88.4763C49.4231 88.7377 49.2779 88.9542 49.0485 89.1258C48.8244 89.2966 48.5248 89.4078 48.1496 89.4595Z" fill="#295C62"/>
<defs>
<filter id="filter0_d_1013_566" x="30" y="11.0415" width="165" height="273" filterUnits="userSpaceOnUse" color-interpolation-filters="sRGB">
<feFlood flood-opacity="0" result="BackgroundImageFix"/>
<feColorMatrix in="SourceAlpha" type="matrix" values="0 0 0 0 0 0 0 0 0 0 0 0 0 0 0 0 0 0 127 0" result="hardAlpha"/>
<feOffset dy="4"/>
<feGaussianBlur stdDeviation="2"/>
<feComposite in2="hardAlpha" operator="out"/>
<feColorMatrix type="matrix" values="0 0 0 0 0 0 0 0 0 0 0 0 0 0 0 0 0 0 0.25 0"/>
<feBlend mode="normal" in2="BackgroundImageFix" result="effect1_dropShadow_1013_566"/>
<feBlend mode="normal" in="SourceGraphic" in2="effect1_dropShadow_1013_566" result="shape"/>
</filter>
<filter id="filter1_d_1013_566" x="116.087" y="0.873047" width="23.3477" height="32.7393" filterUnits="userSpaceOnUse" color-interpolation-filters="sRGB">
<feFlood flood-opacity="0" result="BackgroundImageFix"/>
<feColorMatrix in="SourceAlpha" type="matrix" values="0 0 0 0 0 0 0 0 0 0 0 0 0 0 0 0 0 0 127 0" result="hardAlpha"/>
<feOffset dy="4"/>
<feGaussianBlur stdDeviation="2"/>
<feComposite in2="hardAlpha" operator="out"/>
<feColorMatrix type="matrix" values="0 0 0 0 0 0 0 0 0 0 0 0 0 0 0 0 0 0 0.25 0"/>
<feBlend mode="normal" in2="BackgroundImageFix" result="effect1_dropShadow_1013_566"/>
<feBlend mode="normal" in="SourceGraphic" in2="effect1_dropShadow_1013_566" result="shape"/>
</filter>
<filter id="filter2_d_1013_566" x="72.9375" y="2.05908" width="22.4219" height="33.3281" filterUnits="userSpaceOnUse" color-interpolation-filters="sRGB">
<feFlood flood-opacity="0" result="BackgroundImageFix"/>
<feColorMatrix in="SourceAlpha" type="matrix" values="0 0 0 0 0 0 0 0 0 0 0 0 0 0 0 0 0 0 127 0" result="hardAlpha"/>
<feOffset dy="4"/>
<feGaussianBlur stdDeviation="2"/>
<feComposite in2="hardAlpha" operator="out"/>
<feColorMatrix type="matrix" values="0 0 0 0 0 0 0 0 0 0 0 0 0 0 0 0 0 0 0.25 0"/>
<feBlend mode="normal" in2="BackgroundImageFix" result="effect1_dropShadow_1013_566"/>
<feBlend mode="normal" in="SourceGraphic" in2="effect1_dropShadow_1013_566" result="shape"/>
</filter>
<filter id="filter3_d_1013_566" x="3.51953" y="70.0781" width="68.0596" height="61.7478" filterUnits="userSpaceOnUse" color-interpolation-filters="sRGB">
<feFlood flood-opacity="0" result="BackgroundImageFix"/>
<feColorMatrix in="SourceAlpha" type="matrix" values="0 0 0 0 0 0 0 0 0 0 0 0 0 0 0 0 0 0 127 0" result="hardAlpha"/>
<feOffset dy="4"/>
<feGaussianBlur stdDeviation="2"/>
<feComposite in2="hardAlpha" operator="out"/>
<feColorMatrix type="matrix" values="0 0 0 0 0 0 0 0 0 0 0 0 0 0 0 0 0 0 0.25 0"/>
<feBlend mode="normal" in2="BackgroundImageFix" result="effect1_dropShadow_1013_566"/>
<feBlend mode="normal" in="SourceGraphic" in2="effect1_dropShadow_1013_566" result="shape"/>
</filter>
</defs>
</svg>
