<svg width="63" height="55" viewBox="0 0 63 55" fill="none" xmlns="http://www.w3.org/2000/svg">
<path d="M38.6676 17.4839V3.79467L60.8251 25.5501L39.5977 50.8324L38.6646 35.982L38.5878 34.7596L37.3748 34.5904L37.1676 36.076C37.3748 34.5904 37.3746 34.5904 37.3744 34.5903L37.3737 34.5903L37.3718 34.59L37.3654 34.5891L37.3425 34.586L37.2574 34.5746C37.1836 34.5648 37.0762 34.5509 36.9383 34.5338C36.6626 34.4996 36.2648 34.4526 35.7701 34.4005C34.7817 34.2964 33.4024 34.1715 31.8363 34.0881C28.743 33.9235 24.774 33.9115 21.6534 34.6125C16.7127 35.7222 11.2381 39.216 7.11663 42.2898C6.15804 43.0048 5.26165 43.7055 4.44939 44.3608C5.37505 42.1238 6.59161 39.4047 8.06314 36.5914C9.87438 33.1286 12.0523 29.561 14.5243 26.5807C17.0097 23.5844 19.7036 21.29 22.5182 20.2128C25.081 19.232 28.6578 18.9003 31.719 18.8386C33.225 18.8082 34.5613 18.8435 35.5204 18.8865C35.9994 18.9079 36.3829 18.9312 36.6447 18.949C36.7756 18.9579 36.876 18.9654 36.9426 18.9706L37.0168 18.9765L37.0341 18.9779L37.0377 18.9782L37.0378 18.9782L37.0381 18.9783L37.0382 18.9783L38.6676 19.1198V17.4839Z" stroke="#1F545B" stroke-width="3"/>
</svg>
