<svg width="1128" height="1768" viewBox="0 0 1128 1768" fill="none" xmlns="http://www.w3.org/2000/svg">
<g clip-path="url(#clip0_722_841)">
<rect width="1128" height="1768" fill="#1F545B"/>
<line x1="37" y1="79.5" x2="84" y2="79.5" stroke="#1F545B" stroke-width="7"/>
<line x1="37" y1="99.6191" x2="84" y2="99.6191" stroke="#1F545B" stroke-width="7"/>
<line x1="37" y1="119.744" x2="84" y2="119.744" stroke="#1F545B" stroke-width="7"/>
<path d="M149.69 145.994L166.684 176.41" stroke="white" stroke-width="1.5"/>
<path d="M130.853 117.372C130.853 117.372 147.742 121.999 154.222 131.708C155.396 133.467 156.944 136.458 156.944 136.458" stroke="white" stroke-width="1.5"/>
<path d="M189.885 212.661L170.746 192.069" stroke="white" stroke-width="1.5"/>
<path d="M132.268 118.531C131.262 135.822 133.584 144.991 142.474 158.843C150.651 171.583 170.832 183.527 170.832 183.527" stroke="white" stroke-width="1.5"/>
<path d="M167.881 127.892L177.46 156.997" stroke="white" stroke-width="1.5"/>
<path d="M177.22 157.115C177.22 157.115 159.227 139.25 155.732 123.383C153.003 110.994 157.014 90.3022 157.014 90.3022C157.014 90.3022 172.995 101.698 176.014 113.692C177.398 119.189 176.965 128.41 176.965 128.41" stroke="white" stroke-width="1.5"/>
<path d="M197.473 140.154C196.697 125.488 185.424 105.553 185.424 105.553C185.424 105.553 174.777 128.097 175.165 143.227C175.561 158.709 187.848 179.649 187.848 179.649C187.848 179.649 198.305 155.857 197.473 140.154Z" stroke="white" stroke-width="1.5"/>
<path d="M185.843 145.104L187.614 179.76" stroke="white" stroke-width="1.5"/>
<path d="M172.55 186.05C172.698 185.676 148.442 171.17 148.442 171.17C148.442 171.17 154.502 188.097 161.592 196.141C170.441 206.182 190.309 213.067 190.309 213.067L188.998 206.107" stroke="white" stroke-width="1.5"/>
<path d="M171.28 167.235L189.05 205.475" stroke="white" stroke-width="1.5"/>
<path d="M177.307 157.373L156.57 132.992C156.57 132.992 158.612 156.827 164.029 170.393C170.51 186.629 188.99 206.106 188.99 206.106L187.608 179.76" stroke="white" stroke-width="1.5"/>
<path d="M147.69 563.002L164.684 593.419" stroke="white" stroke-width="1.5"/>
<path d="M128.853 534.381C128.853 534.381 145.743 539.008 152.223 548.716C153.397 550.475 154.945 553.467 154.945 553.467" stroke="white" stroke-width="1.5"/>
<path d="M187.885 629.67L168.746 609.078" stroke="white" stroke-width="1.5"/>
<path d="M130.268 535.54C129.262 552.83 131.584 562 140.474 575.852C148.651 588.592 168.832 600.536 168.832 600.536" stroke="white" stroke-width="1.5"/>
<path d="M165.881 544.9L175.46 574.005" stroke="white" stroke-width="1.5"/>
<path d="M175.22 574.124C175.22 574.124 157.227 556.259 153.732 540.392C151.003 528.003 155.014 507.311 155.014 507.311C155.014 507.311 170.995 518.707 174.014 530.701C175.398 536.198 174.965 545.418 174.965 545.418" stroke="white" stroke-width="1.5"/>
<path d="M195.473 557.162C194.697 542.496 183.424 522.562 183.424 522.562C183.424 522.562 172.777 545.106 173.165 560.236C173.561 575.718 185.848 596.658 185.848 596.658C185.848 596.658 196.305 572.866 195.473 557.162Z" stroke="white" stroke-width="1.5"/>
<path d="M183.843 562.112L185.614 596.769" stroke="white" stroke-width="1.5"/>
<path d="M170.55 603.059C170.698 602.685 146.442 588.179 146.442 588.179C146.442 588.179 152.502 605.105 159.592 613.15C168.441 623.191 188.309 630.076 188.309 630.076L186.998 623.116" stroke="white" stroke-width="1.5"/>
<path d="M169.28 584.244L187.05 622.483" stroke="white" stroke-width="1.5"/>
<path d="M175.307 574.381L154.57 550.001C154.57 550.001 156.612 573.835 162.029 587.402C168.51 603.638 186.99 623.115 186.99 623.115L185.608 596.769" stroke="white" stroke-width="1.5"/>
<path d="M152.69 996.41L169.684 1026.83" stroke="white" stroke-width="1.5"/>
<path d="M133.853 967.788C133.853 967.788 150.742 972.415 157.222 982.124C158.396 983.883 159.944 986.874 159.944 986.874" stroke="white" stroke-width="1.5"/>
<path d="M192.885 1063.08L173.746 1042.48" stroke="white" stroke-width="1.5"/>
<path d="M135.268 968.947C134.263 986.238 136.584 995.407 145.475 1009.26C153.651 1022 173.832 1033.94 173.832 1033.94" stroke="white" stroke-width="1.5"/>
<path d="M170.881 978.308L180.46 1007.41" stroke="white" stroke-width="1.5"/>
<path d="M180.22 1007.53C180.22 1007.53 162.227 989.666 158.732 973.799C156.003 961.41 160.014 940.718 160.014 940.718C160.014 940.718 175.995 952.114 179.014 964.108C180.398 969.605 179.965 978.826 179.965 978.826" stroke="white" stroke-width="1.5"/>
<path d="M200.473 990.57C199.697 975.904 188.424 955.969 188.424 955.969C188.424 955.969 177.777 978.513 178.165 993.643C178.561 1009.13 190.848 1030.06 190.848 1030.06C190.848 1030.06 201.305 1006.27 200.473 990.57Z" stroke="white" stroke-width="1.5"/>
<path d="M188.843 995.52L190.614 1030.18" stroke="white" stroke-width="1.5"/>
<path d="M175.55 1036.47C175.698 1036.09 151.442 1021.59 151.442 1021.59C151.442 1021.59 157.502 1038.51 164.592 1046.56C173.441 1056.6 193.309 1063.48 193.309 1063.48L191.998 1056.52" stroke="white" stroke-width="1.5"/>
<path d="M174.28 1017.65L192.05 1055.89" stroke="white" stroke-width="1.5"/>
<path d="M180.307 1007.79L159.57 983.408C159.57 983.408 161.612 1007.24 167.029 1020.81C173.51 1037.04 191.99 1056.52 191.99 1056.52L190.608 1030.18" stroke="white" stroke-width="1.5"/>
<path d="M148.69 1416.93L165.684 1447.35" stroke="white" stroke-width="1.5"/>
<path d="M129.853 1388.31C129.853 1388.31 146.742 1392.94 153.222 1402.65C154.396 1404.41 155.944 1407.4 155.944 1407.4" stroke="white" stroke-width="1.5"/>
<path d="M188.885 1483.6L169.746 1463.01" stroke="white" stroke-width="1.5"/>
<path d="M131.268 1389.47C130.262 1406.76 132.584 1415.93 141.474 1429.78C149.651 1442.52 169.832 1454.47 169.832 1454.47" stroke="white" stroke-width="1.5"/>
<path d="M166.881 1398.83L176.46 1427.94" stroke="white" stroke-width="1.5"/>
<path d="M176.22 1428.06C176.22 1428.06 158.227 1410.19 154.732 1394.32C152.003 1381.94 156.014 1361.24 156.014 1361.24C156.014 1361.24 171.995 1372.64 175.014 1384.63C176.398 1390.13 175.965 1399.35 175.965 1399.35" stroke="white" stroke-width="1.5"/>
<path d="M196.473 1411.09C195.697 1396.43 184.424 1376.49 184.424 1376.49C184.424 1376.49 173.777 1399.04 174.165 1414.17C174.561 1429.65 186.848 1450.59 186.848 1450.59C186.848 1450.59 197.305 1426.8 196.473 1411.09Z" stroke="white" stroke-width="1.5"/>
<path d="M184.843 1416.04L186.614 1450.7" stroke="white" stroke-width="1.5"/>
<path d="M171.55 1456.99C171.698 1456.62 147.442 1442.11 147.442 1442.11C147.442 1442.11 153.502 1459.04 160.592 1467.08C169.441 1477.12 189.309 1484.01 189.309 1484.01L187.998 1477.05" stroke="white" stroke-width="1.5"/>
<path d="M170.28 1438.18L188.05 1476.42" stroke="white" stroke-width="1.5"/>
<path d="M176.307 1428.31L155.57 1403.93C155.57 1403.93 157.612 1427.77 163.029 1441.33C169.51 1457.57 187.99 1477.05 187.99 1477.05L186.608 1450.7" stroke="white" stroke-width="1.5"/>
<path d="M208.183 341.613L191.188 372.03" stroke="white" stroke-width="1.5"/>
<path d="M227.019 312.991C227.019 312.991 210.13 317.618 203.65 327.327C202.476 329.086 200.928 332.077 200.928 332.077" stroke="white" stroke-width="1.5"/>
<path d="M167.987 408.28L187.126 387.688" stroke="white" stroke-width="1.5"/>
<path d="M225.604 314.151C226.609 331.441 224.288 340.61 215.397 354.462C207.221 367.202 187.04 379.146 187.04 379.146" stroke="white" stroke-width="1.5"/>
<path d="M189.991 323.511L180.412 352.616" stroke="white" stroke-width="1.5"/>
<path d="M180.652 352.734C180.652 352.734 198.645 334.869 202.14 319.003C204.869 306.614 200.858 285.921 200.858 285.921C200.858 285.921 184.877 297.317 181.858 309.311C180.474 314.808 180.907 324.029 180.907 324.029" stroke="white" stroke-width="1.5"/>
<path d="M160.399 335.773C161.175 321.107 172.448 301.172 172.448 301.172C172.448 301.172 183.095 323.716 182.707 338.847C182.311 354.328 170.024 375.268 170.024 375.268C170.024 375.268 159.567 351.476 160.399 335.773Z" stroke="white" stroke-width="1.5"/>
<path d="M172.029 340.723L170.258 375.379" stroke="white" stroke-width="1.5"/>
<path d="M185.322 381.669C185.174 381.295 209.43 366.789 209.43 366.789C209.43 366.789 203.371 383.716 196.28 391.761C187.431 401.801 167.563 408.686 167.563 408.686L168.874 401.726" stroke="white" stroke-width="1.5"/>
<path d="M186.592 362.855L168.822 401.094" stroke="white" stroke-width="1.5"/>
<path d="M180.565 352.992L201.302 328.611C201.302 328.611 199.26 352.446 193.844 366.012C187.362 382.248 168.882 401.725 168.882 401.725L170.264 375.379" stroke="white" stroke-width="1.5"/>
<path d="M201.183 758.621L184.188 789.038" stroke="white" stroke-width="1.5"/>
<path d="M220.019 730C220.019 730 203.13 734.627 196.65 744.336C195.476 746.094 193.928 749.086 193.928 749.086" stroke="white" stroke-width="1.5"/>
<path d="M160.987 825.289L180.126 804.697" stroke="white" stroke-width="1.5"/>
<path d="M218.604 731.159C219.609 748.449 217.288 757.619 208.397 771.471C200.221 784.211 180.04 796.155 180.04 796.155" stroke="white" stroke-width="1.5"/>
<path d="M182.991 740.52L173.412 769.624" stroke="white" stroke-width="1.5"/>
<path d="M173.652 769.743C173.652 769.743 191.645 751.878 195.14 736.011C197.869 723.622 193.858 702.93 193.858 702.93C193.858 702.93 177.877 714.326 174.858 726.32C173.474 731.817 173.907 741.038 173.907 741.038" stroke="white" stroke-width="1.5"/>
<path d="M153.399 752.781C154.175 738.116 165.448 718.181 165.448 718.181C165.448 718.181 176.095 740.725 175.707 755.855C175.311 771.337 163.024 792.277 163.024 792.277C163.024 792.277 152.567 768.485 153.399 752.781Z" stroke="white" stroke-width="1.5"/>
<path d="M165.029 757.731L163.258 792.388" stroke="white" stroke-width="1.5"/>
<path d="M178.322 798.678C178.174 798.304 202.43 783.798 202.43 783.798C202.43 783.798 196.371 800.724 189.28 808.769C180.431 818.81 160.563 825.695 160.563 825.695L161.874 818.735" stroke="white" stroke-width="1.5"/>
<path d="M179.592 779.863L161.822 818.103" stroke="white" stroke-width="1.5"/>
<path d="M173.565 770.001L194.302 745.62C194.302 745.62 192.26 769.455 186.844 783.021C180.362 799.257 161.882 818.734 161.882 818.734L163.264 792.388" stroke="white" stroke-width="1.5"/>
<path d="M206.183 1217.8L189.188 1248.22" stroke="white" stroke-width="1.5"/>
<path d="M225.019 1189.18C225.019 1189.18 208.13 1193.81 201.65 1203.52C200.476 1205.27 198.928 1208.27 198.928 1208.27" stroke="white" stroke-width="1.5"/>
<path d="M165.987 1284.47L185.126 1263.88" stroke="white" stroke-width="1.5"/>
<path d="M223.604 1190.34C224.609 1207.63 222.288 1216.8 213.397 1230.65C205.221 1243.39 185.04 1255.33 185.04 1255.33" stroke="white" stroke-width="1.5"/>
<path d="M187.991 1199.7L178.412 1228.8" stroke="white" stroke-width="1.5"/>
<path d="M178.652 1228.92C178.652 1228.92 196.645 1211.06 200.14 1195.19C202.869 1182.8 198.858 1162.11 198.858 1162.11C198.858 1162.11 182.877 1173.51 179.858 1185.5C178.474 1191 178.907 1200.22 178.907 1200.22" stroke="white" stroke-width="1.5"/>
<path d="M158.399 1211.96C159.175 1197.3 170.448 1177.36 170.448 1177.36C170.448 1177.36 181.095 1199.9 180.707 1215.04C180.311 1230.52 168.024 1251.46 168.024 1251.46C168.024 1251.46 157.567 1227.66 158.399 1211.96Z" stroke="white" stroke-width="1.5"/>
<path d="M170.029 1216.91L168.258 1251.57" stroke="white" stroke-width="1.5"/>
<path d="M183.322 1257.86C183.174 1257.48 207.43 1242.98 207.43 1242.98C207.43 1242.98 201.371 1259.9 194.28 1267.95C185.431 1277.99 165.563 1284.87 165.563 1284.87L166.874 1277.91" stroke="white" stroke-width="1.5"/>
<path d="M184.592 1239.04L166.822 1277.28" stroke="white" stroke-width="1.5"/>
<path d="M178.565 1229.18L199.302 1204.8C199.302 1204.8 197.26 1228.63 191.844 1242.2C185.362 1258.44 166.882 1277.91 166.882 1277.91L168.264 1251.57" stroke="white" stroke-width="1.5"/>
<path d="M206.183 1591.47L189.188 1621.89" stroke="white" stroke-width="1.5"/>
<path d="M225.019 1562.85C225.019 1562.85 208.13 1567.47 201.65 1577.18C200.476 1578.94 198.928 1581.93 198.928 1581.93" stroke="white" stroke-width="1.5"/>
<path d="M165.987 1658.14L185.126 1637.54" stroke="white" stroke-width="1.5"/>
<path d="M223.604 1564.01C224.609 1581.3 222.288 1590.47 213.397 1604.32C205.221 1617.06 185.04 1629 185.04 1629" stroke="white" stroke-width="1.5"/>
<path d="M187.991 1573.37L178.412 1602.47" stroke="white" stroke-width="1.5"/>
<path d="M178.652 1602.59C178.652 1602.59 196.645 1584.72 200.14 1568.86C202.869 1556.47 198.858 1535.78 198.858 1535.78C198.858 1535.78 182.877 1547.17 179.858 1559.17C178.474 1564.66 178.907 1573.88 178.907 1573.88" stroke="white" stroke-width="1.5"/>
<path d="M158.399 1585.63C159.175 1570.96 170.448 1551.03 170.448 1551.03C170.448 1551.03 181.095 1573.57 180.707 1588.7C180.311 1604.18 168.024 1625.12 168.024 1625.12C168.024 1625.12 157.567 1601.33 158.399 1585.63Z" stroke="white" stroke-width="1.5"/>
<path d="M170.029 1590.58L168.258 1625.23" stroke="white" stroke-width="1.5"/>
<path d="M183.322 1631.52C183.174 1631.15 207.43 1616.64 207.43 1616.64C207.43 1616.64 201.371 1633.57 194.28 1641.62C185.431 1651.66 165.563 1658.54 165.563 1658.54L166.874 1651.58" stroke="white" stroke-width="1.5"/>
<path d="M184.592 1612.71L166.822 1650.95" stroke="white" stroke-width="1.5"/>
<path d="M178.565 1602.85L199.302 1578.47C199.302 1578.47 197.26 1602.3 191.844 1615.87C185.362 1632.1 166.882 1651.58 166.882 1651.58L168.264 1625.23" stroke="white" stroke-width="1.5"/>
<path d="M152.02 -57C152.02 -57 205.927 60.6526 205.927 142.48C205.927 224.306 151.153 260.139 152.02 341.959C152.855 420.696 202.566 454.485 205.927 533.127C209.894 625.938 152.732 669.364 152.02 762.291C151.285 858.348 208.292 903.747 205.927 999.766C203.793 1086.43 151.964 1125.61 152.02 1212.31C152.077 1298.78 208.097 1337.82 205.927 1424.25C203.952 1502.96 141.728 1537.64 152.02 1615.42C161.392 1686.25 237.872 1768 237.872 1768" stroke="white" stroke-width="3"/>
<path d="M987.183 135.994L970.188 166.41" stroke="white" stroke-width="1.5"/>
<path d="M1006.02 107.372C1006.02 107.372 989.13 111.999 982.65 121.708C981.476 123.467 979.928 126.458 979.928 126.458" stroke="white" stroke-width="1.5"/>
<path d="M946.987 202.661L966.126 182.069" stroke="white" stroke-width="1.5"/>
<path d="M1004.6 108.531C1005.61 125.822 1003.29 134.991 994.398 148.843C986.221 161.583 966.041 173.527 966.041 173.527" stroke="white" stroke-width="1.5"/>
<path d="M968.991 117.892L959.412 146.997" stroke="white" stroke-width="1.5"/>
<path d="M959.652 147.115C959.652 147.115 977.645 129.25 981.14 113.383C983.869 100.994 979.858 80.3022 979.858 80.3022C979.858 80.3022 963.877 91.698 960.858 103.692C959.474 109.189 959.907 118.41 959.907 118.41" stroke="white" stroke-width="1.5"/>
<path d="M939.399 130.154C940.175 115.488 951.448 95.5532 951.448 95.5532C951.448 95.5532 962.095 118.097 961.707 133.227C961.311 148.709 949.024 169.649 949.024 169.649C949.024 169.649 938.567 145.857 939.399 130.154Z" stroke="white" stroke-width="1.5"/>
<path d="M951.029 135.104L949.258 169.76" stroke="white" stroke-width="1.5"/>
<path d="M964.322 176.05C964.174 175.676 988.43 161.17 988.43 161.17C988.43 161.17 982.371 178.097 975.28 186.141C966.431 196.182 946.563 203.067 946.563 203.067L947.874 196.107" stroke="white" stroke-width="1.5"/>
<path d="M965.592 157.235L947.822 195.475" stroke="white" stroke-width="1.5"/>
<path d="M959.565 147.373L980.302 122.992C980.302 122.992 978.26 146.827 972.844 160.393C966.362 176.629 947.882 196.106 947.882 196.106L949.264 169.76" stroke="white" stroke-width="1.5"/>
<path d="M989.183 553.002L972.188 583.419" stroke="white" stroke-width="1.5"/>
<path d="M1008.02 524.381C1008.02 524.381 991.13 529.008 984.649 538.716C983.475 540.475 981.927 543.467 981.927 543.467" stroke="white" stroke-width="1.5"/>
<path d="M948.987 619.67L968.126 599.078" stroke="white" stroke-width="1.5"/>
<path d="M1006.6 525.54C1007.61 542.83 1005.29 552 996.398 565.852C988.221 578.592 968.041 590.536 968.041 590.536" stroke="white" stroke-width="1.5"/>
<path d="M970.991 534.9L961.412 564.005" stroke="white" stroke-width="1.5"/>
<path d="M961.652 564.124C961.652 564.124 979.645 546.259 983.14 530.392C985.869 518.003 981.858 497.311 981.858 497.311C981.858 497.311 965.877 508.707 962.858 520.701C961.474 526.198 961.907 535.418 961.907 535.418" stroke="white" stroke-width="1.5"/>
<path d="M941.399 547.162C942.175 532.496 953.448 512.562 953.448 512.562C953.448 512.562 964.095 535.106 963.707 550.236C963.311 565.718 951.024 586.658 951.024 586.658C951.024 586.658 940.567 562.866 941.399 547.162Z" stroke="white" stroke-width="1.5"/>
<path d="M953.029 552.112L951.258 586.769" stroke="white" stroke-width="1.5"/>
<path d="M966.322 593.059C966.174 592.685 990.43 578.179 990.43 578.179C990.43 578.179 984.371 595.105 977.28 603.15C968.431 613.191 948.563 620.076 948.563 620.076L949.874 613.116" stroke="white" stroke-width="1.5"/>
<path d="M967.592 574.244L949.822 612.483" stroke="white" stroke-width="1.5"/>
<path d="M961.565 564.381L982.302 540.001C982.302 540.001 980.26 563.835 974.844 577.402C968.362 593.638 949.882 613.115 949.882 613.115L951.264 586.769" stroke="white" stroke-width="1.5"/>
<path d="M984.183 986.41L967.188 1016.83" stroke="white" stroke-width="1.5"/>
<path d="M1003.02 957.788C1003.02 957.788 986.13 962.415 979.65 972.124C978.476 973.883 976.928 976.874 976.928 976.874" stroke="white" stroke-width="1.5"/>
<path d="M943.987 1053.08L963.126 1032.48" stroke="white" stroke-width="1.5"/>
<path d="M1001.6 958.947C1002.61 976.238 1000.29 985.407 991.397 999.259C983.221 1012 963.04 1023.94 963.04 1023.94" stroke="white" stroke-width="1.5"/>
<path d="M965.991 968.308L956.412 997.413" stroke="white" stroke-width="1.5"/>
<path d="M956.652 997.531C956.652 997.531 974.645 979.666 978.14 963.799C980.869 951.41 976.858 930.718 976.858 930.718C976.858 930.718 960.877 942.114 957.858 954.108C956.474 959.605 956.907 968.826 956.907 968.826" stroke="white" stroke-width="1.5"/>
<path d="M936.399 980.57C937.175 965.904 948.448 945.969 948.448 945.969C948.448 945.969 959.095 968.513 958.707 983.643C958.311 999.125 946.024 1020.06 946.024 1020.06C946.024 1020.06 935.567 996.273 936.399 980.57Z" stroke="white" stroke-width="1.5"/>
<path d="M948.029 985.52L946.258 1020.18" stroke="white" stroke-width="1.5"/>
<path d="M961.322 1026.47C961.174 1026.09 985.43 1011.59 985.43 1011.59C985.43 1011.59 979.371 1028.51 972.28 1036.56C963.431 1046.6 943.563 1053.48 943.563 1053.48L944.874 1046.52" stroke="white" stroke-width="1.5"/>
<path d="M962.592 1007.65L944.822 1045.89" stroke="white" stroke-width="1.5"/>
<path d="M956.565 997.789L977.302 973.408C977.302 973.408 975.26 997.243 969.844 1010.81C963.362 1027.04 944.882 1046.52 944.882 1046.52L946.264 1020.18" stroke="white" stroke-width="1.5"/>
<path d="M988.183 1406.93L971.188 1437.35" stroke="white" stroke-width="1.5"/>
<path d="M1007.02 1378.31C1007.02 1378.31 990.13 1382.94 983.65 1392.65C982.476 1394.41 980.928 1397.4 980.928 1397.4" stroke="white" stroke-width="1.5"/>
<path d="M947.987 1473.6L967.126 1453.01" stroke="white" stroke-width="1.5"/>
<path d="M1005.6 1379.47C1006.61 1396.76 1004.29 1405.93 995.398 1419.78C987.221 1432.52 967.041 1444.47 967.041 1444.47" stroke="white" stroke-width="1.5"/>
<path d="M969.991 1388.83L960.412 1417.94" stroke="white" stroke-width="1.5"/>
<path d="M960.652 1418.06C960.652 1418.06 978.645 1400.19 982.14 1384.32C984.869 1371.94 980.858 1351.24 980.858 1351.24C980.858 1351.24 964.877 1362.64 961.858 1374.63C960.474 1380.13 960.907 1389.35 960.907 1389.35" stroke="white" stroke-width="1.5"/>
<path d="M940.399 1401.09C941.175 1386.43 952.448 1366.49 952.448 1366.49C952.448 1366.49 963.095 1389.04 962.707 1404.17C962.311 1419.65 950.024 1440.59 950.024 1440.59C950.024 1440.59 939.567 1416.8 940.399 1401.09Z" stroke="white" stroke-width="1.5"/>
<path d="M952.029 1406.04L950.258 1440.7" stroke="white" stroke-width="1.5"/>
<path d="M965.322 1446.99C965.174 1446.62 989.43 1432.11 989.43 1432.11C989.43 1432.11 983.371 1449.04 976.28 1457.08C967.431 1467.12 947.563 1474.01 947.563 1474.01L948.874 1467.05" stroke="white" stroke-width="1.5"/>
<path d="M966.592 1428.18L948.822 1466.42" stroke="white" stroke-width="1.5"/>
<path d="M960.565 1418.31L981.302 1393.93C981.302 1393.93 979.26 1417.77 973.844 1431.33C967.362 1447.57 948.882 1467.05 948.882 1467.05L950.264 1440.7" stroke="white" stroke-width="1.5"/>
<path d="M928.69 331.613L945.684 362.03" stroke="white" stroke-width="1.5"/>
<path d="M909.853 302.991C909.853 302.991 926.742 307.618 933.222 317.327C934.396 319.086 935.944 322.077 935.944 322.077" stroke="white" stroke-width="1.5"/>
<path d="M968.885 398.28L949.746 377.688" stroke="white" stroke-width="1.5"/>
<path d="M911.268 304.151C910.263 321.441 912.584 330.61 921.475 344.462C929.651 357.202 949.832 369.146 949.832 369.146" stroke="white" stroke-width="1.5"/>
<path d="M946.881 313.511L956.46 342.616" stroke="white" stroke-width="1.5"/>
<path d="M956.22 342.734C956.22 342.734 938.227 324.869 934.732 309.003C932.003 296.614 936.014 275.921 936.014 275.921C936.014 275.921 951.995 287.317 955.014 299.311C956.398 304.808 955.965 314.029 955.965 314.029" stroke="white" stroke-width="1.5"/>
<path d="M976.473 325.773C975.697 311.107 964.424 291.172 964.424 291.172C964.424 291.172 953.777 313.716 954.165 328.847C954.561 344.328 966.848 365.268 966.848 365.268C966.848 365.268 977.305 341.476 976.473 325.773Z" stroke="white" stroke-width="1.5"/>
<path d="M964.843 330.723L966.614 365.379" stroke="white" stroke-width="1.5"/>
<path d="M951.55 371.669C951.698 371.295 927.442 356.789 927.442 356.789C927.442 356.789 933.502 373.716 940.592 381.761C949.441 391.801 969.309 398.686 969.309 398.686L967.998 391.726" stroke="white" stroke-width="1.5"/>
<path d="M950.28 352.855L968.05 391.094" stroke="white" stroke-width="1.5"/>
<path d="M956.307 342.992L935.57 318.611C935.57 318.611 937.612 342.446 943.029 356.012C949.51 372.248 967.99 391.725 967.99 391.725L966.608 365.379" stroke="white" stroke-width="1.5"/>
<path d="M935.69 748.621L952.684 779.038" stroke="white" stroke-width="1.5"/>
<path d="M916.853 720C916.853 720 933.742 724.627 940.222 734.336C941.396 736.094 942.944 739.086 942.944 739.086" stroke="white" stroke-width="1.5"/>
<path d="M975.885 815.289L956.746 794.697" stroke="white" stroke-width="1.5"/>
<path d="M918.268 721.159C917.263 738.449 919.584 747.619 928.475 761.471C936.651 774.211 956.832 786.155 956.832 786.155" stroke="white" stroke-width="1.5"/>
<path d="M953.881 730.52L963.46 759.624" stroke="white" stroke-width="1.5"/>
<path d="M963.22 759.743C963.22 759.743 945.227 741.878 941.732 726.011C939.003 713.622 943.014 692.93 943.014 692.93C943.014 692.93 958.995 704.326 962.014 716.32C963.398 721.817 962.965 731.038 962.965 731.038" stroke="white" stroke-width="1.5"/>
<path d="M983.473 742.781C982.697 728.116 971.424 708.181 971.424 708.181C971.424 708.181 960.777 730.725 961.165 745.855C961.561 761.337 973.848 782.277 973.848 782.277C973.848 782.277 984.305 758.485 983.473 742.781Z" stroke="white" stroke-width="1.5"/>
<path d="M971.843 747.731L973.614 782.388" stroke="white" stroke-width="1.5"/>
<path d="M958.55 788.678C958.698 788.304 934.442 773.798 934.442 773.798C934.442 773.798 940.502 790.724 947.592 798.769C956.441 808.81 976.309 815.695 976.309 815.695L974.998 808.735" stroke="white" stroke-width="1.5"/>
<path d="M957.28 769.863L975.05 808.103" stroke="white" stroke-width="1.5"/>
<path d="M963.307 760.001L942.57 735.62C942.57 735.62 944.612 759.455 950.029 773.021C956.51 789.257 974.99 808.734 974.99 808.734L973.608 782.388" stroke="white" stroke-width="1.5"/>
<path d="M930.69 1207.8L947.684 1238.22" stroke="white" stroke-width="1.5"/>
<path d="M911.853 1179.18C911.853 1179.18 928.742 1183.81 935.222 1193.52C936.396 1195.27 937.944 1198.27 937.944 1198.27" stroke="white" stroke-width="1.5"/>
<path d="M970.885 1274.47L951.746 1253.88" stroke="white" stroke-width="1.5"/>
<path d="M913.268 1180.34C912.263 1197.63 914.584 1206.8 923.475 1220.65C931.651 1233.39 951.832 1245.33 951.832 1245.33" stroke="white" stroke-width="1.5"/>
<path d="M948.881 1189.7L958.46 1218.8" stroke="white" stroke-width="1.5"/>
<path d="M958.22 1218.92C958.22 1218.92 940.227 1201.06 936.732 1185.19C934.003 1172.8 938.014 1152.11 938.014 1152.11C938.014 1152.11 953.995 1163.51 957.014 1175.5C958.398 1181 957.965 1190.22 957.965 1190.22" stroke="white" stroke-width="1.5"/>
<path d="M978.473 1201.96C977.697 1187.3 966.424 1167.36 966.424 1167.36C966.424 1167.36 955.777 1189.9 956.165 1205.04C956.561 1220.52 968.848 1241.46 968.848 1241.46C968.848 1241.46 979.305 1217.66 978.473 1201.96Z" stroke="white" stroke-width="1.5"/>
<path d="M966.843 1206.91L968.614 1241.57" stroke="white" stroke-width="1.5"/>
<path d="M953.55 1247.86C953.698 1247.48 929.442 1232.98 929.442 1232.98C929.442 1232.98 935.502 1249.9 942.592 1257.95C951.441 1267.99 971.309 1274.87 971.309 1274.87L969.998 1267.91" stroke="white" stroke-width="1.5"/>
<path d="M952.28 1229.04L970.05 1267.28" stroke="white" stroke-width="1.5"/>
<path d="M958.307 1219.18L937.57 1194.8C937.57 1194.8 939.612 1218.63 945.029 1232.2C951.51 1248.44 969.99 1267.91 969.99 1267.91L968.608 1241.57" stroke="white" stroke-width="1.5"/>
<path d="M930.69 1581.47L947.684 1611.89" stroke="white" stroke-width="1.5"/>
<path d="M911.853 1552.85C911.853 1552.85 928.742 1557.47 935.222 1567.18C936.396 1568.94 937.944 1571.93 937.944 1571.93" stroke="white" stroke-width="1.5"/>
<path d="M970.885 1648.14L951.746 1627.54" stroke="white" stroke-width="1.5"/>
<path d="M913.268 1554.01C912.263 1571.3 914.584 1580.47 923.475 1594.32C931.651 1607.06 951.832 1619 951.832 1619" stroke="white" stroke-width="1.5"/>
<path d="M948.881 1563.37L958.46 1592.47" stroke="white" stroke-width="1.5"/>
<path d="M958.22 1592.59C958.22 1592.59 940.227 1574.72 936.732 1558.86C934.003 1546.47 938.014 1525.78 938.014 1525.78C938.014 1525.78 953.995 1537.17 957.014 1549.17C958.398 1554.66 957.965 1563.88 957.965 1563.88" stroke="white" stroke-width="1.5"/>
<path d="M978.473 1575.63C977.697 1560.96 966.424 1541.03 966.424 1541.03C966.424 1541.03 955.777 1563.57 956.165 1578.7C956.561 1594.18 968.848 1615.12 968.848 1615.12C968.848 1615.12 979.305 1591.33 978.473 1575.63Z" stroke="white" stroke-width="1.5"/>
<path d="M966.843 1580.58L968.614 1615.23" stroke="white" stroke-width="1.5"/>
<path d="M953.55 1621.52C953.698 1621.15 929.442 1606.64 929.442 1606.64C929.442 1606.64 935.502 1623.57 942.592 1631.62C951.441 1641.66 971.309 1648.54 971.309 1648.54L969.998 1641.58" stroke="white" stroke-width="1.5"/>
<path d="M952.28 1602.71L970.05 1640.95" stroke="white" stroke-width="1.5"/>
<path d="M958.307 1592.85L937.57 1568.47C937.57 1568.47 939.612 1592.3 945.029 1605.87C951.51 1622.1 969.99 1641.58 969.99 1641.58L968.608 1615.23" stroke="white" stroke-width="1.5"/>
<path d="M984.852 -67C984.852 -67 930.945 50.6526 930.945 132.48C930.945 214.306 985.719 250.139 984.852 331.959C984.017 410.696 934.306 444.485 930.945 523.127C926.978 615.938 984.14 659.364 984.852 752.291C985.587 848.348 928.58 893.747 930.945 989.766C933.079 1076.43 984.908 1115.61 984.852 1202.31C984.795 1288.78 928.775 1327.82 930.945 1414.25C932.92 1492.96 995.144 1527.64 984.852 1605.42C975.48 1676.25 899 1758 899 1758" stroke="white" stroke-width="3"/>
<path d="M327.651 1574.73V1566.52L341.938 1580.25L328.223 1596.23L327.648 1587.27L327.569 1586.05L326.354 1585.88L326.151 1587.37C326.354 1585.88 326.354 1585.88 326.353 1585.88L326.353 1585.88L326.351 1585.88L326.347 1585.88L326.33 1585.88L326.269 1585.87C326.217 1585.86 326.141 1585.85 326.044 1585.84C325.85 1585.82 325.571 1585.78 325.225 1585.75C324.533 1585.68 323.567 1585.59 322.471 1585.53C320.316 1585.42 317.51 1585.41 315.282 1585.9C311.754 1586.68 307.887 1589.1 305.018 1591.19C304.869 1591.3 304.723 1591.41 304.579 1591.52C305.085 1590.4 305.673 1589.19 306.336 1587.95C307.584 1585.62 309.079 1583.22 310.766 1581.23C312.466 1579.23 314.276 1577.73 316.13 1577.04C317.836 1576.4 320.257 1576.17 322.375 1576.13C323.41 1576.11 324.329 1576.14 324.988 1576.17C325.317 1576.18 325.58 1576.2 325.759 1576.21C325.848 1576.21 325.917 1576.22 325.962 1576.22L326.011 1576.23L326.022 1576.23L326.024 1576.23L326.024 1576.23L326.024 1576.23L326.024 1576.23L327.651 1576.36V1574.73Z" stroke="#1F545B" stroke-width="3"/>
<path d="M220.24 1593.16C219.253 1593.16 218.293 1593.01 217.36 1592.7C216.44 1592.39 215.687 1591.98 215.1 1591.46L216.02 1589.88C216.487 1590.32 217.093 1590.68 217.84 1590.96C218.587 1591.24 219.387 1591.38 220.24 1591.38C221.28 1591.38 222.087 1591.16 222.66 1590.72C223.247 1590.27 223.54 1589.66 223.54 1588.9C223.54 1588.17 223.26 1587.58 222.7 1587.14C222.153 1586.69 221.28 1586.46 220.08 1586.46H218.96V1585.06L223.12 1579.94L223.4 1580.74H215.74V1579H224.98V1580.36L220.84 1585.46L219.8 1584.84H220.46C222.153 1584.84 223.42 1585.22 224.26 1585.98C225.113 1586.74 225.54 1587.71 225.54 1588.88C225.54 1589.67 225.347 1590.39 224.96 1591.04C224.573 1591.69 223.987 1592.21 223.2 1592.6C222.427 1592.97 221.44 1593.16 220.24 1593.16ZM233.125 1593.16C232.032 1593.16 231.052 1592.88 230.185 1592.32C229.332 1591.76 228.652 1590.95 228.145 1589.88C227.652 1588.81 227.405 1587.52 227.405 1586C227.405 1584.48 227.652 1583.19 228.145 1582.12C228.652 1581.05 229.332 1580.24 230.185 1579.68C231.052 1579.12 232.032 1578.84 233.125 1578.84C234.205 1578.84 235.179 1579.12 236.045 1579.68C236.912 1580.24 237.592 1581.05 238.085 1582.12C238.579 1583.19 238.825 1584.48 238.825 1586C238.825 1587.52 238.579 1588.81 238.085 1589.88C237.592 1590.95 236.912 1591.76 236.045 1592.32C235.179 1592.88 234.205 1593.16 233.125 1593.16ZM233.125 1591.38C233.859 1591.38 234.499 1591.18 235.045 1590.78C235.605 1590.38 236.039 1589.78 236.345 1588.98C236.665 1588.18 236.825 1587.19 236.825 1586C236.825 1584.81 236.665 1583.82 236.345 1583.02C236.039 1582.22 235.605 1581.62 235.045 1581.22C234.499 1580.82 233.859 1580.62 233.125 1580.62C232.392 1580.62 231.745 1580.82 231.185 1581.22C230.625 1581.62 230.185 1582.22 229.865 1583.02C229.559 1583.82 229.405 1584.81 229.405 1586C229.405 1587.19 229.559 1588.18 229.865 1588.98C230.185 1589.78 230.625 1590.38 231.185 1590.78C231.745 1591.18 232.392 1591.38 233.125 1591.38ZM246.465 1593.16C245.372 1593.16 244.392 1592.88 243.525 1592.32C242.672 1591.76 241.992 1590.95 241.485 1589.88C240.992 1588.81 240.745 1587.52 240.745 1586C240.745 1584.48 240.992 1583.19 241.485 1582.12C241.992 1581.05 242.672 1580.24 243.525 1579.68C244.392 1579.12 245.372 1578.84 246.465 1578.84C247.545 1578.84 248.518 1579.12 249.385 1579.68C250.252 1580.24 250.932 1581.05 251.425 1582.12C251.918 1583.19 252.165 1584.48 252.165 1586C252.165 1587.52 251.918 1588.81 251.425 1589.88C250.932 1590.95 250.252 1591.76 249.385 1592.32C248.518 1592.88 247.545 1593.16 246.465 1593.16ZM246.465 1591.38C247.198 1591.38 247.838 1591.18 248.385 1590.78C248.945 1590.38 249.378 1589.78 249.685 1588.98C250.005 1588.18 250.165 1587.19 250.165 1586C250.165 1584.81 250.005 1583.82 249.685 1583.02C249.378 1582.22 248.945 1581.62 248.385 1581.22C247.838 1580.82 247.198 1580.62 246.465 1580.62C245.732 1580.62 245.085 1580.82 244.525 1581.22C243.965 1581.62 243.525 1582.22 243.205 1583.02C242.898 1583.82 242.745 1584.81 242.745 1586C242.745 1587.19 242.898 1588.18 243.205 1588.98C243.525 1589.78 243.965 1590.38 244.525 1590.78C245.085 1591.18 245.732 1591.38 246.465 1591.38Z" fill="#1F545B"/>
</g>
<defs>
<clipPath id="clip0_722_841">
<rect width="1128" height="1768" fill="white"/>
</clipPath>
</defs>
</svg>
