<svg width="500" height="1664" viewBox="0 0 500 1664" fill="none" xmlns="http://www.w3.org/2000/svg">
<g clip-path="url(#clip0_722_1741)">
<rect width="500" height="1664" fill="#1F545B"/>
<path d="M432.166 176.814L417.39 205.284" stroke="white" stroke-width="1.5"/>
<path d="M448.545 150.027C448.545 150.027 433.859 154.358 428.225 163.445C427.204 165.091 425.858 167.891 425.858 167.891" stroke="white" stroke-width="1.5"/>
<path d="M397.217 239.216L413.858 219.943" stroke="white" stroke-width="1.5"/>
<path d="M447.315 151.114C448.189 167.297 446.17 175.88 438.44 188.845C431.331 200.769 413.784 211.949 413.784 211.949" stroke="white" stroke-width="1.5"/>
<path d="M416.35 159.871L408.021 187.113" stroke="white" stroke-width="1.5"/>
<path d="M408.229 187.223C408.229 187.223 423.874 170.502 426.913 155.651C429.286 144.055 425.798 124.687 425.798 124.687C425.798 124.687 411.903 135.354 409.278 146.58C408.074 151.725 408.451 160.355 408.451 160.355" stroke="white" stroke-width="1.5"/>
<path d="M390.619 171.348C391.294 157.621 401.096 138.963 401.096 138.963C401.096 138.963 410.353 160.064 410.016 174.225C409.672 188.716 398.988 208.315 398.988 208.315C398.988 208.315 389.896 186.047 390.619 171.348Z" stroke="white" stroke-width="1.5"/>
<path d="M400.731 175.982L399.191 208.421" stroke="white" stroke-width="1.5"/>
<path d="M412.289 214.307C412.16 213.957 433.25 200.38 433.25 200.38C433.25 200.38 427.982 216.223 421.817 223.753C414.123 233.151 396.848 239.595 396.848 239.595L397.987 233.08" stroke="white" stroke-width="1.5"/>
<path d="M413.394 196.697L397.943 232.488" stroke="white" stroke-width="1.5"/>
<path d="M408.153 187.463L426.184 164.644C426.184 164.644 424.408 186.952 419.699 199.65C414.063 214.847 397.995 233.077 397.995 233.077L399.196 208.418" stroke="white" stroke-width="1.5"/>
<path d="M433.906 567.138L419.129 595.608" stroke="white" stroke-width="1.5"/>
<path d="M450.284 540.348C450.284 540.348 435.599 544.678 429.964 553.765C428.943 555.412 427.598 558.212 427.598 558.212" stroke="white" stroke-width="1.5"/>
<path d="M398.956 629.537L415.598 610.263" stroke="white" stroke-width="1.5"/>
<path d="M449.054 541.434C449.928 557.617 447.91 566.2 440.18 579.165C433.07 591.089 415.523 602.269 415.523 602.269" stroke="white" stroke-width="1.5"/>
<path d="M418.089 550.191L409.76 577.433" stroke="white" stroke-width="1.5"/>
<path d="M409.969 577.543C409.969 577.543 425.613 560.822 428.653 545.971C431.026 534.375 427.538 515.008 427.538 515.008C427.538 515.008 413.643 525.674 411.017 536.9C409.814 542.046 410.191 550.676 410.191 550.676" stroke="white" stroke-width="1.5"/>
<path d="M392.358 561.668C393.033 547.941 402.835 529.283 402.835 529.283C402.835 529.283 412.092 550.384 411.756 564.546C411.411 579.036 400.727 598.635 400.727 598.635C400.727 598.635 391.636 576.367 392.358 561.668Z" stroke="white" stroke-width="1.5"/>
<path d="M402.471 566.303L400.931 598.741" stroke="white" stroke-width="1.5"/>
<path d="M414.028 604.627C413.899 604.277 434.99 590.7 434.99 590.7C434.99 590.7 429.722 606.543 423.557 614.073C415.862 623.471 398.587 629.915 398.587 629.915L399.727 623.401" stroke="white" stroke-width="1.5"/>
<path d="M415.134 587.021L399.683 622.812" stroke="white" stroke-width="1.5"/>
<path d="M409.893 577.789L427.923 554.97C427.923 554.97 426.148 577.278 421.438 589.977C415.802 605.173 399.734 623.403 399.734 623.403L400.936 598.744" stroke="white" stroke-width="1.5"/>
<path d="M429.557 972.794L414.781 1001.26" stroke="white" stroke-width="1.5"/>
<path d="M445.935 946.008C445.935 946.008 431.25 950.339 425.615 959.426C424.594 961.072 423.249 963.872 423.249 963.872" stroke="white" stroke-width="1.5"/>
<path d="M394.607 1035.2L411.249 1015.92" stroke="white" stroke-width="1.5"/>
<path d="M444.705 947.094C445.58 963.277 443.561 971.86 435.831 984.826C428.721 996.75 411.174 1007.93 411.174 1007.93" stroke="white" stroke-width="1.5"/>
<path d="M413.74 955.852L405.411 983.093" stroke="white" stroke-width="1.5"/>
<path d="M405.62 983.204C405.62 983.204 421.264 966.483 424.304 951.631C426.677 940.035 423.189 920.668 423.189 920.668C423.189 920.668 409.294 931.334 406.668 942.56C405.465 947.706 405.842 956.336 405.842 956.336" stroke="white" stroke-width="1.5"/>
<path d="M388.009 967.329C388.684 953.602 398.486 934.943 398.486 934.943C398.486 934.943 407.744 956.044 407.407 970.206C407.062 984.696 396.378 1004.3 396.378 1004.3C396.378 1004.3 387.287 982.027 388.009 967.329Z" stroke="white" stroke-width="1.5"/>
<path d="M398.122 971.963L396.582 1004.4" stroke="white" stroke-width="1.5"/>
<path d="M409.679 1010.29C409.551 1009.94 430.641 996.36 430.641 996.36C430.641 996.36 425.373 1012.2 419.208 1019.73C411.513 1029.13 394.238 1035.58 394.238 1035.58L395.378 1029.06" stroke="white" stroke-width="1.5"/>
<path d="M410.785 992.677L395.334 1028.47" stroke="white" stroke-width="1.5"/>
<path d="M405.544 983.446L423.575 960.626C423.575 960.626 421.799 982.935 417.09 995.633C411.454 1010.83 395.386 1029.06 395.386 1029.06L396.587 1004.4" stroke="white" stroke-width="1.5"/>
<path d="M433.035 1366.4L418.259 1394.87" stroke="white" stroke-width="1.5"/>
<path d="M449.413 1339.61C449.413 1339.61 434.728 1343.94 429.094 1353.03C428.073 1354.68 426.727 1357.48 426.727 1357.48" stroke="white" stroke-width="1.5"/>
<path d="M398.086 1428.8L414.727 1409.53" stroke="white" stroke-width="1.5"/>
<path d="M448.184 1340.7C449.058 1356.88 447.039 1365.46 439.309 1378.43C432.2 1390.35 414.653 1401.53 414.653 1401.53" stroke="white" stroke-width="1.5"/>
<path d="M417.219 1349.46L408.889 1376.7" stroke="white" stroke-width="1.5"/>
<path d="M409.098 1376.81C409.098 1376.81 424.743 1360.09 427.782 1345.24C430.155 1333.64 426.667 1314.27 426.667 1314.27C426.667 1314.27 412.772 1324.94 410.147 1336.16C408.943 1341.31 409.32 1349.94 409.32 1349.94" stroke="white" stroke-width="1.5"/>
<path d="M391.488 1360.93C392.163 1347.21 401.965 1328.55 401.965 1328.55C401.965 1328.55 411.222 1349.65 410.885 1363.81C410.54 1378.3 399.857 1397.9 399.857 1397.9C399.857 1397.9 390.765 1375.63 391.488 1360.93Z" stroke="white" stroke-width="1.5"/>
<path d="M401.6 1365.57L400.06 1398.01" stroke="white" stroke-width="1.5"/>
<path d="M413.158 1403.89C413.029 1403.54 434.119 1389.96 434.119 1389.96C434.119 1389.96 428.851 1405.81 422.686 1413.34C414.991 1422.74 397.717 1429.18 397.717 1429.18L398.856 1422.67" stroke="white" stroke-width="1.5"/>
<path d="M414.263 1386.29L398.812 1422.08" stroke="white" stroke-width="1.5"/>
<path d="M409.022 1377.05L427.053 1354.23C427.053 1354.23 425.277 1376.54 420.568 1389.24C414.932 1404.43 398.864 1422.66 398.864 1422.66L400.065 1398" stroke="white" stroke-width="1.5"/>
<path d="M381.308 359.913L396.084 388.382" stroke="white" stroke-width="1.5"/>
<path d="M364.93 333.126C364.93 333.126 379.615 337.457 385.25 346.544C386.271 348.19 387.616 350.99 387.616 350.99" stroke="white" stroke-width="1.5"/>
<path d="M416.258 422.315L399.616 403.041" stroke="white" stroke-width="1.5"/>
<path d="M366.16 334.212C365.285 350.396 367.304 358.978 375.034 371.944C382.144 383.868 399.691 395.047 399.691 395.047" stroke="white" stroke-width="1.5"/>
<path d="M397.125 342.97L405.454 370.212" stroke="white" stroke-width="1.5"/>
<path d="M405.245 370.322C405.245 370.322 389.601 353.601 386.561 338.75C384.188 327.154 387.676 307.786 387.676 307.786C387.676 307.786 401.571 318.452 404.197 329.678C405.4 334.824 405.023 343.454 405.023 343.454" stroke="white" stroke-width="1.5"/>
<path d="M422.856 354.447C422.181 340.72 412.379 322.061 412.379 322.061C412.379 322.061 403.121 343.162 403.458 357.324C403.803 371.814 414.487 391.414 414.487 391.414C414.487 391.414 423.578 369.145 422.856 354.447Z" stroke="white" stroke-width="1.5"/>
<path d="M412.743 359.081L414.283 391.519" stroke="white" stroke-width="1.5"/>
<path d="M401.186 397.406C401.314 397.056 380.224 383.478 380.224 383.478C380.224 383.478 385.492 399.321 391.657 406.851C399.352 416.249 416.627 422.693 416.627 422.693L415.487 416.179" stroke="white" stroke-width="1.5"/>
<path d="M400.08 379.795L415.531 415.587" stroke="white" stroke-width="1.5"/>
<path d="M405.321 370.564L387.29 347.744C387.29 347.744 389.066 370.053 393.775 382.751C399.411 397.947 415.479 416.178 415.479 416.178L414.278 391.518" stroke="white" stroke-width="1.5"/>
<path d="M387.395 750.229L402.171 778.699" stroke="white" stroke-width="1.5"/>
<path d="M371.016 723.442C371.016 723.442 385.702 727.773 391.336 736.86C392.357 738.506 393.703 741.306 393.703 741.306" stroke="white" stroke-width="1.5"/>
<path d="M422.344 812.631L405.703 793.358" stroke="white" stroke-width="1.5"/>
<path d="M372.246 724.529C371.372 740.712 373.391 749.295 381.121 762.26C388.23 774.184 405.777 785.364 405.777 785.364" stroke="white" stroke-width="1.5"/>
<path d="M403.211 733.286L411.54 760.528" stroke="white" stroke-width="1.5"/>
<path d="M411.332 760.638C411.332 760.638 395.687 743.917 392.648 729.066C390.275 717.47 393.763 698.102 393.763 698.102C393.763 698.102 407.658 708.769 410.283 719.995C411.487 725.14 411.11 733.77 411.11 733.77" stroke="white" stroke-width="1.5"/>
<path d="M428.942 744.763C428.267 731.036 418.465 712.378 418.465 712.378C418.465 712.378 409.208 733.479 409.545 747.64C409.889 762.131 420.573 781.73 420.573 781.73C420.573 781.73 429.665 759.462 428.942 744.763Z" stroke="white" stroke-width="1.5"/>
<path d="M418.829 749.397L420.369 781.836" stroke="white" stroke-width="1.5"/>
<path d="M407.272 787.722C407.401 787.372 386.31 773.795 386.31 773.795C386.31 773.795 391.579 789.638 397.744 797.168C405.438 806.566 422.713 813.01 422.713 813.01L421.574 806.496" stroke="white" stroke-width="1.5"/>
<path d="M406.167 770.112L421.618 805.903" stroke="white" stroke-width="1.5"/>
<path d="M411.407 760.878L393.377 738.059C393.377 738.059 395.152 760.367 399.862 773.065C405.498 788.262 421.566 806.492 421.566 806.492L420.364 781.833" stroke="white" stroke-width="1.5"/>
<path d="M383.046 1180.02L397.822 1208.49" stroke="white" stroke-width="1.5"/>
<path d="M366.668 1153.23C366.668 1153.23 381.353 1157.56 386.988 1166.65C388.008 1168.29 389.354 1171.09 389.354 1171.09" stroke="white" stroke-width="1.5"/>
<path d="M417.995 1242.42L401.354 1223.14" stroke="white" stroke-width="1.5"/>
<path d="M367.897 1154.32C367.023 1170.5 369.042 1179.08 376.772 1192.05C383.881 1203.97 401.428 1215.15 401.428 1215.15" stroke="white" stroke-width="1.5"/>
<path d="M398.863 1163.07L407.192 1190.32" stroke="white" stroke-width="1.5"/>
<path d="M406.983 1190.43C406.983 1190.43 391.338 1173.7 388.299 1158.85C385.926 1147.26 389.414 1127.89 389.414 1127.89C389.414 1127.89 403.309 1138.56 405.935 1149.78C407.138 1154.93 406.761 1163.56 406.761 1163.56" stroke="white" stroke-width="1.5"/>
<path d="M424.593 1174.55C423.918 1160.82 414.116 1142.16 414.116 1142.16C414.116 1142.16 404.859 1163.27 405.196 1177.43C405.541 1191.92 416.224 1211.52 416.224 1211.52C416.224 1211.52 425.316 1189.25 424.593 1174.55Z" stroke="white" stroke-width="1.5"/>
<path d="M414.481 1179.18L416.021 1211.62" stroke="white" stroke-width="1.5"/>
<path d="M402.923 1217.51C403.052 1217.16 381.962 1203.58 381.962 1203.58C381.962 1203.58 387.23 1219.42 393.395 1226.95C401.09 1236.35 418.364 1242.8 418.364 1242.8L417.225 1236.28" stroke="white" stroke-width="1.5"/>
<path d="M401.818 1199.9L417.269 1235.69" stroke="white" stroke-width="1.5"/>
<path d="M407.059 1190.67L389.028 1167.85C389.028 1167.85 390.804 1190.16 395.513 1202.86C401.149 1218.05 417.217 1236.29 417.217 1236.29L416.016 1211.63" stroke="white" stroke-width="1.5"/>
<path d="M383.046 1529.76L397.822 1558.23" stroke="white" stroke-width="1.5"/>
<path d="M366.668 1502.97C366.668 1502.97 381.353 1507.31 386.988 1516.39C388.008 1518.04 389.354 1520.84 389.354 1520.84" stroke="white" stroke-width="1.5"/>
<path d="M417.995 1592.16L401.354 1572.89" stroke="white" stroke-width="1.5"/>
<path d="M367.897 1504.06C367.023 1520.24 369.042 1528.83 376.772 1541.79C383.881 1553.72 401.428 1564.9 401.428 1564.9" stroke="white" stroke-width="1.5"/>
<path d="M398.863 1512.82L407.192 1540.06" stroke="white" stroke-width="1.5"/>
<path d="M406.983 1540.17C406.983 1540.17 391.338 1523.45 388.299 1508.6C385.926 1497 389.414 1477.63 389.414 1477.63C389.414 1477.63 403.309 1488.3 405.935 1499.53C407.138 1504.67 406.761 1513.3 406.761 1513.3" stroke="white" stroke-width="1.5"/>
<path d="M424.593 1524.3C423.918 1510.57 414.116 1491.91 414.116 1491.91C414.116 1491.91 404.859 1513.01 405.196 1527.17C405.541 1541.66 416.224 1561.26 416.224 1561.26C416.224 1561.26 425.316 1538.99 424.593 1524.3Z" stroke="white" stroke-width="1.5"/>
<path d="M414.481 1528.93L416.021 1561.37" stroke="white" stroke-width="1.5"/>
<path d="M402.923 1567.25C403.052 1566.9 381.962 1553.33 381.962 1553.33C381.962 1553.33 387.23 1569.17 393.395 1576.7C401.09 1586.1 418.364 1592.54 418.364 1592.54L417.225 1586.03" stroke="white" stroke-width="1.5"/>
<path d="M401.818 1549.64L417.269 1585.44" stroke="white" stroke-width="1.5"/>
<path d="M407.059 1540.41L389.028 1517.59C389.028 1517.59 390.804 1539.9 395.513 1552.6C401.149 1567.79 417.217 1586.02 417.217 1586.02L416.016 1561.36" stroke="white" stroke-width="1.5"/>
<path d="M430.14 -13.1758C430.14 -13.1758 383.268 96.9454 383.268 173.534C383.268 250.123 430.895 283.662 430.14 360.244C429.414 433.941 386.191 465.568 383.268 539.175C379.819 626.045 429.521 666.691 430.14 753.669C430.779 843.577 381.212 886.07 383.268 975.943C385.124 1057.06 430.189 1093.73 430.14 1174.88C430.091 1255.82 381.382 1292.35 383.268 1373.26C384.986 1446.93 439.089 1479.38 430.14 1552.19C421.992 1618.48 355.492 1695 355.492 1695" stroke="white" stroke-width="3"/>
<path d="M68.8174 176.99L83.5937 205.46" stroke="white" stroke-width="1.5"/>
<path d="M52.4391 150.203C52.4391 150.203 67.1244 154.534 72.759 163.621C73.7799 165.267 75.1256 168.067 75.1256 168.067" stroke="white" stroke-width="1.5"/>
<path d="M103.767 239.392L87.1254 220.118" stroke="white" stroke-width="1.5"/>
<path d="M53.6689 151.29C52.7947 167.473 54.8134 176.055 62.5435 189.021C69.6529 200.945 87.2 212.125 87.2 212.125" stroke="white" stroke-width="1.5"/>
<path d="M84.634 160.047L92.9631 187.289" stroke="white" stroke-width="1.5"/>
<path d="M92.7545 187.399C92.7545 187.399 77.1098 170.678 74.0705 155.827C71.6974 144.231 75.1856 124.863 75.1856 124.863C75.1856 124.863 89.0805 135.529 91.706 146.755C92.9095 151.901 92.5326 160.531 92.5326 160.531" stroke="white" stroke-width="1.5"/>
<path d="M110.365 171.524C109.69 157.797 99.8878 139.138 99.8878 139.138C99.8878 139.138 90.6307 160.239 90.9674 174.401C91.3121 188.892 101.996 208.491 101.996 208.491C101.996 208.491 111.088 186.222 110.365 171.524Z" stroke="white" stroke-width="1.5"/>
<path d="M100.252 176.158L101.792 208.596" stroke="white" stroke-width="1.5"/>
<path d="M88.695 214.483C88.8237 214.133 67.7332 200.556 67.7332 200.556C67.7332 200.556 73.0016 216.398 79.1666 223.928C86.8611 233.327 104.136 239.771 104.136 239.771L102.996 233.256" stroke="white" stroke-width="1.5"/>
<path d="M87.5896 196.873L103.04 232.664" stroke="white" stroke-width="1.5"/>
<path d="M92.8301 187.639L74.7996 164.819C74.7996 164.819 76.5752 187.128 81.2847 199.826C86.9207 215.022 102.989 233.253 102.989 233.253L101.787 208.593" stroke="white" stroke-width="1.5"/>
<path d="M67.0779 567.314L81.8542 595.784" stroke="white" stroke-width="1.5"/>
<path d="M50.6996 540.523C50.6996 540.523 65.3849 544.854 71.0195 553.941C72.0404 555.588 73.3861 558.387 73.3861 558.387" stroke="white" stroke-width="1.5"/>
<path d="M102.027 629.713L85.3859 610.439" stroke="white" stroke-width="1.5"/>
<path d="M51.9294 541.61C51.0552 557.793 53.0739 566.376 60.804 579.341C67.9134 591.265 85.4605 602.445 85.4605 602.445" stroke="white" stroke-width="1.5"/>
<path d="M82.8945 550.367L91.2236 577.609" stroke="white" stroke-width="1.5"/>
<path d="M91.015 577.719C91.015 577.719 75.3703 560.998 72.331 546.147C69.9579 534.551 73.4461 515.183 73.4461 515.183C73.4461 515.183 87.341 525.85 89.9665 537.076C91.17 542.221 90.7931 550.852 90.7931 550.852" stroke="white" stroke-width="1.5"/>
<path d="M108.625 561.844C107.95 548.117 98.1483 529.459 98.1483 529.459C98.1483 529.459 88.8912 550.56 89.2279 564.721C89.5726 579.212 100.256 598.811 100.256 598.811C100.256 598.811 109.348 576.543 108.625 561.844Z" stroke="white" stroke-width="1.5"/>
<path d="M98.5127 566.479L100.053 598.917" stroke="white" stroke-width="1.5"/>
<path d="M86.9554 604.803C87.0842 604.453 65.9937 590.876 65.9937 590.876C65.9937 590.876 71.2621 606.719 77.4271 614.249C85.1216 623.647 102.396 630.091 102.396 630.091L101.257 623.577" stroke="white" stroke-width="1.5"/>
<path d="M85.8501 587.197L101.301 622.988" stroke="white" stroke-width="1.5"/>
<path d="M91.0906 577.965L73.0601 555.145C73.0601 555.145 74.8357 577.454 79.5452 590.152C85.1812 605.349 101.249 623.579 101.249 623.579L100.048 598.92" stroke="white" stroke-width="1.5"/>
<path d="M71.4268 972.97L86.2031 1001.44" stroke="white" stroke-width="1.5"/>
<path d="M55.0484 946.184C55.0484 946.184 69.7338 950.514 75.3684 959.601C76.3892 961.248 77.735 964.047 77.735 964.047" stroke="white" stroke-width="1.5"/>
<path d="M106.376 1035.37L89.7348 1016.1" stroke="white" stroke-width="1.5"/>
<path d="M56.2783 947.27C55.404 963.453 57.4227 972.036 65.1529 985.001C72.2622 996.925 89.8094 1008.1 89.8094 1008.1" stroke="white" stroke-width="1.5"/>
<path d="M87.2434 956.027L95.5724 983.269" stroke="white" stroke-width="1.5"/>
<path d="M95.3639 983.379C95.3639 983.379 79.7192 966.658 76.6799 951.807C74.3068 940.211 77.7949 920.844 77.7949 920.844C77.7949 920.844 91.6899 931.51 94.3154 942.736C95.5188 947.882 95.142 956.512 95.142 956.512" stroke="white" stroke-width="1.5"/>
<path d="M112.974 967.504C112.299 953.777 102.497 935.119 102.497 935.119C102.497 935.119 93.24 956.22 93.5768 970.381C93.9214 984.872 104.605 1004.47 104.605 1004.47C104.605 1004.47 113.697 982.203 112.974 967.504Z" stroke="white" stroke-width="1.5"/>
<path d="M102.862 972.139L104.402 1004.58" stroke="white" stroke-width="1.5"/>
<path d="M91.3043 1010.46C91.433 1010.11 70.3425 996.536 70.3425 996.536C70.3425 996.536 75.611 1012.38 81.7759 1019.91C89.4705 1029.31 106.745 1035.75 106.745 1035.75L105.606 1029.24" stroke="white" stroke-width="1.5"/>
<path d="M90.1989 992.853L105.65 1028.64" stroke="white" stroke-width="1.5"/>
<path d="M95.4395 983.621L77.409 960.802C77.409 960.802 79.1846 983.11 83.8941 995.809C89.5301 1011 105.598 1029.24 105.598 1029.24L104.397 1004.58" stroke="white" stroke-width="1.5"/>
<path d="M67.9485 1366.58L82.7248 1395.05" stroke="white" stroke-width="1.5"/>
<path d="M51.5702 1339.79C51.5702 1339.79 66.2555 1344.12 71.8901 1353.21C72.911 1354.85 74.2567 1357.65 74.2567 1357.65" stroke="white" stroke-width="1.5"/>
<path d="M102.898 1428.98L86.2565 1409.7" stroke="white" stroke-width="1.5"/>
<path d="M52.8 1340.88C51.9258 1357.06 53.9445 1365.64 61.6746 1378.61C68.784 1390.53 86.3311 1401.71 86.3311 1401.71" stroke="white" stroke-width="1.5"/>
<path d="M83.7651 1349.63L92.0942 1376.87" stroke="white" stroke-width="1.5"/>
<path d="M91.8856 1376.98C91.8856 1376.98 76.2409 1360.26 73.2016 1345.41C70.8285 1333.82 74.3167 1314.45 74.3167 1314.45C74.3167 1314.45 88.2116 1325.12 90.8371 1336.34C92.0406 1341.49 91.6637 1350.12 91.6637 1350.12" stroke="white" stroke-width="1.5"/>
<path d="M109.496 1361.11C108.821 1347.38 99.0189 1328.72 99.0189 1328.72C99.0189 1328.72 89.7618 1349.83 90.0986 1363.99C90.4432 1378.48 101.127 1398.08 101.127 1398.08C101.127 1398.08 110.219 1375.81 109.496 1361.11Z" stroke="white" stroke-width="1.5"/>
<path d="M99.3833 1365.74L100.923 1398.18" stroke="white" stroke-width="1.5"/>
<path d="M87.8261 1404.07C87.9548 1403.72 66.8643 1390.14 66.8643 1390.14C66.8643 1390.14 72.1327 1405.98 78.2977 1413.51C85.9922 1422.91 103.267 1429.36 103.267 1429.36L102.128 1422.84" stroke="white" stroke-width="1.5"/>
<path d="M86.7207 1386.46L102.172 1422.25" stroke="white" stroke-width="1.5"/>
<path d="M91.9613 1377.22L73.9308 1354.41C73.9308 1354.41 75.7063 1376.71 80.4158 1389.41C86.0518 1404.61 102.12 1422.84 102.12 1422.84L100.918 1398.18" stroke="white" stroke-width="1.5"/>
<path d="M119.676 360.088L104.899 388.558" stroke="white" stroke-width="1.5"/>
<path d="M136.054 333.302C136.054 333.302 121.369 337.633 115.734 346.719C114.713 348.366 113.368 351.166 113.368 351.166" stroke="white" stroke-width="1.5"/>
<path d="M84.7264 422.491L101.368 403.217" stroke="white" stroke-width="1.5"/>
<path d="M134.824 334.388C135.698 350.571 133.68 359.154 125.95 372.119C118.84 384.044 101.293 395.223 101.293 395.223" stroke="white" stroke-width="1.5"/>
<path d="M103.859 343.146L95.5301 370.387" stroke="white" stroke-width="1.5"/>
<path d="M95.7386 370.498C95.7386 370.498 111.383 353.777 114.423 338.925C116.796 327.329 113.308 307.962 113.308 307.962C113.308 307.962 99.4126 318.628 96.7871 329.854C95.5837 335 95.9606 343.63 95.9606 343.63" stroke="white" stroke-width="1.5"/>
<path d="M78.1283 354.623C78.8033 340.895 88.6054 322.237 88.6054 322.237C88.6054 322.237 97.8625 343.338 97.5257 357.5C97.1811 371.99 86.4973 391.59 86.4973 391.59C86.4973 391.59 77.4056 369.321 78.1283 354.623Z" stroke="white" stroke-width="1.5"/>
<path d="M88.241 359.257L86.701 391.695" stroke="white" stroke-width="1.5"/>
<path d="M99.7982 397.582C99.6695 397.231 120.76 383.654 120.76 383.654C120.76 383.654 115.492 399.497 109.327 407.027C101.632 416.425 84.3573 422.869 84.3573 422.869L85.4967 416.355" stroke="white" stroke-width="1.5"/>
<path d="M100.904 379.971L85.4527 415.763" stroke="white" stroke-width="1.5"/>
<path d="M95.663 370.74L113.694 347.92C113.694 347.92 111.918 370.229 107.208 382.927C101.572 398.123 85.5044 416.354 85.5044 416.354L86.706 391.694" stroke="white" stroke-width="1.5"/>
<path d="M113.589 750.405L98.813 778.875" stroke="white" stroke-width="1.5"/>
<path d="M129.968 723.618C129.968 723.618 115.282 727.949 109.648 737.036C108.627 738.682 107.281 741.482 107.281 741.482" stroke="white" stroke-width="1.5"/>
<path d="M78.6399 812.807L95.2813 793.533" stroke="white" stroke-width="1.5"/>
<path d="M128.738 724.705C129.612 740.888 127.593 749.47 119.863 762.436C112.754 774.36 95.2068 785.54 95.2068 785.54" stroke="white" stroke-width="1.5"/>
<path d="M97.7727 733.462L89.4437 760.704" stroke="white" stroke-width="1.5"/>
<path d="M89.6522 760.814C89.6522 760.814 105.297 744.093 108.336 729.242C110.709 717.646 107.221 698.278 107.221 698.278C107.221 698.278 93.3262 708.944 90.7007 720.17C89.4973 725.316 89.8741 733.946 89.8741 733.946" stroke="white" stroke-width="1.5"/>
<path d="M72.0419 744.939C72.7168 731.212 82.5189 712.554 82.5189 712.554C82.5189 712.554 91.7761 733.655 91.4393 747.816C91.0947 762.307 80.4108 781.906 80.4108 781.906C80.4108 781.906 71.3192 759.637 72.0419 744.939Z" stroke="white" stroke-width="1.5"/>
<path d="M82.1545 749.573L80.6145 782.011" stroke="white" stroke-width="1.5"/>
<path d="M93.7118 787.898C93.5831 787.548 114.674 773.971 114.674 773.971C114.674 773.971 109.405 789.813 103.24 797.343C95.5456 806.742 78.2709 813.186 78.2709 813.186L79.4103 806.671" stroke="white" stroke-width="1.5"/>
<path d="M94.8172 770.288L79.3663 806.079" stroke="white" stroke-width="1.5"/>
<path d="M89.5766 761.054L107.607 738.234C107.607 738.234 105.832 760.543 101.122 773.241C95.486 788.437 79.418 806.668 79.418 806.668L80.6196 782.008" stroke="white" stroke-width="1.5"/>
<path d="M117.938 1180.2L103.162 1208.67" stroke="white" stroke-width="1.5"/>
<path d="M134.316 1153.41C134.316 1153.41 119.631 1157.74 113.996 1166.82C112.976 1168.47 111.63 1171.27 111.63 1171.27" stroke="white" stroke-width="1.5"/>
<path d="M82.9886 1242.59L99.63 1223.32" stroke="white" stroke-width="1.5"/>
<path d="M133.086 1154.49C133.961 1170.67 131.942 1179.26 124.212 1192.22C117.103 1204.15 99.5554 1215.33 99.5554 1215.33" stroke="white" stroke-width="1.5"/>
<path d="M102.121 1163.25L93.7923 1190.49" stroke="white" stroke-width="1.5"/>
<path d="M94.0008 1190.6C94.0008 1190.6 109.646 1173.88 112.685 1159.03C115.058 1147.43 111.57 1128.07 111.57 1128.07C111.57 1128.07 97.6748 1138.73 95.0493 1149.96C93.8459 1155.1 94.2228 1163.73 94.2228 1163.73" stroke="white" stroke-width="1.5"/>
<path d="M76.3905 1174.73C77.0655 1161 86.8676 1142.34 86.8676 1142.34C86.8676 1142.34 96.1247 1163.44 95.7879 1177.6C95.4433 1192.09 84.7595 1211.69 84.7595 1211.69C84.7595 1211.69 75.6678 1189.42 76.3905 1174.73Z" stroke="white" stroke-width="1.5"/>
<path d="M86.5032 1179.36L84.9632 1211.8" stroke="white" stroke-width="1.5"/>
<path d="M98.0604 1217.69C97.9317 1217.33 119.022 1203.76 119.022 1203.76C119.022 1203.76 113.754 1219.6 107.589 1227.13C99.8943 1236.53 82.6195 1242.97 82.6195 1242.97L83.7589 1236.46" stroke="white" stroke-width="1.5"/>
<path d="M99.1658 1200.07L83.7149 1235.87" stroke="white" stroke-width="1.5"/>
<path d="M93.9252 1190.85L111.956 1168.03C111.956 1168.03 110.18 1190.34 105.471 1203.03C99.8346 1218.23 83.7666 1236.46 83.7666 1236.46L84.9682 1211.8" stroke="white" stroke-width="1.5"/>
<path d="M117.938 1529.94L103.162 1558.41" stroke="white" stroke-width="1.5"/>
<path d="M134.316 1503.15C134.316 1503.15 119.631 1507.48 113.996 1516.57C112.976 1518.21 111.63 1521.01 111.63 1521.01" stroke="white" stroke-width="1.5"/>
<path d="M82.9886 1592.34L99.63 1573.07" stroke="white" stroke-width="1.5"/>
<path d="M133.086 1504.24C133.961 1520.42 131.942 1529 124.212 1541.97C117.103 1553.89 99.5554 1565.07 99.5554 1565.07" stroke="white" stroke-width="1.5"/>
<path d="M102.121 1512.99L93.7923 1540.24" stroke="white" stroke-width="1.5"/>
<path d="M94.0008 1540.35C94.0008 1540.35 109.646 1523.63 112.685 1508.77C115.058 1497.18 111.57 1477.81 111.57 1477.81C111.57 1477.81 97.6748 1488.48 95.0493 1499.7C93.8459 1504.85 94.2228 1513.48 94.2228 1513.48" stroke="white" stroke-width="1.5"/>
<path d="M76.3905 1524.47C77.0655 1510.74 86.8676 1492.09 86.8676 1492.09C86.8676 1492.09 96.1247 1513.19 95.7879 1527.35C95.4433 1541.84 84.7595 1561.44 84.7595 1561.44C84.7595 1561.44 75.6678 1539.17 76.3905 1524.47Z" stroke="white" stroke-width="1.5"/>
<path d="M86.5032 1529.11L84.9632 1561.54" stroke="white" stroke-width="1.5"/>
<path d="M98.0604 1567.43C97.9317 1567.08 119.022 1553.5 119.022 1553.5C119.022 1553.5 113.754 1569.35 107.589 1576.88C99.8943 1586.27 82.6195 1592.72 82.6195 1592.72L83.7589 1586.2" stroke="white" stroke-width="1.5"/>
<path d="M99.1658 1549.82L83.7149 1585.61" stroke="white" stroke-width="1.5"/>
<path d="M93.9252 1540.59L111.956 1517.77C111.956 1517.77 110.18 1540.08 105.471 1552.77C99.8346 1567.97 83.7666 1586.2 83.7666 1586.2L84.9682 1561.54" stroke="white" stroke-width="1.5"/>
<path d="M70.8444 -13C70.8444 -13 117.716 97.1212 117.716 173.71C117.716 250.299 70.0899 283.837 70.8444 360.42C71.5705 434.117 114.794 465.743 117.716 539.351C121.166 626.221 71.4629 666.867 70.8444 753.845C70.2051 843.753 119.772 886.246 117.716 976.119C115.861 1057.23 70.7953 1093.91 70.8444 1175.05C70.8934 1255.99 119.603 1292.53 117.716 1373.43C115.999 1447.1 61.8956 1479.56 70.8444 1552.36C78.9927 1618.66 145.492 1695.18 145.492 1695.18" stroke="white" stroke-width="3"/>
</g>
<defs>
<clipPath id="clip0_722_1741">
<rect width="500" height="1664" fill="white"/>
</clipPath>
</defs>
</svg>
