<svg width="1687" height="1558" viewBox="0 0 1687 1558" fill="none" xmlns="http://www.w3.org/2000/svg">
<g clip-path="url(#clip0_722_362)">
<rect width="1687" height="1558" fill="#1F545B"/>
<path d="M232.69 169.295L249.684 195.262" stroke="white" stroke-width="1.5"/>
<path d="M213.853 144.862C213.853 144.862 230.742 148.812 237.223 157.1C238.397 158.602 239.944 161.155 239.944 161.155" stroke="white" stroke-width="1.5"/>
<path d="M272.885 226.209L253.746 208.63" stroke="white" stroke-width="1.5"/>
<path d="M215.268 145.85C214.262 160.611 216.584 168.439 225.475 180.264C233.651 191.14 253.832 201.337 253.832 201.337" stroke="white" stroke-width="1.5"/>
<path d="M250.88 153.841L260.46 178.688" stroke="white" stroke-width="1.5"/>
<path d="M260.22 178.789C260.22 178.789 242.227 163.538 238.732 149.993C236.002 139.416 240.014 121.751 240.014 121.751C240.014 121.751 255.995 131.48 259.014 141.719C260.398 146.412 259.965 154.284 259.965 154.284" stroke="white" stroke-width="1.5"/>
<path d="M280.473 164.309C279.697 151.789 268.424 134.771 268.424 134.771C268.424 134.771 257.777 154.017 258.164 166.933C258.561 180.15 270.848 198.026 270.848 198.026C270.848 198.026 281.304 177.715 280.473 164.309Z" stroke="white" stroke-width="1.5"/>
<path d="M268.842 168.535L270.613 198.121" stroke="white" stroke-width="1.5"/>
<path d="M255.55 203.492C255.698 203.172 231.442 190.789 231.442 190.789C231.442 190.789 237.502 205.239 244.592 212.107C253.441 220.679 273.309 226.556 273.309 226.556L271.998 220.615" stroke="white" stroke-width="1.5"/>
<path d="M254.279 187.43L272.049 220.075" stroke="white" stroke-width="1.5"/>
<path d="M260.307 179.009L239.57 158.195C239.57 158.195 241.613 178.542 247.029 190.124C253.511 203.985 271.991 220.612 271.991 220.612L270.609 198.121" stroke="white" stroke-width="1.5"/>
<path d="M230.69 525.295L247.684 551.262" stroke="white" stroke-width="1.5"/>
<path d="M211.853 500.862C211.853 500.862 228.742 504.812 235.223 513.1C236.397 514.602 237.944 517.155 237.944 517.155" stroke="white" stroke-width="1.5"/>
<path d="M270.885 582.209L251.746 564.63" stroke="white" stroke-width="1.5"/>
<path d="M213.268 501.85C212.262 516.611 214.584 524.439 223.475 536.264C231.651 547.14 251.832 557.337 251.832 557.337" stroke="white" stroke-width="1.5"/>
<path d="M248.88 509.841L258.46 534.688" stroke="white" stroke-width="1.5"/>
<path d="M258.22 534.789C258.22 534.789 240.227 519.538 236.732 505.993C234.002 495.416 238.014 477.751 238.014 477.751C238.014 477.751 253.995 487.48 257.014 497.719C258.398 502.412 257.965 510.284 257.965 510.284" stroke="white" stroke-width="1.5"/>
<path d="M278.473 520.309C277.697 507.789 266.424 490.771 266.424 490.771C266.424 490.771 255.777 510.017 256.164 522.933C256.561 536.15 268.848 554.026 268.848 554.026C268.848 554.026 279.304 533.715 278.473 520.309Z" stroke="white" stroke-width="1.5"/>
<path d="M266.842 524.535L268.613 554.121" stroke="white" stroke-width="1.5"/>
<path d="M253.551 559.492C253.699 559.172 229.443 546.789 229.443 546.789C229.443 546.789 235.502 561.239 242.592 568.107C251.441 576.679 271.309 582.556 271.309 582.556L269.999 576.615" stroke="white" stroke-width="1.5"/>
<path d="M252.279 543.43L270.049 576.075" stroke="white" stroke-width="1.5"/>
<path d="M258.307 535.009L237.57 514.195C237.57 514.195 239.613 534.542 245.029 546.124C251.511 559.985 269.991 576.612 269.991 576.612L268.609 554.121" stroke="white" stroke-width="1.5"/>
<path d="M235.69 895.295L252.684 921.262" stroke="white" stroke-width="1.5"/>
<path d="M216.853 870.862C216.853 870.862 233.742 874.812 240.223 883.1C241.397 884.602 242.944 887.155 242.944 887.155" stroke="white" stroke-width="1.5"/>
<path d="M275.885 952.209L256.746 934.63" stroke="white" stroke-width="1.5"/>
<path d="M218.268 871.85C217.262 886.611 219.584 894.439 228.475 906.264C236.651 917.14 256.832 927.337 256.832 927.337" stroke="white" stroke-width="1.5"/>
<path d="M253.88 879.841L263.46 904.688" stroke="white" stroke-width="1.5"/>
<path d="M263.22 904.789C263.22 904.789 245.227 889.538 241.732 875.993C239.002 865.416 243.014 847.751 243.014 847.751C243.014 847.751 258.995 857.48 262.014 867.719C263.398 872.412 262.965 880.284 262.965 880.284" stroke="white" stroke-width="1.5"/>
<path d="M283.473 890.309C282.697 877.789 271.424 860.771 271.424 860.771C271.424 860.771 260.777 880.017 261.164 892.933C261.561 906.15 273.848 924.026 273.848 924.026C273.848 924.026 284.304 903.715 283.473 890.309Z" stroke="white" stroke-width="1.5"/>
<path d="M271.842 894.535L273.613 924.121" stroke="white" stroke-width="1.5"/>
<path d="M258.551 929.492C258.699 929.172 234.443 916.789 234.443 916.789C234.443 916.789 240.502 931.239 247.592 938.107C256.441 946.679 276.309 952.556 276.309 952.556L274.999 946.615" stroke="white" stroke-width="1.5"/>
<path d="M257.279 913.43L275.049 946.075" stroke="white" stroke-width="1.5"/>
<path d="M263.307 905.009L242.57 884.195C242.57 884.195 244.613 904.542 250.029 916.124C256.511 929.985 274.991 946.612 274.991 946.612L273.609 924.121" stroke="white" stroke-width="1.5"/>
<path d="M231.69 1254.3L248.684 1280.26" stroke="white" stroke-width="1.5"/>
<path d="M212.853 1229.86C212.853 1229.86 229.742 1233.81 236.223 1242.1C237.397 1243.6 238.944 1246.16 238.944 1246.16" stroke="white" stroke-width="1.5"/>
<path d="M271.885 1311.21L252.746 1293.63" stroke="white" stroke-width="1.5"/>
<path d="M214.268 1230.85C213.262 1245.61 215.584 1253.44 224.475 1265.26C232.651 1276.14 252.832 1286.34 252.832 1286.34" stroke="white" stroke-width="1.5"/>
<path d="M249.88 1238.84L259.46 1263.69" stroke="white" stroke-width="1.5"/>
<path d="M259.22 1263.79C259.22 1263.79 241.227 1248.54 237.732 1234.99C235.002 1224.42 239.014 1206.75 239.014 1206.75C239.014 1206.75 254.995 1216.48 258.014 1226.72C259.398 1231.41 258.965 1239.28 258.965 1239.28" stroke="white" stroke-width="1.5"/>
<path d="M279.473 1249.31C278.697 1236.79 267.424 1219.77 267.424 1219.77C267.424 1219.77 256.777 1239.02 257.164 1251.93C257.561 1265.15 269.848 1283.03 269.848 1283.03C269.848 1283.03 280.304 1262.72 279.473 1249.31Z" stroke="white" stroke-width="1.5"/>
<path d="M267.842 1253.54L269.613 1283.12" stroke="white" stroke-width="1.5"/>
<path d="M254.551 1288.49C254.699 1288.17 230.443 1275.79 230.443 1275.79C230.443 1275.79 236.502 1290.24 243.592 1297.11C252.441 1305.68 272.309 1311.56 272.309 1311.56L270.999 1305.61" stroke="white" stroke-width="1.5"/>
<path d="M253.279 1272.43L271.049 1305.08" stroke="white" stroke-width="1.5"/>
<path d="M259.307 1264.01L238.57 1243.2C238.57 1243.2 240.613 1263.54 246.029 1275.12C252.511 1288.98 270.991 1305.61 270.991 1305.61L269.609 1283.12" stroke="white" stroke-width="1.5"/>
<path d="M291.182 336.295L274.188 362.262" stroke="white" stroke-width="1.5"/>
<path d="M310.019 311.862C310.019 311.862 293.129 315.812 286.649 324.1C285.475 325.602 283.927 328.155 283.927 328.155" stroke="white" stroke-width="1.5"/>
<path d="M250.986 393.209L270.125 375.63" stroke="white" stroke-width="1.5"/>
<path d="M308.603 312.85C309.609 327.611 307.287 335.439 298.397 347.264C290.22 358.14 270.04 368.337 270.04 368.337" stroke="white" stroke-width="1.5"/>
<path d="M272.991 320.841L263.412 345.688" stroke="white" stroke-width="1.5"/>
<path d="M263.651 345.789C263.651 345.789 281.644 330.538 285.14 316.993C287.869 306.416 283.857 288.751 283.857 288.751C283.857 288.751 267.877 298.48 264.857 308.719C263.473 313.412 263.906 321.284 263.906 321.284" stroke="white" stroke-width="1.5"/>
<path d="M243.398 331.309C244.175 318.789 255.448 301.771 255.448 301.771C255.448 301.771 266.094 321.017 265.707 333.933C265.311 347.15 253.023 365.026 253.023 365.026C253.023 365.026 242.567 344.715 243.398 331.309Z" stroke="white" stroke-width="1.5"/>
<path d="M255.029 335.535L253.258 365.121" stroke="white" stroke-width="1.5"/>
<path d="M268.321 370.492C268.173 370.172 292.429 357.789 292.429 357.789C292.429 357.789 286.37 372.239 279.279 379.107C270.43 387.679 250.562 393.556 250.562 393.556L251.873 387.615" stroke="white" stroke-width="1.5"/>
<path d="M269.592 354.43L251.822 387.075" stroke="white" stroke-width="1.5"/>
<path d="M263.564 346.009L284.301 325.195C284.301 325.195 282.259 345.542 276.842 357.124C270.361 370.985 251.881 387.612 251.881 387.612L253.263 365.121" stroke="white" stroke-width="1.5"/>
<path d="M284.182 692.295L267.188 718.262" stroke="white" stroke-width="1.5"/>
<path d="M303.019 667.862C303.019 667.862 286.129 671.812 279.649 680.1C278.475 681.602 276.927 684.155 276.927 684.155" stroke="white" stroke-width="1.5"/>
<path d="M243.986 749.209L263.125 731.63" stroke="white" stroke-width="1.5"/>
<path d="M301.603 668.85C302.609 683.611 300.287 691.439 291.397 703.264C283.22 714.14 263.04 724.337 263.04 724.337" stroke="white" stroke-width="1.5"/>
<path d="M265.991 676.841L256.412 701.688" stroke="white" stroke-width="1.5"/>
<path d="M256.651 701.789C256.651 701.789 274.644 686.538 278.14 672.993C280.869 662.416 276.857 644.751 276.857 644.751C276.857 644.751 260.877 654.48 257.857 664.719C256.473 669.412 256.906 677.284 256.906 677.284" stroke="white" stroke-width="1.5"/>
<path d="M236.398 687.309C237.175 674.789 248.448 657.771 248.448 657.771C248.448 657.771 259.094 677.017 258.707 689.933C258.311 703.15 246.023 721.026 246.023 721.026C246.023 721.026 235.567 700.715 236.398 687.309Z" stroke="white" stroke-width="1.5"/>
<path d="M248.029 691.535L246.258 721.121" stroke="white" stroke-width="1.5"/>
<path d="M261.321 726.492C261.173 726.172 285.429 713.789 285.429 713.789C285.429 713.789 279.37 728.239 272.279 735.107C263.43 743.679 243.562 749.556 243.562 749.556L244.873 743.615" stroke="white" stroke-width="1.5"/>
<path d="M262.592 710.43L244.822 743.075" stroke="white" stroke-width="1.5"/>
<path d="M256.564 702.009L277.301 681.195C277.301 681.195 275.259 701.542 269.842 713.124C263.361 726.985 244.881 743.612 244.881 743.612L246.263 721.121" stroke="white" stroke-width="1.5"/>
<path d="M289.182 1084.3L272.188 1110.26" stroke="white" stroke-width="1.5"/>
<path d="M308.019 1059.86C308.019 1059.86 291.129 1063.81 284.649 1072.1C283.475 1073.6 281.927 1076.16 281.927 1076.16" stroke="white" stroke-width="1.5"/>
<path d="M248.986 1141.21L268.125 1123.63" stroke="white" stroke-width="1.5"/>
<path d="M306.603 1060.85C307.609 1075.61 305.287 1083.44 296.397 1095.26C288.22 1106.14 268.04 1116.34 268.04 1116.34" stroke="white" stroke-width="1.5"/>
<path d="M270.991 1068.84L261.412 1093.69" stroke="white" stroke-width="1.5"/>
<path d="M261.651 1093.79C261.651 1093.79 279.644 1078.54 283.14 1064.99C285.869 1054.42 281.857 1036.75 281.857 1036.75C281.857 1036.75 265.877 1046.48 262.857 1056.72C261.473 1061.41 261.906 1069.28 261.906 1069.28" stroke="white" stroke-width="1.5"/>
<path d="M241.398 1079.31C242.175 1066.79 253.448 1049.77 253.448 1049.77C253.448 1049.77 264.094 1069.02 263.707 1081.93C263.311 1095.15 251.023 1113.03 251.023 1113.03C251.023 1113.03 240.567 1092.72 241.398 1079.31Z" stroke="white" stroke-width="1.5"/>
<path d="M253.029 1083.54L251.258 1113.12" stroke="white" stroke-width="1.5"/>
<path d="M266.321 1118.49C266.173 1118.17 290.429 1105.79 290.429 1105.79C290.429 1105.79 284.37 1120.24 277.279 1127.11C268.43 1135.68 248.562 1141.56 248.562 1141.56L249.873 1135.61" stroke="white" stroke-width="1.5"/>
<path d="M267.592 1102.43L249.822 1135.08" stroke="white" stroke-width="1.5"/>
<path d="M261.564 1094.01L282.301 1073.2C282.301 1073.2 280.259 1093.54 274.842 1105.12C268.361 1118.98 249.881 1135.61 249.881 1135.61L251.263 1113.12" stroke="white" stroke-width="1.5"/>
<path d="M289.182 1403.3L272.188 1429.26" stroke="white" stroke-width="1.5"/>
<path d="M308.019 1378.86C308.019 1378.86 291.129 1382.81 284.649 1391.1C283.475 1392.6 281.927 1395.16 281.927 1395.16" stroke="white" stroke-width="1.5"/>
<path d="M248.986 1460.21L268.125 1442.63" stroke="white" stroke-width="1.5"/>
<path d="M306.603 1379.85C307.609 1394.61 305.287 1402.44 296.397 1414.26C288.22 1425.14 268.04 1435.34 268.04 1435.34" stroke="white" stroke-width="1.5"/>
<path d="M270.991 1387.84L261.412 1412.69" stroke="white" stroke-width="1.5"/>
<path d="M261.651 1412.79C261.651 1412.79 279.644 1397.54 283.14 1383.99C285.869 1373.42 281.857 1355.75 281.857 1355.75C281.857 1355.75 265.877 1365.48 262.857 1375.72C261.473 1380.41 261.906 1388.28 261.906 1388.28" stroke="white" stroke-width="1.5"/>
<path d="M241.398 1398.31C242.175 1385.79 253.448 1368.77 253.448 1368.77C253.448 1368.77 264.094 1388.02 263.707 1400.93C263.311 1414.15 251.023 1432.03 251.023 1432.03C251.023 1432.03 240.567 1411.72 241.398 1398.31Z" stroke="white" stroke-width="1.5"/>
<path d="M253.029 1402.54L251.258 1432.12" stroke="white" stroke-width="1.5"/>
<path d="M266.321 1437.49C266.173 1437.17 290.429 1424.79 290.429 1424.79C290.429 1424.79 284.37 1439.24 277.279 1446.11C268.43 1454.68 248.562 1460.56 248.562 1460.56L249.873 1454.61" stroke="white" stroke-width="1.5"/>
<path d="M267.592 1421.43L249.822 1454.08" stroke="white" stroke-width="1.5"/>
<path d="M261.564 1413.01L282.301 1392.2C282.301 1392.2 280.259 1412.54 274.842 1424.12C268.361 1437.98 249.881 1454.61 249.881 1454.61L251.263 1432.12" stroke="white" stroke-width="1.5"/>
<path d="M235.02 -4C235.02 -4 288.927 96.4398 288.927 166.295C288.927 236.151 234.152 266.741 235.02 336.591C235.855 403.808 285.565 432.654 288.927 499.79C292.894 579.023 235.731 616.096 235.02 695.427C234.285 777.431 291.291 816.188 288.927 898.16C286.793 972.141 234.963 1005.59 235.02 1079.61C235.076 1153.43 291.096 1186.75 288.927 1260.54C286.951 1327.74 224.728 1357.34 235.02 1423.74C244.391 1484.21 320.872 1554 320.872 1554" stroke="white" stroke-width="3"/>
<path d="M1455.05 173.295L1438.06 199.262" stroke="white" stroke-width="1.5"/>
<path d="M1473.89 148.862C1473.89 148.862 1457 152.812 1450.52 161.1C1449.35 162.602 1447.8 165.155 1447.8 165.155" stroke="white" stroke-width="1.5"/>
<path d="M1414.86 230.209L1434 212.63" stroke="white" stroke-width="1.5"/>
<path d="M1472.48 149.85C1473.48 164.611 1471.16 172.439 1462.27 184.264C1454.09 195.14 1433.91 205.337 1433.91 205.337" stroke="white" stroke-width="1.5"/>
<path d="M1436.86 157.841L1427.28 182.688" stroke="white" stroke-width="1.5"/>
<path d="M1427.52 182.789C1427.52 182.789 1445.52 167.538 1449.01 153.993C1451.74 143.416 1447.73 125.751 1447.73 125.751C1447.73 125.751 1431.75 135.48 1428.73 145.719C1427.35 150.412 1427.78 158.284 1427.78 158.284" stroke="white" stroke-width="1.5"/>
<path d="M1407.27 168.309C1408.05 155.789 1419.32 138.771 1419.32 138.771C1419.32 138.771 1429.97 158.017 1429.58 170.933C1429.18 184.15 1416.9 202.026 1416.9 202.026C1416.9 202.026 1406.44 181.715 1407.27 168.309Z" stroke="white" stroke-width="1.5"/>
<path d="M1418.9 172.535L1417.13 202.121" stroke="white" stroke-width="1.5"/>
<path d="M1432.19 207.492C1432.04 207.172 1456.3 194.789 1456.3 194.789C1456.3 194.789 1450.24 209.239 1443.15 216.107C1434.3 224.679 1414.43 230.556 1414.43 230.556L1415.74 224.615" stroke="white" stroke-width="1.5"/>
<path d="M1433.46 191.43L1415.69 224.075" stroke="white" stroke-width="1.5"/>
<path d="M1427.44 183.009L1448.17 162.195C1448.17 162.195 1446.13 182.542 1440.71 194.124C1434.23 207.985 1415.75 224.612 1415.75 224.612L1417.13 202.121" stroke="white" stroke-width="1.5"/>
<path d="M1457.05 529.295L1440.06 555.262" stroke="white" stroke-width="1.5"/>
<path d="M1475.89 504.862C1475.89 504.862 1459 508.812 1452.52 517.1C1451.35 518.602 1449.8 521.155 1449.8 521.155" stroke="white" stroke-width="1.5"/>
<path d="M1416.86 586.209L1436 568.63" stroke="white" stroke-width="1.5"/>
<path d="M1474.48 505.85C1475.48 520.611 1473.16 528.439 1464.27 540.264C1456.09 551.14 1435.91 561.337 1435.91 561.337" stroke="white" stroke-width="1.5"/>
<path d="M1438.86 513.841L1429.28 538.688" stroke="white" stroke-width="1.5"/>
<path d="M1429.52 538.789C1429.52 538.789 1447.52 523.538 1451.01 509.993C1453.74 499.416 1449.73 481.751 1449.73 481.751C1449.73 481.751 1433.75 491.48 1430.73 501.719C1429.35 506.412 1429.78 514.284 1429.78 514.284" stroke="white" stroke-width="1.5"/>
<path d="M1409.27 524.309C1410.05 511.789 1421.32 494.771 1421.32 494.771C1421.32 494.771 1431.97 514.017 1431.58 526.933C1431.18 540.15 1418.9 558.026 1418.9 558.026C1418.9 558.026 1408.44 537.715 1409.27 524.309Z" stroke="white" stroke-width="1.5"/>
<path d="M1420.9 528.535L1419.13 558.121" stroke="white" stroke-width="1.5"/>
<path d="M1434.19 563.492C1434.04 563.172 1458.3 550.789 1458.3 550.789C1458.3 550.789 1452.24 565.239 1445.15 572.107C1436.3 580.679 1416.43 586.556 1416.43 586.556L1417.74 580.615" stroke="white" stroke-width="1.5"/>
<path d="M1435.46 547.43L1417.69 580.075" stroke="white" stroke-width="1.5"/>
<path d="M1429.44 539.009L1450.17 518.195C1450.17 518.195 1448.13 538.542 1442.71 550.124C1436.23 563.985 1417.75 580.612 1417.75 580.612L1419.13 558.121" stroke="white" stroke-width="1.5"/>
<path d="M1452.05 899.295L1435.06 925.262" stroke="white" stroke-width="1.5"/>
<path d="M1470.89 874.862C1470.89 874.862 1454 878.812 1447.52 887.1C1446.35 888.602 1444.8 891.155 1444.8 891.155" stroke="white" stroke-width="1.5"/>
<path d="M1411.86 956.209L1431 938.63" stroke="white" stroke-width="1.5"/>
<path d="M1469.48 875.85C1470.48 890.611 1468.16 898.439 1459.27 910.264C1451.09 921.14 1430.91 931.337 1430.91 931.337" stroke="white" stroke-width="1.5"/>
<path d="M1433.86 883.841L1424.28 908.688" stroke="white" stroke-width="1.5"/>
<path d="M1424.52 908.789C1424.52 908.789 1442.52 893.538 1446.01 879.993C1448.74 869.416 1444.73 851.751 1444.73 851.751C1444.73 851.751 1428.75 861.48 1425.73 871.719C1424.35 876.412 1424.78 884.284 1424.78 884.284" stroke="white" stroke-width="1.5"/>
<path d="M1404.27 894.309C1405.05 881.789 1416.32 864.771 1416.32 864.771C1416.32 864.771 1426.97 884.017 1426.58 896.933C1426.18 910.15 1413.9 928.026 1413.9 928.026C1413.9 928.026 1403.44 907.715 1404.27 894.309Z" stroke="white" stroke-width="1.5"/>
<path d="M1415.9 898.535L1414.13 928.121" stroke="white" stroke-width="1.5"/>
<path d="M1429.19 933.492C1429.04 933.172 1453.3 920.789 1453.3 920.789C1453.3 920.789 1447.24 935.239 1440.15 942.107C1431.3 950.679 1411.43 956.556 1411.43 956.556L1412.74 950.615" stroke="white" stroke-width="1.5"/>
<path d="M1430.46 917.43L1412.69 950.075" stroke="white" stroke-width="1.5"/>
<path d="M1424.44 909.009L1445.17 888.195C1445.17 888.195 1443.13 908.542 1437.71 920.124C1431.23 933.985 1412.75 950.612 1412.75 950.612L1414.13 928.121" stroke="white" stroke-width="1.5"/>
<path d="M1456.05 1258.3L1439.06 1284.26" stroke="white" stroke-width="1.5"/>
<path d="M1474.89 1233.86C1474.89 1233.86 1458 1237.81 1451.52 1246.1C1450.35 1247.6 1448.8 1250.16 1448.8 1250.16" stroke="white" stroke-width="1.5"/>
<path d="M1415.86 1315.21L1435 1297.63" stroke="white" stroke-width="1.5"/>
<path d="M1473.48 1234.85C1474.48 1249.61 1472.16 1257.44 1463.27 1269.26C1455.09 1280.14 1434.91 1290.34 1434.91 1290.34" stroke="white" stroke-width="1.5"/>
<path d="M1437.86 1242.84L1428.28 1267.69" stroke="white" stroke-width="1.5"/>
<path d="M1428.52 1267.79C1428.52 1267.79 1446.52 1252.54 1450.01 1238.99C1452.74 1228.42 1448.73 1210.75 1448.73 1210.75C1448.73 1210.75 1432.75 1220.48 1429.73 1230.72C1428.35 1235.41 1428.78 1243.28 1428.78 1243.28" stroke="white" stroke-width="1.5"/>
<path d="M1408.27 1253.31C1409.05 1240.79 1420.32 1223.77 1420.32 1223.77C1420.32 1223.77 1430.97 1243.02 1430.58 1255.93C1430.18 1269.15 1417.9 1287.03 1417.9 1287.03C1417.9 1287.03 1407.44 1266.72 1408.27 1253.31Z" stroke="white" stroke-width="1.5"/>
<path d="M1419.9 1257.54L1418.13 1287.12" stroke="white" stroke-width="1.5"/>
<path d="M1433.19 1292.49C1433.04 1292.17 1457.3 1279.79 1457.3 1279.79C1457.3 1279.79 1451.24 1294.24 1444.15 1301.11C1435.3 1309.68 1415.43 1315.56 1415.43 1315.56L1416.74 1309.61" stroke="white" stroke-width="1.5"/>
<path d="M1434.46 1276.43L1416.69 1309.08" stroke="white" stroke-width="1.5"/>
<path d="M1428.44 1268.01L1449.17 1247.2C1449.17 1247.2 1447.13 1267.54 1441.71 1279.12C1435.23 1292.98 1416.75 1309.61 1416.75 1309.61L1418.13 1287.12" stroke="white" stroke-width="1.5"/>
<path d="M1396.56 340.295L1413.56 366.262" stroke="white" stroke-width="1.5"/>
<path d="M1377.72 315.862C1377.72 315.862 1394.61 319.812 1401.09 328.1C1402.27 329.602 1403.82 332.155 1403.82 332.155" stroke="white" stroke-width="1.5"/>
<path d="M1436.76 397.209L1417.62 379.63" stroke="white" stroke-width="1.5"/>
<path d="M1379.14 316.85C1378.13 331.611 1380.46 339.439 1389.35 351.264C1397.52 362.14 1417.7 372.337 1417.7 372.337" stroke="white" stroke-width="1.5"/>
<path d="M1414.75 324.841L1424.33 349.688" stroke="white" stroke-width="1.5"/>
<path d="M1424.09 349.789C1424.09 349.789 1406.1 334.538 1402.6 320.993C1399.87 310.416 1403.89 292.751 1403.89 292.751C1403.89 292.751 1419.87 302.48 1422.89 312.719C1424.27 317.412 1423.84 325.284 1423.84 325.284" stroke="white" stroke-width="1.5"/>
<path d="M1444.35 335.309C1443.57 322.789 1432.3 305.771 1432.3 305.771C1432.3 305.771 1421.65 325.017 1422.04 337.933C1422.43 351.15 1434.72 369.026 1434.72 369.026C1434.72 369.026 1445.18 348.715 1444.35 335.309Z" stroke="white" stroke-width="1.5"/>
<path d="M1432.71 339.535L1434.49 369.121" stroke="white" stroke-width="1.5"/>
<path d="M1419.42 374.492C1419.57 374.172 1395.31 361.789 1395.31 361.789C1395.31 361.789 1401.37 376.239 1408.46 383.107C1417.31 391.679 1437.18 397.556 1437.18 397.556L1435.87 391.615" stroke="white" stroke-width="1.5"/>
<path d="M1418.15 358.43L1435.92 391.075" stroke="white" stroke-width="1.5"/>
<path d="M1424.18 350.009L1403.44 329.195C1403.44 329.195 1405.48 349.542 1410.9 361.124C1417.38 374.985 1435.86 391.612 1435.86 391.612L1434.48 369.121" stroke="white" stroke-width="1.5"/>
<path d="M1403.56 696.295L1420.56 722.262" stroke="white" stroke-width="1.5"/>
<path d="M1384.72 671.862C1384.72 671.862 1401.61 675.812 1408.09 684.1C1409.27 685.602 1410.82 688.155 1410.82 688.155" stroke="white" stroke-width="1.5"/>
<path d="M1443.76 753.209L1424.62 735.63" stroke="white" stroke-width="1.5"/>
<path d="M1386.14 672.85C1385.13 687.611 1387.46 695.439 1396.35 707.264C1404.52 718.14 1424.7 728.337 1424.7 728.337" stroke="white" stroke-width="1.5"/>
<path d="M1421.75 680.841L1431.33 705.688" stroke="white" stroke-width="1.5"/>
<path d="M1431.09 705.789C1431.09 705.789 1413.1 690.538 1409.6 676.993C1406.87 666.416 1410.89 648.751 1410.89 648.751C1410.89 648.751 1426.87 658.48 1429.89 668.719C1431.27 673.412 1430.84 681.284 1430.84 681.284" stroke="white" stroke-width="1.5"/>
<path d="M1451.35 691.309C1450.57 678.789 1439.3 661.771 1439.3 661.771C1439.3 661.771 1428.65 681.017 1429.04 693.933C1429.43 707.15 1441.72 725.026 1441.72 725.026C1441.72 725.026 1452.18 704.715 1451.35 691.309Z" stroke="white" stroke-width="1.5"/>
<path d="M1439.71 695.535L1441.49 725.121" stroke="white" stroke-width="1.5"/>
<path d="M1426.42 730.492C1426.57 730.172 1402.31 717.789 1402.31 717.789C1402.31 717.789 1408.37 732.239 1415.46 739.107C1424.31 747.679 1444.18 753.556 1444.18 753.556L1442.87 747.615" stroke="white" stroke-width="1.5"/>
<path d="M1425.15 714.43L1442.92 747.075" stroke="white" stroke-width="1.5"/>
<path d="M1431.18 706.009L1410.44 685.195C1410.44 685.195 1412.48 705.542 1417.9 717.124C1424.38 730.985 1442.86 747.612 1442.86 747.612L1441.48 725.121" stroke="white" stroke-width="1.5"/>
<path d="M1398.56 1088.3L1415.56 1114.26" stroke="white" stroke-width="1.5"/>
<path d="M1379.72 1063.86C1379.72 1063.86 1396.61 1067.81 1403.09 1076.1C1404.27 1077.6 1405.82 1080.16 1405.82 1080.16" stroke="white" stroke-width="1.5"/>
<path d="M1438.76 1145.21L1419.62 1127.63" stroke="white" stroke-width="1.5"/>
<path d="M1381.14 1064.85C1380.13 1079.61 1382.46 1087.44 1391.35 1099.26C1399.52 1110.14 1419.7 1120.34 1419.7 1120.34" stroke="white" stroke-width="1.5"/>
<path d="M1416.75 1072.84L1426.33 1097.69" stroke="white" stroke-width="1.5"/>
<path d="M1426.09 1097.79C1426.09 1097.79 1408.1 1082.54 1404.6 1068.99C1401.87 1058.42 1405.89 1040.75 1405.89 1040.75C1405.89 1040.75 1421.87 1050.48 1424.89 1060.72C1426.27 1065.41 1425.84 1073.28 1425.84 1073.28" stroke="white" stroke-width="1.5"/>
<path d="M1446.35 1083.31C1445.57 1070.79 1434.3 1053.77 1434.3 1053.77C1434.3 1053.77 1423.65 1073.02 1424.04 1085.93C1424.43 1099.15 1436.72 1117.03 1436.72 1117.03C1436.72 1117.03 1447.18 1096.72 1446.35 1083.31Z" stroke="white" stroke-width="1.5"/>
<path d="M1434.71 1087.54L1436.49 1117.12" stroke="white" stroke-width="1.5"/>
<path d="M1421.42 1122.49C1421.57 1122.17 1397.31 1109.79 1397.31 1109.79C1397.31 1109.79 1403.37 1124.24 1410.46 1131.11C1419.31 1139.68 1439.18 1145.56 1439.18 1145.56L1437.87 1139.61" stroke="white" stroke-width="1.5"/>
<path d="M1420.15 1106.43L1437.92 1139.08" stroke="white" stroke-width="1.5"/>
<path d="M1426.18 1098.01L1405.44 1077.2C1405.44 1077.2 1407.48 1097.54 1412.9 1109.12C1419.38 1122.98 1437.86 1139.61 1437.86 1139.61L1436.48 1117.12" stroke="white" stroke-width="1.5"/>
<path d="M1398.56 1407.3L1415.56 1433.26" stroke="white" stroke-width="1.5"/>
<path d="M1379.72 1382.86C1379.72 1382.86 1396.61 1386.81 1403.09 1395.1C1404.27 1396.6 1405.82 1399.16 1405.82 1399.16" stroke="white" stroke-width="1.5"/>
<path d="M1438.76 1464.21L1419.62 1446.63" stroke="white" stroke-width="1.5"/>
<path d="M1381.14 1383.85C1380.13 1398.61 1382.46 1406.44 1391.35 1418.26C1399.52 1429.14 1419.7 1439.34 1419.7 1439.34" stroke="white" stroke-width="1.5"/>
<path d="M1416.75 1391.84L1426.33 1416.69" stroke="white" stroke-width="1.5"/>
<path d="M1426.09 1416.79C1426.09 1416.79 1408.1 1401.54 1404.6 1387.99C1401.87 1377.42 1405.89 1359.75 1405.89 1359.75C1405.89 1359.75 1421.87 1369.48 1424.89 1379.72C1426.27 1384.41 1425.84 1392.28 1425.84 1392.28" stroke="white" stroke-width="1.5"/>
<path d="M1446.35 1402.31C1445.57 1389.79 1434.3 1372.77 1434.3 1372.77C1434.3 1372.77 1423.65 1392.02 1424.04 1404.93C1424.43 1418.15 1436.72 1436.03 1436.72 1436.03C1436.72 1436.03 1447.18 1415.72 1446.35 1402.31Z" stroke="white" stroke-width="1.5"/>
<path d="M1434.71 1406.54L1436.49 1436.12" stroke="white" stroke-width="1.5"/>
<path d="M1421.42 1441.49C1421.57 1441.17 1397.31 1428.79 1397.31 1428.79C1397.31 1428.79 1403.37 1443.24 1410.46 1450.11C1419.31 1458.68 1439.18 1464.56 1439.18 1464.56L1437.87 1458.61" stroke="white" stroke-width="1.5"/>
<path d="M1420.15 1425.43L1437.92 1458.08" stroke="white" stroke-width="1.5"/>
<path d="M1426.18 1417.01L1405.44 1396.2C1405.44 1396.2 1407.48 1416.54 1412.9 1428.12C1419.38 1441.98 1437.86 1458.61 1437.86 1458.61L1436.48 1436.12" stroke="white" stroke-width="1.5"/>
<path d="M1452.72 0C1452.72 0 1398.82 100.44 1398.82 170.295C1398.82 240.151 1453.59 270.741 1452.72 340.591C1451.89 407.808 1402.18 436.654 1398.82 503.79C1394.85 583.023 1452.01 620.096 1452.72 699.427C1453.46 781.431 1396.45 820.188 1398.82 902.16C1400.95 976.141 1452.78 1009.59 1452.72 1083.61C1452.67 1157.43 1396.65 1190.75 1398.82 1264.54C1400.79 1331.74 1463.02 1361.34 1452.72 1427.74C1443.35 1488.21 1366.87 1558 1366.87 1558" stroke="white" stroke-width="3"/>
</g>
<defs>
<clipPath id="clip0_722_362">
<rect width="1687" height="1558" fill="white"/>
</clipPath>
</defs>
</svg>
