<svg width="71" height="22" viewBox="0 0 71 22" fill="none" xmlns="http://www.w3.org/2000/svg">
<path d="M19.7963 10.5223C19.7963 15.7925 15.5775 20.0446 10.3982 20.0446C5.21885 20.0446 1 15.7925 1 10.5223C1 5.25205 5.21885 1 10.3982 1C15.5775 1 19.7963 5.25205 19.7963 10.5223Z" fill="#E0726B" stroke="black" stroke-width="2"/>
<path d="M44.8363 10.5223C44.8363 15.7925 40.6175 20.0446 35.4382 20.0446C30.2589 20.0446 26.04 15.7925 26.04 10.5223C26.04 5.25205 30.2589 1 35.4382 1C40.6175 1 44.8363 5.25205 44.8363 10.5223Z" fill="#F7BE4C" stroke="black" stroke-width="2"/>
<path d="M69.8778 10.5223C69.8778 15.7925 65.659 20.0446 60.4797 20.0446C55.3004 20.0446 51.0815 15.7925 51.0815 10.5223C51.0815 5.25205 55.3004 1 60.4797 1C65.659 1 69.8778 5.25205 69.8778 10.5223Z" fill="#64C554" stroke="black" stroke-width="2"/>
</svg>
