<svg width="886" height="510" viewBox="0 0 886 510" fill="none" xmlns="http://www.w3.org/2000/svg">
<g filter="url(#filter0_f_41_22808)">
<path d="M541.411 171.38C541.411 255.636 461.266 323.94 362.404 323.94C263.541 323.94 183.396 255.636 183.396 171.38C183.396 87.1236 263.541 18.8203 362.404 18.8203C461.266 18.8203 541.411 87.1236 541.411 171.38Z" fill="#CDEEEB"/>
<path d="M311.695 288.822C311.695 367.355 243.039 431.019 158.347 431.019C73.656 431.019 5 367.355 5 288.822C5 210.289 73.656 146.625 158.347 146.625C243.039 146.625 311.695 210.289 311.695 288.822Z" fill="#CDEEEB"/>
<path d="M582.955 362.511C582.955 441.045 500.349 504.709 398.449 504.709C296.55 504.709 213.944 441.045 213.944 362.511C213.944 283.978 296.55 220.314 398.449 220.314C500.349 220.314 582.955 283.978 582.955 362.511Z" fill="#CDEEEB"/>
<path d="M746.689 226.071C746.689 289.661 685.691 341.211 610.448 341.211C535.204 341.211 474.207 289.661 474.207 226.071C474.207 162.481 535.204 110.932 610.448 110.932C685.691 110.932 746.689 162.481 746.689 226.071Z" fill="#CDEEEB"/>
<path d="M863.99 337.181C863.99 398.545 811.199 448.29 746.078 448.29C680.956 448.29 628.165 398.545 628.165 337.181C628.165 275.817 680.956 226.071 746.078 226.071C811.199 226.071 863.99 275.817 863.99 337.181Z" fill="#CDEEEB"/>
<path d="M695.369 403.386C695.369 447.263 657.622 482.832 611.059 482.832C564.495 482.832 526.748 447.263 526.748 403.386C526.748 359.509 564.495 323.94 611.059 323.94C657.622 323.94 695.369 359.509 695.369 403.386Z" fill="#CDEEEB"/>
</g>
<g filter="url(#filter1_f_41_22808)">
<path d="M561.611 153.271C561.611 235.159 482.261 301.542 384.377 301.542C286.492 301.542 207.142 235.159 207.142 153.271C207.142 71.3832 286.492 5 384.377 5C482.261 5 561.611 71.3832 561.611 153.271Z" fill="white"/>
<path d="M334.17 267.412C334.17 343.737 266.194 405.612 182.341 405.612C98.488 405.612 30.5117 343.737 30.5117 267.412C30.5117 191.086 98.488 129.212 182.341 129.212C266.194 129.212 334.17 191.086 334.17 267.412Z" fill="white"/>
<path d="M602.744 339.029C602.744 415.355 520.956 477.229 420.065 477.229C319.175 477.229 237.387 415.355 237.387 339.029C237.387 262.704 319.175 200.83 420.065 200.83C520.956 200.83 602.744 262.704 602.744 339.029Z" fill="white"/>
<path d="M764.857 206.425C764.857 268.227 704.464 318.327 629.965 318.327C555.466 318.327 495.073 268.227 495.073 206.425C495.073 144.623 555.466 94.5221 629.965 94.5221C704.464 94.5221 764.857 144.623 764.857 206.425Z" fill="white"/>
<path d="M880.997 314.411C880.997 374.05 828.729 422.397 764.252 422.397C699.775 422.397 647.507 374.05 647.507 314.411C647.507 254.772 699.775 206.425 764.252 206.425C828.729 206.425 880.997 254.772 880.997 314.411Z" fill="white"/>
<path d="M714.045 378.755C714.045 421.398 676.672 455.968 630.57 455.968C584.467 455.968 547.094 421.398 547.094 378.755C547.094 336.111 584.467 301.542 630.57 301.542C676.672 301.542 714.045 336.111 714.045 378.755Z" fill="white"/>
</g>
<defs>
<filter id="filter0_f_41_22808" x="0" y="13.8203" width="868.992" height="495.889" filterUnits="userSpaceOnUse" color-interpolation-filters="sRGB">
<feFlood flood-opacity="0" result="BackgroundImageFix"/>
<feBlend mode="normal" in="SourceGraphic" in2="BackgroundImageFix" result="shape"/>
<feGaussianBlur stdDeviation="2.5" result="effect1_foregroundBlur_41_22808"/>
</filter>
<filter id="filter1_f_41_22808" x="25.5117" y="0" width="860.484" height="482.229" filterUnits="userSpaceOnUse" color-interpolation-filters="sRGB">
<feFlood flood-opacity="0" result="BackgroundImageFix"/>
<feBlend mode="normal" in="SourceGraphic" in2="BackgroundImageFix" result="shape"/>
<feGaussianBlur stdDeviation="2.5" result="effect1_foregroundBlur_41_22808"/>
</filter>
</defs>
</svg>
