<svg width="479" height="252" viewBox="0 0 479 252" fill="none" xmlns="http://www.w3.org/2000/svg">
<path d="M-1 246.883C3.07957 246.883 7.08068 246.52 11.1354 246.507C15.2647 246.492 19.3844 246.883 23.5138 246.883C24.8312 246.883 26.1869 247.105 27.4909 246.832C29.2121 246.472 29.7757 245.553 29.7374 243.847C29.6771 241.17 29.2121 238.509 29.2265 235.831C29.2399 233.153 29.7948 230.355 31.5045 228.293C31.981 229.237 31.9293 230.369 31.6528 231.39C31.3763 232.41 30.8922 233.361 30.5171 234.348C29.5556 236.88 29.3556 239.681 29.8742 242.335C30.2062 244.036 30.6549 246.055 32.5808 246.43C33.7758 246.663 34.8742 246.281 36.0567 246.132C37.5818 245.939 39.1365 245.985 40.6481 246.268C41.5886 246.444 42.5195 246.712 43.4753 246.732C44.4321 246.753 45.451 246.485 46.0777 245.762C46.8804 244.838 46.8344 243.475 46.7445 242.254C46.4508 238.282 46.1561 234.308 45.8624 230.336C45.7543 228.877 45.5074 227.185 44.2398 226.454C43.1318 225.816 41.7407 226.214 40.5304 226.626C39.3766 227.02 38.2228 227.413 37.0699 227.806C36.5389 227.987 35.7639 228.057 35.5965 227.521C35.4482 227.049 35.9658 226.657 36.4069 226.433C38.6198 225.306 40.8318 224.179 43.0448 223.051C44.5583 222.28 43.6217 221.274 43.8877 219.596C45.9877 206.345 48.0868 193.094 50.1869 179.844C51.6182 170.81 55.1821 164.234 57.8485 155.485C58.1652 154.446 58.4847 153.349 58.2503 152.289C58.0159 151.229 57.0133 150.254 55.9465 150.457C54.6979 150.694 54.2263 152.203 53.9976 153.454C50.0166 175.182 45.8854 196.883 41.603 218.555C41.3437 219.869 41.0653 221.225 40.2989 222.322C38.9088 224.311 36.2213 224.978 33.8007 224.807C29.7613 224.522 29.3729 217.619 29.1184 214.711C28.8495 211.64 28.862 208.545 29.1538 205.476C29.834 198.317 31.5954 191.128 32.8392 184.046C34.1509 176.581 35.4626 169.115 36.7743 161.65C37.1235 159.662 37.466 157.571 36.8058 155.664C36.1983 153.907 34.8235 152.547 33.6017 151.147C31.7217 148.99 30.1172 146.594 28.8409 144.033C28.2822 142.913 27.7751 141.661 28.0535 140.44C28.3061 139.334 29.1566 138.473 30.0101 137.726C32.2948 135.724 34.8799 134.065 37.6506 132.821C38.7289 132.337 40.1171 131.959 40.9887 132.758C41.426 133.158 41.6049 133.76 41.7608 134.331C42.8917 138.462 43.8083 142.652 44.5038 146.879C44.6358 147.68 44.7583 148.507 44.5622 149.294C44.366 150.081 43.7681 150.824 42.9654 150.938C42.0746 151.065 41.2738 150.421 40.6261 149.795C37.2574 146.535 34.2858 142.458 32.6469 138.041C31.9771 136.236 30.9831 134.57 30.3124 132.767C29.5537 130.725 29.879 129.122 29.7317 127.047C29.436 122.905 27.6134 118.578 26.7217 114.511C25.8176 110.385 25.2541 106.19 24.9058 101.982C24.4829 96.8725 23.6601 91.7529 23.7376 86.6123C23.8132 81.5779 24.5958 76.4699 25.6655 71.6354C27.2326 64.5555 26.9045 56.2815 33.1731 51.3304C35.5573 49.4475 39.6694 47.6029 41.9101 50.8051C43.2945 52.7827 42.1014 55.2109 41.8278 57.3636C41.4212 60.5716 41.0126 63.7796 40.6041 66.9875C38.7777 81.354 39.2197 96.2745 38.8255 110.807C38.7193 114.716 38.6208 118.689 39.6282 122.468C40.6366 126.247 42.9261 129.872 46.4537 131.56C55.3466 135.817 66.464 132.033 76.3195 132.301C77.3652 132.329 78.4779 132.34 79.3676 131.791C81.1386 130.697 81.0678 128.142 80.7626 126.083C79.4882 117.487 78.408 109.134 78.2387 100.443C78.0684 91.7175 78.4473 82.838 79.4384 74.1526C79.9168 69.9602 80.5923 65.7658 80.4756 61.5475C80.3598 57.3292 79.3868 53.0076 76.8772 49.6149C75.9769 48.398 74.6528 47.2279 73.1507 47.4154C71.8773 49.4246 70.7062 53.8103 67.4753 52.1274C66.5903 51.6662 66.0009 50.8004 65.4489 49.968C64.9399 49.2007 64.43 48.4334 63.921 47.666C62.6275 48.1415 61.9281 49.3585 61.0086 50.3851C59.7467 51.7944 57.97 52.732 56.0948 52.9789C55.094 51.6471 53.6675 50.7133 52.2917 49.7728C50.9159 48.8323 49.5258 47.821 48.6561 46.3993C47.7855 44.9786 47.553 43.0402 48.5221 41.6845C48.4427 41.2932 48.9747 41.5381 49.2062 41.8634C49.4378 42.1887 49.2397 42.6747 48.9048 42.8928C48.57 43.111 48.15 43.1378 47.752 43.1693C44.4742 43.4286 41.2624 44.4801 38.4677 46.2108C37.9453 46.5342 37.4057 46.892 36.7934 46.936C36.1801 46.9801 35.4846 46.5658 35.474 45.9506C35.4616 45.2235 36.3007 44.8341 36.9857 44.5891C39.633 43.6439 42.0727 42.1236 44.0876 40.1632C44.5488 39.7145 45.0233 39.2228 45.649 39.0716C45.9954 38.9884 46.358 39.018 46.7129 38.9826C47.9404 38.8582 49.0244 37.8498 49.2368 36.6348C49.4617 36.5027 49.6215 36.1162 49.8463 35.9842C50.6193 37.8766 51.4 39.7815 52.5156 41.495C53.6312 43.2086 55.1151 44.7365 56.976 45.5823C58.9545 46.4806 61.1943 46.5495 63.367 46.6031C64.738 46.6366 66.1636 46.6596 67.4093 46.0874C68.9382 45.3852 70.0011 43.7683 70.0394 42.0863C70.1657 36.5486 71.7673 34.8686 71.7558 29.33C71.7558 29.1138 71.7462 28.8765 71.6027 28.7139C71.2286 28.2891 70.5818 28.8076 70.2269 29.2487C68.7573 31.0741 66.3377 32.0883 64.0061 31.8568C61.6745 31.6252 59.5018 30.1538 58.4206 28.0748C57.7892 26.8606 57.5127 25.4724 56.7664 24.3253C56.0202 23.1781 54.52 22.3113 53.2915 22.9141C53.6551 26.5669 53.3709 30.2839 52.4582 33.8392C51.6871 31.2071 50.9083 28.5082 51.0853 25.7709C51.1762 24.3635 51.5608 22.9571 52.2573 21.7277C52.5481 21.2158 52.8839 20.6361 53.2293 20.1672C53.3441 20.0113 54.5257 18.9139 54.7152 19.1139C54.2913 18.6671 53.5479 18.5666 53.0208 18.8852C52.7529 19.0469 52.4936 19.3138 52.1855 19.2555C51.9703 19.2153 51.8134 19.0134 51.7598 18.801C51.7062 18.5886 51.7359 18.3647 51.7703 18.1476C52.1999 15.3998 53.2781 12.9103 54.6731 10.5385C56.1044 8.10362 58.6082 6.19683 61.4239 5.97009C64.0291 5.76056 66.5472 6.95362 69.1563 7.10956C71.2908 7.23777 73.829 6.50777 75.8545 7.42721C77.3202 8.0931 77.8656 10.507 77.8282 11.966C77.7919 13.359 77.3384 14.7138 76.7117 15.9576C76.2085 16.9564 75.732 17.5075 74.6193 17.3831C73.4176 17.2492 72.304 16.9822 71.2592 16.3498C70.1408 15.6725 69.1601 14.7836 68.0321 14.1216C65.7388 12.7773 62.8638 12.4693 60.338 13.2959C59.85 13.4557 58.347 13.9981 58.4436 14.7138C58.5795 15.7165 61.3359 15.0133 61.9587 14.9109C64.0922 14.5588 66.3186 14.9071 68.2732 15.8208C69.3534 16.325 69.959 17.0999 70.8679 17.8404C71.8304 18.625 72.878 19.3052 73.9879 19.863C74.1629 19.951 74.3486 20.0429 74.4567 20.2065C74.6203 20.4514 74.5629 20.7767 74.4959 21.0637C74.1237 22.6577 73.6386 24.2306 73.4263 25.8542C73.167 27.8432 73.8826 29.6103 73.7793 31.5334C73.6587 33.7837 73.4138 36.0244 73.2885 38.2746C73.2014 39.8303 73.1392 41.4912 73.9295 42.8335C74.9054 44.4897 76.8811 45.1986 78.5133 46.2137C81.7088 48.2009 83.7974 51.6279 84.913 55.2224C86.0285 58.8169 86.2725 62.6143 86.5088 66.3704C87.2197 77.6514 85.5836 86.2067 87.8176 97.2867C88.6069 101.202 89.954 105.025 90.2219 109.01C90.5023 113.177 89.3656 117.104 87.8894 120.938C86.4332 124.72 86.2897 129.001 87.523 132.864C88.2711 135.206 89.5025 137.401 89.955 139.818C90.4075 142.235 89.845 145.097 87.7612 146.402C86.7365 147.044 85.2765 147.172 84.3877 146.352C83.8251 145.833 83.5955 145.05 83.4683 144.296C83.1918 142.658 83.2865 140.981 83.1774 139.323C83.0674 137.665 82.722 135.952 81.7002 134.641C80.8028 138.979 79.7752 143.471 79.4203 147.892C79.2136 150.476 79.7637 152.878 79.5839 155.477C79.3686 158.572 78.9993 161.656 78.4779 164.714C77.8292 168.519 76.9461 172.285 75.8344 175.982C74.7427 179.612 72.7556 182.992 71.8964 186.634C70.7636 191.44 71.0133 196.872 70.7321 201.789C70.4154 207.333 70.0977 212.877 69.7811 218.42C69.672 220.326 69.5112 222.372 68.3048 223.852C67.3308 225.047 65.8306 225.669 64.3697 226.162C62.5375 226.782 60.4537 227.259 58.7297 226.381C56.2364 225.11 55.7944 221.798 55.6671 219.002C55.0596 205.64 54.453 192.277 53.8455 178.915C53.7269 176.299 53.636 173.634 54.1105 171.044C54.3181 169.912 54.9046 167.261 56.687 168.431C57.8992 169.227 57.9021 172.765 58.1107 174.02C58.9182 178.884 59.474 183.789 59.7792 188.711C60.3896 198.554 59.9974 208.46 58.612 218.223C57.3931 226.815 55.405 235.299 52.6543 243.53C52.2592 244.712 52.0879 246.421 53.2695 246.817C54.3621 247.182 55.2682 245.927 55.7016 244.858C57.3606 240.764 58.3202 236.388 58.5288 231.977C59.9467 232.374 61.4478 231.658 62.5873 230.724C63.7258 229.79 64.6749 228.618 65.9273 227.842C67.1787 227.067 68.9133 226.779 70.069 227.691C71.2611 231.445 73.8405 234.505 77.3288 236.333C80.8171 238.16 84.6374 239.285 88.1401 241.084C89.2853 241.671 90.507 242.485 90.73 243.752C91.039 245.51 88.959 247.652 87.4397 248.305C85.1263 249.299 81.3357 248.891 78.8434 248.947C72.8972 249.08 66.9405 248.69 61.0632 247.778C60.5236 247.695 59.8644 247.492 59.7811 246.953C59.6749 246.265 60.581 245.921 61.2737 245.841C73.6272 244.409 86.0936 243.95 98.5198 244.47C106.93 244.821 110.297 245.024 118.692 244.414C124.92 243.962 131.217 244.461 137.295 245.891C139.093 246.314 141.326 246.683 142.488 245.249C143.153 244.428 143.198 243.282 143.212 242.225C143.384 229.599 143.557 216.973 143.728 204.347C143.886 192.801 143.941 181.253 144.24 169.709C144.389 163.951 144.6 158.194 144.911 152.443C145.195 147.223 144.838 141.008 146.694 136.077C146.88 135.581 147.275 134.995 147.786 135.134C148.251 135.26 148.346 135.865 148.352 136.345C148.473 146.649 147.874 156.945 147.196 167.223C146.877 172.078 146.803 177.042 146.189 181.855C145.539 186.943 144.502 191.999 143.722 197.071C141.503 211.499 140.066 226.048 139.423 240.632C139.362 241.991 138.629 242.375 137.394 242.947C136.16 243.518 134.73 243.391 133.377 243.255C131.127 243.026 128.875 242.797 126.625 242.569C124.952 242.398 122.564 241.704 120.964 242.227C121.22 239.507 125.93 239.085 127.934 238.852C130.799 238.519 133.748 238.842 136.451 239.862C136.992 240.067 137.63 240.49 137.491 241.051C137.349 241.627 136.564 241.688 135.975 241.623C133.169 241.313 130.364 241.003 127.56 240.693C126.768 240.606 125.861 240.448 125.457 239.76C125.14 239.22 125.255 238.543 125.374 237.928C127.725 225.779 126.902 213.604 127.694 201.351C128.501 188.86 128.954 176.279 127.567 163.811C127.373 162.07 127.144 160.332 126.875 158.6C125.743 151.306 123.915 144.129 122.9 136.818C121.885 129.506 121.707 121.933 123.838 114.867C124.027 114.242 124.478 113.596 125.036 113.258C125.593 112.919 126.244 112.776 126.854 112.546C131.272 110.877 132.72 105.132 136.718 102.619C137.467 102.148 138.36 101.795 139.225 101.979C139.799 102.101 140.296 102.446 140.776 102.783C144.174 105.168 147.676 107.666 149.769 111.251C150.396 112.325 150.889 113.631 150.438 114.789C149.804 116.409 147.695 116.857 145.969 116.643C141.704 116.115 138.195 113.158 134.979 110.308C133.846 109.303 132.64 108.161 132.448 106.659C132.22 104.877 133.479 103.3 134.358 101.731C134.736 101.053 135.056 100.223 134.721 99.5217C134.494 99.0472 134.019 98.7515 133.59 98.4473C130.898 96.5367 129.288 93.3928 128.57 90.1705C127.853 86.9481 127.934 83.6091 128.018 80.3093C128.05 79.0779 127.468 75.1275 129.584 75.1859C131.963 75.251 130.804 80.7341 130.461 82.0142C129.66 85.0002 128.249 87.8685 128.113 90.9569C127.94 94.8997 129.857 98.5965 131.722 102.075C130.875 104.847 129.513 107.248 127.453 109.287C126.925 109.811 126.292 110.328 125.549 110.334C124.807 110.34 124.173 109.835 123.606 109.358C122.017 108.019 120.429 106.68 118.84 105.341C117.184 103.945 115.456 102.447 114.748 100.4C114.072 98.4454 114.435 96.3032 114.805 94.2682C116.56 84.6137 118.315 74.9601 120.071 65.3056C120.495 62.9692 120.968 60.5247 122.464 58.6801C124.67 55.9601 128.476 55.2531 131.958 54.8799C132.061 58.6409 133.36 62.288 135.314 65.4759C136.328 67.1311 137.523 68.6733 138.854 70.0855C139.654 70.9341 141.813 73.6484 143.109 73.4743C144.415 73.2992 144.318 69.8061 144.35 68.8293C144.413 66.8479 144.173 64.8569 143.629 62.9501C143.053 60.9313 142.141 58.9738 142.031 56.8776C141.911 54.5996 142.749 52.3972 143.411 50.2129C144.072 48.0296 144.56 45.6397 143.761 43.5023C142.483 40.0819 143.946 37.4509 144.518 33.8449C145.09 30.2389 146.312 26.6674 148.564 23.7943C149.569 22.5132 150.764 21.39 152.065 20.415C153.368 19.4382 154.844 18.9407 155.816 17.5563C156.044 17.231 156.246 16.8617 156.25 16.4646C156.254 16.0676 156 15.6428 155.608 15.5749C155.198 15.5041 154.805 15.8523 154.697 16.2541C154.59 16.656 154.702 17.0837 154.86 17.4683C155.268 18.4681 155.968 19.3148 156.612 20.1816C158.746 23.0538 160.386 26.3756 160.815 29.928C160.986 31.3344 161.089 33.0183 160.652 34.373C160.146 35.9421 159.579 37.5102 158.735 38.9338C157.741 40.612 156.307 42.0987 154.483 42.7866C150.92 44.129 147.876 41.8165 145.54 39.3835C143.713 42.2088 141.777 45.3727 140.665 48.5482C139.554 51.7236 139.102 55.2042 139.9 58.4725C140.317 60.1803 141.062 61.7924 141.508 63.4935C141.954 65.1946 142.077 67.0784 141.28 68.6456C136.775 64.7201 134.278 58.6017 134.75 52.645C135.076 48.531 136.717 44.6112 137.085 40.5C137.389 37.1237 136.837 33.6248 137.875 30.3987C138.555 28.2862 139.877 26.4358 140.653 24.3578C141.345 22.5074 141.597 20.4935 142.497 18.734C143.622 16.5345 145.71 14.9061 148.041 14.0881C150.372 13.2701 152.927 13.2184 155.357 13.6623C158.184 14.179 161.673 14.5999 163.234 17.0128C164.796 19.4258 165.152 22.4127 165.243 25.2849C165.334 28.157 165.207 31.0789 165.953 33.8545C166.798 36.9955 168.755 40.0848 168.022 43.2535C167.638 44.9077 166.535 46.3898 166.5 48.088C166.441 50.9831 169.407 53.0229 170.236 55.7974C171.032 58.461 169.717 61.3083 168.016 63.5069C166.315 65.7055 164.179 67.6046 162.92 70.0826C162.467 70.9753 162.125 71.9454 161.465 72.6993C160.806 73.4532 159.695 73.9412 158.789 73.5154C157.722 73.0141 157.504 71.6163 157.464 70.4395C157.42 69.1268 157.518 67.8237 157.535 66.5245C157.552 65.2558 157.073 63.925 156.982 62.6363C156.783 59.833 157.173 56.9857 158.141 54.3461C158.551 53.2314 159.061 52.1494 159.345 50.9965C159.629 49.8436 159.668 48.5807 159.154 47.5111C158.934 47.0566 157.972 45.7258 157.346 45.8234C156.34 45.9803 157.396 47.248 157.64 47.6201C158.363 48.7242 158.028 50.1957 157.543 51.4232C156.514 54.0313 156.325 56.6317 155.897 59.3824C155.656 60.9256 155.289 62.5702 154.14 63.6284C152.928 64.7449 151.042 64.9315 149.501 64.3498C147.959 63.7681 146.74 62.5234 145.883 61.116C145.025 59.7086 144.491 58.1329 143.962 56.5724C148.08 57.8698 152.628 57.7588 156.678 56.2605C159.649 55.1622 162.451 53.3223 165.617 53.2066C167.789 53.1272 169.925 53.8887 171.789 55.0043C173.654 56.1199 175.284 57.5799 176.902 59.0303C179.144 61.0404 179.065 62.4889 179.793 65.4108C181.69 73.0131 183.586 80.6164 185.481 88.2187C186.383 91.8333 187.265 95.755 185.807 99.183C184.445 102.384 181.337 104.438 178.355 106.229C176.234 107.502 174.092 108.739 171.93 109.94C171.051 110.428 170.071 110.926 169.086 110.722C168.239 110.547 167.585 109.887 167.03 109.223C165.03 106.829 163.601 103.96 162.895 100.92C162.769 100.375 162.695 99.7188 163.1 99.3323C163.475 98.9735 164.112 99.0414 164.534 99.3428C164.957 99.6432 165.216 100.118 165.461 100.575C166.265 102.076 167.07 103.577 167.873 105.078C168.006 105.327 168.201 105.612 168.483 105.596C168.914 105.57 168.952 104.946 168.842 104.528C168.156 101.917 167.066 99.4126 165.622 97.1318C166.918 96.1779 168.315 95.2747 169.483 94.1831C170.543 93.1909 171.708 92.5317 173.205 92.415C173.792 92.3691 174.457 92.4446 174.831 92.8981C175.205 93.3526 174.958 94.2414 174.371 94.2223C173.922 94.2079 173.652 93.7296 173.484 93.3124C171.299 87.8877 171.067 81.9051 170.862 76.0613C170.741 80.0203 170.241 83.9669 169.374 87.8322C168.92 89.8528 168.344 91.8974 167.147 93.587C165.618 95.7445 163.228 97.1136 160.844 98.2569C158.46 99.3992 155.964 100.407 153.927 102.092C151.89 103.777 150.344 106.329 150.651 108.955C150.791 110.144 151.294 111.259 151.827 112.332C152.033 112.747 152.27 113.185 152.682 113.399C153.29 113.714 154.024 113.427 154.636 113.12C157.634 111.616 160.39 109.63 162.765 107.262C163.431 109.04 165.475 110.327 167.189 111.144C168.904 111.961 170.937 112.086 172.738 111.484C171.631 111.869 173.076 121.45 173.086 122.605C173.163 132.072 172.23 141.189 171.46 150.578C170.251 165.317 170.605 180.125 170.962 194.892C171.185 204.143 171.409 213.395 171.631 222.645C171.71 225.883 171.787 229.122 171.866 232.359C171.902 233.873 171.764 235.52 172.034 237.01C172.284 238.389 171.587 241.242 169.678 240.722C164.53 239.321 158.89 239.798 154.051 242.046C153.967 242.086 152.103 235.06 152 234.39C151.584 231.703 151.964 228.997 152.124 226.298C152.47 220.479 152.722 214.648 152.577 208.818C152.346 199.583 151.123 190.406 149.902 181.251C149.239 176.284 149.047 171.268 149.08 166.261C149.096 163.749 149.169 161.238 149.267 158.727C149.332 157.046 148.683 153.889 149.907 152.498C150.703 151.593 150.878 153.227 151.041 153.912C151.378 155.322 151.678 156.743 151.961 158.165C153.094 163.856 153.86 169.617 154.357 175.396C155.358 187.021 155.281 198.708 154.922 210.36C154.887 211.524 154.847 212.689 154.806 213.852C154.41 225.14 156.137 230.956 156.173 242.251C156.177 243.35 156.215 244.558 156.946 245.379C157.507 246.007 158.362 246.272 159.182 246.468C163.914 247.6 168.972 247.332 173.557 245.708C169.95 242.013 163.888 240.997 159.272 243.313C159.995 245.379 162.691 245.782 164.878 245.831C181.739 246.209 198.606 246.201 215.471 246.194C216.593 246.194 214.666 246.545 215.768 246.334C216.87 246.125 217.914 245.146 217.778 244.033C217.672 243.156 216.887 242.396 217.034 241.526C217.17 240.718 218.022 240.272 218.773 239.948C220.502 239.203 222.231 238.457 223.96 237.711C225.177 237.186 226.421 236.644 227.381 235.73C228.341 234.816 228.973 233.439 228.643 232.155C228.438 231.359 227.52 230.604 226.848 231.077C226.373 231.412 226.383 232.101 226.363 232.683C226.29 234.849 225.049 236.94 223.182 238.04C221.731 238.895 219.745 239.413 219.326 241.044C219.138 241.775 219.344 242.544 219.551 243.27C219.848 244.317 220.203 245.448 221.099 246.063C221.962 246.655 223.096 246.61 224.14 246.541C229.005 246.222 233.87 245.904 238.735 245.585C239.319 245.547 239.94 245.495 240.409 245.145C241.316 244.467 241.197 243.096 240.987 241.983C240.215 237.905 239.442 233.828 238.67 229.75C238.61 229.439 238.537 229.101 238.291 228.901C238.034 228.692 237.672 228.696 237.341 228.711C235.375 228.8 233.409 228.888 231.442 228.977C231.031 228.995 230.496 229.128 230.474 229.54C230.464 229.738 230.591 229.915 230.725 230.06C231.992 231.437 234.316 231.456 235.864 230.406C237.412 229.355 238.243 227.481 238.453 225.621C238.661 223.761 238.326 221.888 237.971 220.051C237.616 218.214 237.239 216.354 237.365 214.486C238.18 202.347 237.339 189.773 239.533 177.806C240.487 172.601 242.136 167.455 242.573 162.178C243.03 156.671 243.089 151.131 242.751 145.617C242.727 145.218 242.676 144.769 242.36 144.523C241.971 144.221 241.364 144.413 241.057 144.799C240.75 145.183 240.664 145.694 240.588 146.181C238.648 158.651 238.581 171.257 237.252 183.798C236.608 189.879 236.137 195.981 235.999 202.095C235.843 209.057 236.118 216.047 236.286 223.037C236.305 223.846 236.323 224.67 236.109 225.452C235.564 227.436 234.042 227.489 232.293 227.722C230.164 228.004 228.035 228.287 225.906 228.57C225.527 228.619 225.095 228.655 224.809 228.402C224.551 228.173 224.509 227.793 224.484 227.449C223.568 214.773 222.652 202.097 221.736 189.421C220.46 171.757 219.49 155.153 217.421 137.563C231.875 133.791 247.521 132.102 262.26 134.527C263.695 134.763 265.175 135.028 266.59 134.691C268.005 134.354 269.35 133.236 269.445 131.784C269.755 127.071 268.362 122.18 267.571 117.537C266.727 112.583 265.88 107.63 265.032 102.676C263.937 96.1884 262.812 89.7055 261.702 83.2207C261.162 80.0615 260.605 76.9023 260.221 73.7192C259.872 70.8231 259.077 67.5779 260.214 64.7794C260.982 68.5777 261.749 72.3759 262.518 76.1742C262.685 77.0028 262.877 77.8791 263.463 78.4886C264.222 79.2779 265.428 79.4042 266.522 79.4023C268.662 79.3985 270.801 79.0866 272.853 78.4809C273.513 78.2867 274.286 77.905 274.301 77.2171C274.313 76.666 273.773 76.2307 273.226 76.158C272.68 76.0852 272.138 76.2795 271.622 76.4708C269.32 77.3233 266.854 78.3049 265.55 80.3839C264.089 82.7145 265.086 85.0566 265.566 87.4906C266.173 90.5742 267.318 93.5994 268.066 96.6601C269.319 101.789 270.296 106.986 270.987 112.221C271.293 114.538 271.432 116.854 271.969 119.146C272.301 120.559 272.524 121.991 272.819 123.396C273.148 124.967 273.521 126.159 273.2 127.805C272.895 129.362 272.277 130.837 271.846 132.363C271.092 135.03 271.088 138.091 271.445 140.837C271.474 141.062 271.548 141.333 271.769 141.385C272.02 141.443 272.21 141.169 272.318 140.935C273.069 139.311 273.829 137.607 274.21 135.864C274.424 137.77 274.809 139.817 274.405 141.692C274.028 143.442 273.382 145.188 273.569 146.969C273.756 148.749 275.17 150.587 276.953 150.43C277.918 150.345 278.763 149.688 279.295 148.877C279.827 148.067 280.092 147.113 280.313 146.17C280.328 146.105 280.343 146.04 280.358 145.975C281.102 142.722 281.413 139.362 281.212 136.028C281.014 132.736 279.936 129.655 279.897 126.37C279.794 117.888 279.676 109.407 279.575 100.925C279.528 96.8629 279.547 92.9422 278.844 88.9343C278.136 84.8978 277.191 80.9025 276.012 76.9779C274.49 71.9167 273.888 66.3188 272.283 61.2834C271.39 58.4802 270.322 55.7066 268.717 53.241C267.113 50.7755 264.933 48.6199 262.249 47.4173C258.45 45.7152 254.091 46.0625 249.945 46.4424C247.704 46.6481 245.03 44.7996 243.969 42.8163C239.75 44.8456 234.249 43.751 231.128 40.2608C232.811 41.1669 234.542 42.0126 236.395 42.4872C238.246 42.9608 240.289 42.9579 241.986 42.0777C243.883 41.0932 245.118 39.128 245.702 37.072C246.286 35.0159 246.301 32.848 246.311 30.7106C247.138 31.0866 248.541 30.7718 249.155 30.1021C249.768 29.4324 250.032 28.511 250.137 27.6088C250.255 26.6014 250.18 25.5212 249.627 24.6697C249.075 23.8191 247.942 23.2901 247.004 23.6756C247.114 21.7765 246.866 19.5377 246.49 17.673C246.113 15.8083 245.191 13.9781 243.622 12.9027C241.573 11.4991 238.883 11.6187 236.406 11.7919C235.297 11.8694 234.098 11.9842 233.274 12.7295C232.638 13.3035 232.333 14.1656 231.741 14.7846C230.858 15.7078 229.501 15.949 228.249 16.2015C227.397 16.3737 226.465 16.6311 226.001 17.3649C225.639 17.9361 225.654 18.6604 225.69 19.3349C225.802 21.5 226.001 23.6613 226.285 25.8101C225.769 24.5778 225.121 23.6699 225.098 22.3343C225.074 20.9987 225.668 19.5626 226.869 18.978C228.409 18.2279 230.497 19.022 231.817 17.9304C232.616 17.2683 232.828 16.1326 233.453 15.3032C234.455 13.9723 236.293 13.6633 237.947 13.4557C239.34 13.2815 240.881 13.1409 242.028 13.9503C243.072 14.688 243.497 16.0178 243.742 17.2731C243.987 18.5274 244.139 19.8534 244.859 20.9106C245.042 21.1804 245.321 21.4512 245.643 21.4005C246.086 21.3316 246.207 20.7576 246.222 20.3079C246.319 17.5792 246.413 14.8104 245.768 12.1574C245.123 9.5043 243.635 6.93544 241.253 5.60078C238.88 4.2709 235.772 4.37997 233.498 5.87249C232.537 6.50299 231.713 7.35833 230.654 7.8013C229.708 8.19644 228.655 8.22896 227.66 8.48059C225.673 8.98288 224.011 10.3357 222.574 11.7976C221.792 12.5936 221.024 13.4901 220.806 14.5856C220.529 15.9805 221.195 17.3707 221.841 18.6364C222.865 20.6447 223.891 22.6538 224.916 24.662C225.242 25.3011 225.548 25.6791 225.921 26.2933C225.345 25.3452 223.49 26.0378 222.914 26.5583C221.886 27.4873 222.158 29.1329 222.484 30.3671C222.763 31.4291 223.364 32.4413 224.295 33.024C225.225 33.6067 226.508 33.6784 227.398 33.0383C227.14 33.224 228.821 37.1064 228.965 37.5953C230.211 41.8375 228.204 45.0809 225.255 47.9311C227.66 49.7881 230.049 51.8977 232.921 52.8918C235.792 53.8859 239.069 54.0361 241.8 52.7043C244.428 51.4232 246.303 48.927 248.914 47.6115C248.429 50.8013 246.102 53.6438 243.071 54.7479C240.331 55.7458 237.295 55.365 234.435 54.7938C232.24 54.3556 230.046 53.8045 228.043 52.8047C226.041 51.8049 224.226 50.322 223.148 48.3597C217.937 48.6764 212.497 51.871 209.859 56.3763C207.177 60.9591 206.943 66.5197 206.779 71.8277C206.69 74.72 206.601 77.6132 206.512 80.5054C206.464 82.0458 206.43 83.655 207.096 85.0442C207.861 86.6391 209.46 87.7078 211.15 88.233C211.8 88.4349 215.235 89.4261 215.477 88.4483C215.832 87.0142 211.762 86.331 210.928 86.309C208.858 86.2545 206.78 87.0917 205.327 88.566C205.164 90.6364 204.909 92.6312 204.84 94.7294C204.763 97.0916 204.684 99.4528 204.607 101.815C204.319 110.547 203.857 119.149 204.246 127.884C204.381 130.914 204.333 133.961 203.919 136.969C203.596 139.302 203.054 141.635 203.218 143.985C203.362 146.042 204.042 148.024 204.854 149.919C205.337 151.044 205.994 152.263 207.167 152.611C208.183 152.912 209.322 152.414 209.979 151.581C210.635 150.75 210.869 149.649 210.856 148.59C210.844 147.531 210.607 146.488 210.417 145.446C210.057 143.477 209.584 139.793 211.379 138.344C211.774 140.124 211.957 141.692 213.042 143.248C213.148 143.399 213.291 143.564 213.475 143.551C213.759 143.532 213.829 143.148 213.816 142.864C213.703 140.199 213.954 137.091 213.282 134.509C212.554 131.712 212.44 129.498 212.875 126.597C214.652 114.745 216.429 102.892 218.207 91.0401C218.589 88.4952 218.045 88.3421 218.478 85.8048C219.155 81.8353 219.831 77.8667 220.509 73.8972C220.136 76.0833 220.485 78.6417 220.449 80.8671C220.411 83.2771 220.355 85.6862 220.277 88.0953C220.123 92.8934 219.887 97.6895 219.555 102.479C219.224 107.265 218.796 112.044 218.262 116.811C217.994 119.202 217.7 121.59 217.377 123.974C217.03 126.539 215.485 132.122 219.528 132.565C221.566 132.789 223.899 132.18 225.93 131.975C228.358 131.728 230.788 131.495 233.22 131.289C242.923 130.463 252.688 130.035 262.415 130.699C262.609 130.713 262.805 130.726 262.999 130.74C264.975 130.884 267.237 131.246 268.266 132.938C269.142 134.379 268.676 135.961 268.753 137.527C268.879 140.116 269.654 142.787 269.976 145.402C270.381 148.679 270.745 151.962 271.069 155.248C271.485 159.473 271.835 163.704 272.118 167.94C272.412 172.346 272.313 176.624 273.074 180.984C273.585 183.908 272.639 186.78 273.256 189.708C275.749 201.542 276.743 210.259 277.295 222.34C277.361 223.795 277.404 225.323 276.755 226.627C275.599 228.952 272.742 229.758 270.208 230.322C268.716 230.654 266.86 230.865 265.935 229.648C265.462 229.026 265.392 228.197 265.327 227.419C264.222 214.047 259.785 201.275 255.451 188.673C253.304 182.431 251.158 176.181 249.405 169.813C248.536 166.653 247.764 163.465 247.143 160.245C246.839 158.672 246.57 157.09 246.346 155.503C246.262 154.91 246.139 154.313 246.229 153.713C246.296 153.267 246.616 152.771 247.003 152.568C247.68 153.559 248.064 155.368 248.543 156.554C249.204 158.19 249.84 159.836 250.452 161.491C251.675 164.8 252.801 168.143 253.835 171.516C255.907 178.27 257.615 185.133 259.015 192.056C261.825 205.952 263.4 220.077 264.207 234.223C264.223 234.505 264.239 234.788 264.255 235.071C264.449 238.607 264.359 240.171 264.334 243.713C264.33 244.432 264.357 245.236 264.871 245.739C265.252 246.112 265.81 246.224 266.336 246.313C273.162 247.47 280.172 247.534 287.019 246.502C287.708 246.398 288.551 246.133 288.643 245.443C288.72 244.875 288.217 244.411 287.751 244.077C285.792 242.673 283.612 241.578 281.317 240.844C279.951 240.407 278.536 240.095 277.248 239.467C275.958 238.839 274.773 237.832 274.327 236.469C273.862 235.046 274.268 233.501 274.676 232.059C274.803 231.609 274.989 231.095 275.432 230.948C276.111 230.722 276.656 231.514 276.954 232.165C277.511 233.379 277.634 234.753 278.276 235.98C278.904 237.178 279.733 238.272 280.722 239.196C281.179 239.624 281.683 239.938 282.178 240.3C282.694 240.678 283.113 241.227 283.582 241.669C284.573 242.601 285.657 243.44 286.831 244.13C291.029 246.594 295.897 246.964 300.629 247.265C305.974 247.605 311.319 247.945 316.666 248.284C317.679 248.348 318.703 248.412 319.702 248.235C320.701 248.057 321.688 247.61 322.323 246.818C323.321 245.572 323.244 243.812 323.162 242.218C322.919 237.486 323.065 232.733 323.599 228.025C323.755 226.651 323.892 225.097 322.991 224.049C322.333 229.221 321.905 234.422 321.707 239.632C321.644 241.301 321.582 243.047 320.754 244.497C319.889 246.008 318.252 246.993 316.534 247.279C314.816 247.565 313.034 247.205 311.446 246.491C311.033 246.306 310.605 246.071 310.406 245.665C310.201 245.248 310.289 244.753 310.38 244.298C311.866 236.907 313.372 229.446 316.433 222.555C318.697 222.739 321.359 222.725 323.623 222.909C324.572 222.986 325.584 223.05 326.419 222.591C327.374 222.065 327.861 220.985 328.278 219.977C332.112 210.701 335.444 201.217 338.254 191.581C342.201 178.04 346.761 165.663 350.403 152.037C350.684 150.988 350.953 149.929 351.07 148.848C351.131 148.282 351.421 146.465 350.706 146.21C350.408 146.104 350.22 146.273 350.051 146.479C349.252 147.454 348.731 148.88 348.241 150.03C347.718 151.26 347.272 152.521 346.872 153.796C346.076 156.339 345.469 158.936 344.827 161.52C343.07 168.596 340.905 175.492 337.807 182.101C337.218 183.357 337.128 184.683 336.699 186.001C336.102 187.832 335.51 189.665 334.931 191.503C333.774 195.178 332.66 198.867 331.59 202.568C330.756 205.454 329.947 208.347 329.165 211.248C328.822 212.522 328.476 213.732 327.979 214.938C327.567 215.939 327.486 217.257 326.609 218.001C325.998 218.52 325.142 218.61 324.343 218.677C322.773 218.809 321.204 218.942 319.634 219.074C318.562 219.165 317.25 219.139 316.709 218.208C316.419 217.71 316.455 217.093 316.501 216.518C317.792 200.442 320.142 184.332 325.489 169.115C329.807 156.823 326.47 144.299 325.585 131.301C325.265 126.586 324.844 121.709 326.422 117.254C327.593 113.947 329.786 111.117 331.945 108.35C333.118 106.847 334.291 105.343 335.463 103.839C336.31 102.753 337.602 101.541 337.73 100.117C337.888 98.366 337.208 96.1798 336.973 94.4318C336.717 92.5212 336.461 90.6106 336.205 88.6999C342.738 89.7734 349.323 90.7483 355.943 90.6412C362.563 90.535 369.266 89.3008 375.104 86.1799C375.724 89.7409 374.962 93.8252 374.754 97.4504C374.707 98.2904 375.012 100.813 374.279 101.361C373.507 101.937 370.643 101.308 369.678 101.264C366.249 101.11 362.819 100.956 359.39 100.802C352.605 100.498 345.819 100.192 339.033 99.8881C337.878 99.8365 336.663 99.7963 335.629 100.318C334.709 100.782 334.054 101.632 333.44 102.46C331.124 105.583 328.919 108.787 326.831 112.067C325.552 102.63 324.02 92.9211 324.278 83.4015C324.537 73.8819 326.113 64.3096 329.873 55.5602C330.544 53.9968 331.305 52.445 332.346 51.0893C332.843 50.4416 333.397 49.2141 334.332 49.1519C335.308 49.0878 335.4 50.0627 335.487 50.8185C335.8 53.5309 335.683 56.3342 335.23 59.0226C334.67 62.3531 333.55 65.5783 333.132 68.9297C332.502 73.9861 333.538 79.2368 336.042 83.6751C336.461 84.4185 336.778 85.6125 335.977 85.9072C335.139 86.2153 334.628 84.9916 334.582 84.1018C334.274 78.1853 334.214 72.2563 334.402 66.335C334.505 63.0907 334.739 59.6703 336.538 56.9694C339.45 64.3115 347.133 69.4856 355.031 69.4225C360.155 69.3813 364.989 68.3356 369.231 65.4596C373.472 62.5836 376.546 57.865 376.95 52.7569C376.857 53.7242 376.317 54.5307 375.458 54.9833C374.388 55.5468 373.126 54.8704 371.989 54.459C370.418 53.8897 368.664 53.8438 367.065 54.3288C365.796 54.7134 364.46 55.4253 363.226 54.9431C362.433 54.6331 361.887 53.8725 361.631 53.0621C361.373 52.2517 361.366 51.3859 361.366 50.5363C361.368 45.7325 361.583 40.9325 361.798 36.1334C361.938 33.0077 362.082 29.1999 360.747 26.3698C359.581 23.8985 357.406 22.0042 356.301 19.5052C355.898 18.5934 355.603 17.5601 354.811 16.9554C353.658 16.0752 351.87 16.4398 350.757 15.5088C350.327 15.1491 350.056 14.6373 349.7 14.2038C348.82 13.1323 347.225 13.3887 346.682 14.664C346.03 16.1939 346.337 18.2691 346.564 19.8534C346.822 21.6626 347.202 23.4757 347.086 25.3002C346.963 27.2606 345.972 29.1138 345.75 31.1038C345.543 32.9503 345.344 35.6904 346.286 37.3724C347.096 38.819 347.886 40.6684 349.527 41.3448C351.499 42.1581 353.499 42.4881 355.51 41.585C357.175 40.8368 358.52 39.5241 359.7 38.1302C359.47 40.4426 358.159 42.8431 356.113 43.9462C354.068 45.0493 351.611 45.2503 349.333 44.791C348.785 44.681 348.142 44.5576 347.727 44.9326C347.359 45.2656 347.357 45.832 347.371 46.3285C347.463 49.5719 347.033 52.8306 346.1 55.9381C345.524 57.8573 343.455 57.7291 341.528 57.179C339.889 56.7121 338.676 55.2521 338.093 53.6514C337.509 52.0508 337.462 50.3095 337.482 48.6056C337.545 42.9799 338.256 37.3839 338.968 31.8032C339.551 27.229 340.134 22.6538 340.717 18.0796C340.959 16.1786 341.24 14.1818 342.396 12.6539C343.553 11.126 345.9 10.3204 347.435 11.4676C349.584 8.98479 352.956 6.41306 356.222 6.06863C359.489 5.7242 362.874 6.66468 365.493 8.64515C369.496 11.6704 371.432 16.7287 372.294 21.6722C373.155 26.6157 373.141 31.6932 374.224 36.5927C375.101 40.5593 376.679 44.3308 378.248 48.0775C378.836 49.4781 379.481 50.9534 380.722 51.8298C381.634 52.4747 382.763 52.7138 383.851 52.9674C384.94 53.2209 386.065 53.5242 386.907 54.2599C387.749 54.9957 388.209 56.2883 387.664 57.2632C389.562 67.839 391.402 76.6201 391.346 87.3653C391.29 98.1105 389.158 109.075 383.508 118.215C381.805 115.348 379.819 112.479 378.115 109.612C377.893 109.237 377.666 108.851 377.584 108.422C377.439 107.662 377.767 106.901 378.065 106.186C380.292 100.831 381.116 94.8968 380.43 89.1372C380.019 85.6852 379.164 83.9487 379.289 80.4748C379.373 78.1585 379.776 75.8633 379.866 73.547C379.956 71.2307 379.708 68.8283 378.582 66.8029C378.427 73.0447 377.245 79.2597 375.097 85.1217C373.979 88.1747 372.582 91.2229 372.512 94.473C372.426 98.4779 374.377 102.34 374.155 106.339C375.544 108.988 377.568 111.216 379.373 113.577C381.171 115.932 381.336 119.014 381.603 121.928C382.21 128.552 381.519 135.216 380.665 141.786C379.527 150.548 378.171 159.317 376.368 167.97C376.067 169.416 375.435 170.632 375.024 172.021C374.497 173.805 374.745 175.839 374.658 177.68C374.447 182.139 373.894 186.582 373.003 190.955C371.795 196.883 369.973 202.67 368.696 208.584C367.472 214.261 366.747 220.065 364.959 225.591C361.589 226.005 357.203 227.044 355.067 224.403C353.673 222.679 353.568 220.279 353.526 218.062C353.526 209.639 353.21 201.204 353.053 192.782C352.894 184.313 352.735 175.845 352.576 167.376C352.524 164.624 352.473 161.871 352.421 159.119C352.395 157.722 352.368 156.325 352.343 154.928C352.327 154.11 352.196 153.252 352.346 152.44C352.421 152.031 352.446 151.794 352.891 151.956C353.42 152.149 353.409 152.955 353.527 153.406C354.557 157.366 355.314 161.336 355.798 165.4C355.977 166.899 356.129 168.401 356.268 169.904C358.22 191.018 357.589 212.371 354.395 233.334C353.476 239.365 351.289 242.426 347.595 247.281C347.099 247.933 346.55 248.726 346.81 249.504C347.138 250.484 348.435 250.641 349.469 250.623C353.074 250.558 356.679 250.494 360.285 250.43C361.043 250.417 361.873 250.377 362.439 249.872C363.008 249.366 363.141 248.543 363.234 247.787C363.762 243.472 364.067 239.13 364.146 234.784C364.184 232.684 364.122 230.427 362.885 228.729C362.306 233.094 361.728 237.459 361.15 241.823C360.874 243.9 360.439 246.241 358.677 247.374C357.381 248.208 355.724 248.134 354.184 248.059C352.303 247.968 350.422 247.918 348.539 247.909C348.066 247.907 347.582 247.909 347.138 248.072C346.694 248.235 346.291 248.591 346.209 249.056C346.121 249.55 346.418 250.052 346.829 250.339C347.24 250.626 347.748 250.736 348.245 250.808C350.754 251.171 353.299 250.71 355.814 250.381C361.724 249.606 367.728 249.555 373.649 250.23C392.594 252.391 407.541 249.891 426.608 249.893C427.491 249.893 428.672 249.621 428.683 248.738C428.689 248.323 428.397 247.966 428.09 247.687C425.749 245.558 422.028 245.795 419.426 243.994C418.07 243.056 417.13 241.638 415.916 240.522C412.999 237.841 408.42 237.152 404.844 238.854C402.971 239.745 399.902 242.438 399.624 244.604C399.396 246.387 401.23 246.473 402.407 245.754C404.468 244.495 406.318 242.498 408.172 240.945C409.804 239.578 411.47 238.171 412.53 236.323C414.116 233.559 414.137 230.201 414.116 227.015C414.116 218.369 412.915 208.968 414.304 200.439C415.225 194.793 415.617 189.061 415.505 183.34C415.399 177.915 414.326 172.744 414.481 167.354C414.824 155.459 415.121 143.555 414.745 131.657C417.841 129.675 420.973 127.919 424.553 127.086C428.276 126.219 432.157 126.009 435.772 124.764C437.04 124.328 438.35 123.758 439.669 124C440.981 124.241 442.008 125.236 442.947 126.184C443.934 127.179 444.995 128.373 444.854 129.767C444.537 132.917 443.74 135.886 443.015 138.949C442.715 140.22 442.362 141.478 442.127 142.776C441.879 144.138 441.601 145.543 440.789 146.697C440.362 147.304 439.807 147.812 439.401 148.432C438.974 149.081 438.552 150.074 438.569 150.867C438.589 151.709 438.805 152.444 438.7 153.323C438.45 155.431 437.587 157.408 436.802 159.359C436.011 161.328 435.283 163.323 434.622 165.34C434.094 166.951 434.158 168.293 433.902 169.899C433.244 174.036 431.884 178.135 431.083 182.261C429.472 190.57 428.409 198.987 427.906 207.436C427.746 210.14 427.642 212.847 427.597 215.555C427.515 220.343 426.592 225.037 425.818 229.747C425.441 232.043 425.11 234.349 424.969 236.673C424.898 237.856 424.874 239.042 424.912 240.227C424.937 241 424.706 243.038 426.023 242.101C426.739 241.591 426.814 240.035 426.994 239.235C427.27 238.002 427.504 236.76 427.726 235.517C429.997 222.823 431.159 209.932 431.195 197.037C431.212 190.57 433.427 187.429 434.379 181.033C435.603 172.808 435.537 164.442 435.303 156.156C435.203 152.611 437.388 148.408 438.493 145.009C439.828 140.907 441.161 136.803 442.496 132.701C443.018 131.095 443.47 129.125 442.322 127.887C441.423 126.919 439.934 126.862 438.613 126.911C432.478 127.144 426.375 128.237 420.54 130.15C418.943 130.673 416.929 131.162 415.794 129.922C415.166 129.237 415.055 128.238 414.979 127.312C414.103 116.803 413.639 106.261 413.59 95.7158C413.584 94.4356 413.671 94.5648 413.838 93.2952C414.004 92.0256 414.479 90.7579 415.391 89.8595C416.334 88.9315 417.637 88.4856 418.892 88.0675C421.879 87.0735 424.897 86.0727 428.029 85.7656C431.162 85.4585 434.465 85.8996 437.111 87.6054C437.642 87.9479 438.196 88.6224 437.82 89.1305C437.696 89.2979 437.498 89.3907 437.307 89.4768C433.856 91.0334 430.398 92.593 426.804 93.7841C424.499 94.5476 422.116 95.1618 419.688 95.2211C417.799 95.2671 415.862 94.9657 414.14 94.1658C412.845 93.565 411.098 92.7537 410.588 91.3138C410.226 90.2872 410.557 89.0941 410.11 88.101C409.432 86.5951 407.551 85.9656 406.702 84.584C405.68 82.9212 406.436 80.5293 407.468 79.076C408.718 77.3166 410.662 76.1388 412.715 75.4748C414.768 74.8109 416.943 74.6195 419.1 74.5162C424.656 74.2502 430.219 74.3899 435.713 75.2414C441.488 76.136 447.265 77.0315 453.041 77.926C453.764 78.038 454.552 78.1384 455.183 77.771C456.093 77.2419 456.259 76.0211 456.325 74.9706C456.714 68.7939 457.104 62.5922 456.626 56.4212C455.551 59.966 455.109 63.7021 455.33 67.3989C455.393 68.4657 455.495 69.6062 454.969 70.5352C454.455 71.4412 453.458 71.9406 452.518 72.3884C447.895 74.5899 443.21 76.8124 438.184 77.794C435.56 78.3068 432.881 78.4723 430.211 78.6369C429.198 78.6991 428.135 78.7527 427.218 78.3202C425.514 77.5175 424.946 75.4079 424.659 73.546C424.257 70.9418 424.027 68.3107 423.968 65.6758C423.93 64.0015 423.807 62.0268 422.391 61.1322C422.189 63.7002 421.986 66.2681 421.784 68.8369C421.708 69.8138 421.595 70.8738 420.916 71.5809C420.083 72.4486 418.731 72.463 417.531 72.5262C414.635 72.6773 411.774 73.4618 409.206 74.808C408.507 66.7177 408.726 58.5481 409.856 50.5066C410.29 47.4192 414.03 46.361 416.92 45.1919C419.811 44.0228 422.908 43.4525 426.003 43.0832C427.125 42.9493 428.381 42.7694 429.059 41.8672C429.587 41.165 429.608 40.2168 429.606 39.3376C429.6 36.231 429.593 33.1245 429.587 30.0179C429.586 28.9377 429.388 27.8758 430.094 27.0577C430.56 26.5172 431.288 26.2856 431.99 26.1584C433.097 25.9575 434.24 25.9546 435.348 26.1488C436.557 26.3612 437.731 26.8071 438.958 26.8511C441.417 26.9401 443.612 25.4332 445.606 23.9914C446.051 26.4779 446.039 29.1119 445.081 31.4482C444.123 33.7856 442.105 35.7756 439.624 36.2511C436.997 36.7544 434.261 35.4981 432.424 33.5559C430.586 31.6138 429.52 29.0717 428.724 26.5191C427.572 26.3191 426.448 25.7575 425.747 24.8209C425.045 23.8842 424.834 22.5486 425.381 21.5134C425.927 20.4782 427.287 19.8955 428.358 20.3682C428.459 17.4874 428.699 14.0871 428.8 11.2063C428.321 13.3514 427.842 15.4974 427.364 17.6424C427.273 18.05 427.131 18.5188 426.739 18.6632C426.416 18.7819 426.063 18.6221 425.756 18.4652C424.837 17.9954 423.829 17.4204 423.554 16.4264C423.372 15.7662 423.563 15.0668 423.752 14.4095C424.319 12.4501 424.884 10.4898 425.451 8.53033C425.803 7.3124 426.173 6.05811 426.976 5.07744C427.778 4.09678 429.135 3.45288 430.335 3.86333C431.35 2.33732 433.622 1.79197 435.448 1.62932C437.586 1.43893 439.724 1.2495 441.864 1.0591C442.521 1.00074 443.194 0.943338 443.833 1.10886C445.016 1.41406 445.869 2.41194 446.643 3.35625C448.037 5.0583 449.468 6.82733 450.05 8.94844C450.458 10.4304 450.424 11.9938 450.387 13.5303C450.349 15.1338 450.311 16.7383 450.272 18.3418C449.128 17.0358 447.782 15.2103 447.113 13.6078C446.444 12.0052 445.561 10.3721 444.052 9.51387C442.076 8.39065 439.604 8.89103 437.423 9.53205C435.243 10.1731 432.911 10.9251 430.751 10.218C433.082 10.9566 435.412 11.6532 437.849 11.4676C439.598 11.3336 441.47 10.9825 443.023 11.7986C444.508 12.5793 445.305 14.2507 445.683 15.8858C446.061 17.5209 446.123 19.2268 446.644 20.8217C446.929 20.3949 447.957 19.9759 448.466 19.9156C448.975 19.8554 449.493 19.973 449.967 20.1672C450.547 20.4055 451.092 20.7767 451.419 21.3106C452.043 22.3295 451.698 23.7407 450.85 24.5826C450.003 25.4246 448.773 25.7767 447.581 25.8455C447.659 28.9655 447.618 32.4576 447.696 35.5776C447.72 36.5295 447.749 37.5121 448.141 38.3808C448.714 39.6542 450.087 40.523 451.483 40.4971C451.487 42.2442 450.239 43.9893 448.721 44.8532C447.203 45.7171 445.425 45.9898 443.686 46.1506C441.473 46.3553 439.228 46.4031 437.044 45.9927C434.861 45.5823 432.731 44.6887 431.091 43.1904C430.971 43.8218 430.609 44.6934 431.001 45.2043C431.392 45.7143 431.928 46.0941 432.476 46.4299C434.575 47.7148 436.997 48.4669 439.455 48.597C439.624 52.2699 439.792 55.9429 439.961 59.6168C440.771 57.9472 441.589 56.2509 441.918 54.4245C442.247 52.5981 442.03 50.5927 440.92 49.106C442.736 48.7577 444.552 48.4094 446.368 48.0612C447.839 47.779 449.363 47.4747 450.575 46.5926C452.242 45.3785 453.01 43.31 453.69 41.363C455.941 42.381 459.081 43.045 461.505 43.5262C463.928 44.0074 466.437 44.8637 467.995 46.7801C469.262 48.3377 469.728 50.3813 470.101 52.3541C471.428 59.3738 472.055 66.5254 471.968 73.6685C468.985 72.3539 465.444 70.8844 462.329 69.9238C460.912 69.4866 459.082 69.211 458.203 70.405C462.224 72.1128 466.245 73.8197 470.266 75.5275C470.852 75.7762 471.489 76.0738 471.746 76.6564C471.991 77.2133 471.809 77.8562 471.625 78.436C470.784 81.089 469.943 83.7411 469.102 86.3942C468.363 88.7239 467.331 91.3645 465.009 92.1289C463.506 92.6236 463.068 93.1804 461.486 93.1182C459.905 93.056 458.357 92.6656 456.822 92.2782C451.299 90.8813 445.777 89.4845 440.253 88.0876C445.325 91.8266 451.664 93.3124 457.816 94.6777C458.731 94.8805 459.703 95.114 460.35 95.7923C461.097 96.5759 461.22 97.7479 461.305 98.8281C462.009 107.89 462.714 116.953 463.418 126.014C463.452 126.459 463.392 127.184 463.363 127.63C457.929 127.157 452.495 126.684 447.062 126.211C446.544 126.166 445.824 126.291 445.822 126.811C445.821 127.183 446.225 127.407 446.572 127.544C451.664 129.556 457.094 130.712 462.565 130.949C463.342 130.982 464.177 131.017 464.798 131.486C465.747 132.202 465.794 133.585 465.752 134.772C465.609 138.992 465.465 143.212 465.322 147.432C464.892 160.065 466.11 168.923 467.214 181.515C467.428 183.945 467.737 186.371 467.458 188.781C467.146 191.484 467.156 194.276 467.126 196.994C467.046 204.293 468.115 211.531 467.648 218.801C467.458 221.761 467.214 224.719 466.919 227.67C466.77 229.146 466.628 230.625 466.434 232.094C466.287 233.203 466.415 234.374 466.098 235.441C465.883 236.164 465.608 236.919 465.78 237.654C465.952 238.389 466.811 239.012 467.463 238.633C469.427 239.784 471.151 241.343 472.493 243.184C473.092 244.006 473.624 244.904 473.836 245.899C474.048 246.894 473.903 248.004 473.263 248.794C472.501 249.735 471.22 250.055 470.021 250.218C466.025 250.758 461.972 250.154 457.985 249.551C456.582 249.339 454.933 248.938 454.432 247.61C454.103 246.735 454.413 245.767 454.685 244.874C455.2 243.186 455.829 241.21 455.558 239.43C455.319 237.856 455.113 236.497 455.123 234.875C455.148 230.562 454.858 226.253 454.424 221.965C453.843 216.228 453.731 210.468 453.891 204.705C453.944 202.781 453.341 201.017 453.077 199.097C452.804 197.112 452.694 195.105 452.746 193.102C452.788 191.548 452.904 190.183 452.681 188.655C452.448 187.054 452.214 185.454 451.954 183.856C451.372 180.266 450.964 176.875 449.943 173.395C448.832 169.611 447.851 165.789 447 161.938C446.411 159.269 446.134 156.447 445.41 153.819C445.142 152.844 444.565 151.961 444.063 151.068C443.761 150.531 442.688 148.87 442.146 150.143C441.855 150.828 442.64 152.565 442.784 153.284C443.121 154.98 443.011 156.867 443.185 158.596C443.468 161.406 444.281 164.226 444.451 167.012C444.625 169.877 445.246 172.395 446.4 175.036C447.602 177.784 449.056 180.444 449.853 183.336C450.613 186.091 450.754 188.974 450.89 191.83C451.08 195.801 451.27 199.772 451.46 203.743C451.612 206.934 452.416 209.895 452.487 213.06C452.664 221.002 452.842 228.944 453.019 236.886C453.069 239.109 453.119 241.334 453.168 243.557C454.958 242.995 456.411 241.716 457.914 240.595C459.417 239.475 461.153 238.45 463.027 238.541C464.899 238.633 466.781 240.314 466.42 242.153C467.654 241.153 469.547 242.297 470.258 243.717C470.969 245.137 471.114 246.838 472.082 248.096C473.477 249.91 476.05 250.204 478.334 250.352" stroke="black" stroke-miterlimit="10" stroke-linecap="round" stroke-linejoin="round"/>
</svg>
