<svg width="421" height="443" viewBox="0 0 421 443" fill="none" xmlns="http://www.w3.org/2000/svg">
<g clip-path="url(#clip0_12_22615)">
<path d="M425.249 -3.23047H-1.78125V445.767H425.249V-3.23047Z" fill="#45929C"/>
<path d="M320.991 329.464H299.201C275.132 329.464 255.62 308.931 255.62 283.605V268.872C265.258 256.813 272.175 242.55 276.474 227.481C276.921 224.939 279.241 223.685 280.794 221.939C289.136 213.161 290.774 198.348 284.518 187.802C283.667 186.201 282.135 184.813 282.219 182.831C282.219 169.383 282.283 155.916 282.198 142.48C281.858 126.257 277.452 109.385 266.643 97.3716C257.918 87.6654 245.937 81.8887 233.574 79.4134C217.953 76.2787 201.611 76.4354 186.141 80.578C172.734 84.1386 160.137 92.4011 152.349 104.649C145.454 115.296 142.432 128.228 141.921 140.969C141.731 154.651 141.879 168.365 141.836 182.08C142.135 184.824 139.921 186.682 138.921 188.955C133.027 200.207 135.622 215.534 145.092 223.718C147.497 225.465 147.944 228.644 148.816 231.387C152.945 244.934 159.796 257.463 168.458 268.38V283.605C168.458 308.931 148.945 329.464 124.877 329.464H103.086C103.086 329.464 23.2434 358.681 -2.63281 416.004V444.304L423.63 446.323V416.814C397.754 359.492 320.991 329.464 320.991 329.464Z" fill="#F0FFFE"/>
<path d="M119.078 174.906V236.416C119.078 240.295 122.061 243.432 125.746 243.432C129.427 243.432 132.414 240.295 132.414 236.416V174.906C132.414 171.036 129.427 167.891 125.746 167.891C122.061 167.891 119.078 171.029 119.078 174.906Z" fill="#73D3DF"/>
<path d="M291.91 174.906V236.416C291.91 240.295 294.896 243.432 298.578 243.432C302.259 243.432 305.245 240.295 305.245 236.416V174.906C305.245 171.036 302.259 167.891 298.578 167.891C294.892 167.891 291.91 171.029 291.91 174.906Z" fill="#73D3DF"/>
<path d="M318.451 183.556L308.52 183.138C308.545 182.476 308.296 180.459 308.131 179.125C307.903 177.279 307.688 175.535 307.688 174.213C307.688 107.398 266.074 55.0602 212.951 55.0602C160.669 55.0602 117.337 102.141 117.337 169.421C117.337 170.782 117.354 172.163 117.389 173.525L108.251 181.461C108.214 180.006 107.617 178.466 107.617 177.012C107.617 141.812 117.785 106.592 137.365 81.6242C157.173 56.3643 184.786 44.6016 212.951 44.6016C241.223 44.6016 267.612 57.9824 287.255 82.2798C306.841 106.505 317.627 139.154 317.627 174.213C317.627 174.858 317.827 176.477 317.988 177.777C318.256 179.952 318.51 182.007 318.451 183.556Z" fill="black"/>
<path d="M78.5547 195.986V214.854C78.5547 220.574 82.8152 225.215 88.0735 225.215H94.3627V187.329C94.3827 187.139 94.4164 186.95 94.4164 186.755C94.4164 186.539 94.4201 186.323 94.4243 186.107H85.227C81.3601 187.423 78.5547 191.343 78.5547 195.986Z" fill="#4CAFBC"/>
<path d="M344.784 195.986V214.854C344.784 220.574 340.523 225.215 335.265 225.215H328.976V187.329C328.956 187.139 328.922 186.95 328.922 186.755C328.922 186.539 328.918 186.323 328.914 186.107H338.111C341.979 187.423 344.784 191.343 344.784 195.986Z" fill="#4CAFBC"/>
<path d="M324.864 167.623H307.414C307.422 168.043 307.429 168.463 307.429 168.883C307.429 169.394 307.497 169.883 307.572 170.376V243.701H319.314C329.534 243.701 337.829 234.676 337.829 223.545V186.838C337.828 177.815 332.374 170.196 324.864 167.623Z" fill="#366A71"/>
<path d="M86.4883 186.841V223.545C86.4883 234.673 94.7762 243.701 105.006 243.701H117.241V170C117.279 169.629 117.345 169.263 117.345 168.883C117.345 168.462 117.352 168.042 117.36 167.623H99.4688C91.9455 170.181 86.4883 177.808 86.4883 186.841Z" fill="#366A71"/>
<path d="M103.05 243.59C103.05 243.59 101.561 243.364 101.194 243.272C100.827 243.181 99.4336 242.772 99.4336 242.772V167.623H103.05V243.59Z" fill="#183639"/>
<path d="M326.237 242.243C324.801 242.916 322.621 243.392 322.621 243.392V167.623C322.621 167.623 323.749 167.623 324.864 167.623C325.657 167.74 326.313 168.171 326.237 168.16C326.064 168.134 326.226 241.942 326.237 242.243Z" fill="#183639"/>
</g>
<path d="M365.41 80.6083L347.623 114.4" stroke="black" stroke-width="2"/>
<path d="M385.981 48.7107C385.981 48.7107 365.193 55.81 358.204 66.7673C356.938 68.7525 355.342 72.0557 355.342 72.0557" stroke="black" stroke-width="2"/>
<path d="M322.742 155.152L344.268 131.035" stroke="black" stroke-width="2"/>
<path d="M385.173 48.7428C388.313 66.2191 385.302 76.9713 375.771 92.5476C367.006 106.873 343.24 122.336 343.24 122.336" stroke="black" stroke-width="2"/>
<path d="M340.812 65.0938L332.094 96.343" stroke="black" stroke-width="2"/>
<path d="M332.424 96.4202C332.424 96.4202 352.825 75.272 355.432 58.5166C357.468 45.4338 350.221 24.9748 350.221 24.9748C350.221 24.9748 331.613 39.1966 329.174 51.9233C328.055 57.7568 329.602 67.0932 329.602 67.0932" stroke="black" stroke-width="2"/>
<path d="M305.403 82.4048C304.764 67.3163 316.59 45.1478 316.59 45.1478C316.59 45.1478 332.282 66.4184 333.456 81.9173C334.657 97.7763 321.681 121.135 321.681 121.135C321.681 121.135 306.088 98.5609 305.403 82.4048Z" stroke="black" stroke-width="2"/>
<path d="M320.391 85.5664L321.98 121.211" stroke="black" stroke-width="2"/>
<path d="M341.378 125.186C341.153 124.828 369.702 106.09 369.702 106.09C369.702 106.09 364.025 124.343 356.096 133.702C346.2 145.383 322.269 155.634 322.269 155.634L323.136 148.321" stroke="black" stroke-width="2"/>
<path d="M340.896 105.782L323 147.681" stroke="black" stroke-width="2"/>
<path d="M332.343 96.6963L355.44 68.4549C355.44 68.4549 355.509 93.1028 350.263 107.823C343.986 125.44 323.157 148.313 323.157 148.313L321.992 121.21" stroke="black" stroke-width="2"/>
<path d="M61.8175 80.9574L76.1089 116.37" stroke="black" stroke-width="2"/>
<path d="M44.5708 47.152C44.5708 47.152 64.5374 56.3099 70.3871 67.9157C71.4469 70.0184 72.7017 73.4656 72.7017 73.4656" stroke="black" stroke-width="2"/>
<path d="M96.7469 159.419L77.7601 133.255" stroke="black" stroke-width="2"/>
<path d="M45.357 47.2609C40.4719 64.3318 42.3841 75.3327 50.2966 91.79C57.5736 106.926 79.6608 124.705 79.6608 124.705" stroke="black" stroke-width="2"/>
<path d="M87.8477 68L93.3726 99.9687" stroke="black" stroke-width="2"/>
<path d="M93.0445 100.016C93.0445 100.016 74.8788 76.9196 73.9729 59.9867C73.2656 46.7653 82.5373 27.1407 82.5373 27.1407C82.5373 27.1407 99.6175 43.1652 100.762 56.073C101.287 61.9895 98.8075 71.1225 98.8075 71.1225" stroke="black" stroke-width="2"/>
<path d="M121.344 88.7923C123.5 73.8451 113.969 50.5977 113.969 50.5977C113.969 50.5977 96.2124 70.1788 93.4832 85.4805C90.6905 101.138 101.247 125.685 101.247 125.685C101.247 125.685 119.035 104.797 121.344 88.7923Z" stroke="black" stroke-width="2"/>
<path d="M106.117 90.4297L100.944 125.733" stroke="black" stroke-width="2"/>
<path d="M81.2336 127.73C81.4933 127.396 54.9776 105.876 54.9776 105.876C54.9776 105.876 58.7862 124.608 65.7319 134.719C74.4009 147.338 97.1767 159.948 97.1767 159.948L97.051 152.584" stroke="black" stroke-width="2"/>
<path d="M83.6682 108.477L97.2507 151.965" stroke="black" stroke-width="2"/>
<path d="M93.0859 100.301L72.9522 69.8759C72.9522 69.8759 70.3993 94.3913 74.1349 109.566C78.6054 127.725 97.0236 152.58 97.0236 152.58L100.913 125.732" stroke="black" stroke-width="2"/>
<defs>
<clipPath id="clip0_12_22615">
<rect width="421" height="443" fill="white"/>
</clipPath>
</defs>
</svg>
