<svg width="356" height="226" viewBox="0 0 356 226" fill="none" xmlns="http://www.w3.org/2000/svg">
<path d="M94.3408 148.203H95.1334L95.58 147.548L128.281 99.5979C133.026 93.1521 138.034 88.4743 143.69 85.3995C149.344 82.3261 155.732 80.8071 163.307 80.8071H212.12C219.716 80.8071 226.104 82.2039 231.748 85.21C237.394 88.217 242.396 92.8876 247.138 99.5873C247.14 99.5905 247.142 99.5938 247.145 99.597L279.979 147.55L280.426 148.203H281.216H338.667C344.047 148.203 347.858 150.085 350.324 152.786C352.813 155.512 354.037 159.186 353.999 162.917C353.924 170.397 348.858 177.662 339.452 177.662H273.627C268.68 177.662 262.987 175.937 259.702 170.911L259.688 170.89L259.673 170.869L234.546 135.151L231.826 131.285L231.819 136.012L231.691 223.94H144.652L144.523 136.012L144.516 131.285L141.796 135.151L116.67 170.869L116.66 170.883L116.65 170.898C113.356 175.819 107.641 177.662 102.717 177.662H36.8919C27.2014 177.662 22.0914 170.37 22.0012 162.914C21.9561 159.186 23.1823 155.512 25.6702 152.786C28.1357 150.084 31.9391 148.203 37.2846 148.203H94.3408ZM222.922 36.9405C222.922 56.3113 207.242 71.9406 187.78 71.9406C168.453 71.9406 152.765 56.4452 152.638 36.9357C152.64 17.5672 168.32 1.94043 187.78 1.94043C207.368 1.94043 222.922 17.5663 222.922 36.9405Z" fill="white" stroke="#366A71" stroke-width="3"/>
<path d="M86.4228 125.373L88.0491 127.021V124.706V75.3829V73.0732L86.424 74.7145L62.0505 99.3316L61.3899 99.9988L62.0493 100.667L86.4228 125.373ZM34.7062 104.097L10.3458 128.7L9.72848 129.276L7.96614 130.921H10.3766H83.013H85.2936L83.6874 129.302L58.5946 104.008L57.9196 103.327L57.2451 104.008L56.1965 105.067C51.0728 110.242 42.4964 110.264 37.0892 105.052L37.0823 105.045L37.0752 105.038L36.0266 104.068L35.3525 103.444L34.7062 104.097ZM7.31625 74.7157L5.69407 73.0714L5.68997 75.3812L5.60245 124.704L5.59833 127.025L7.22873 125.373L31.6023 100.667L32.2605 100L31.6023 99.3328L7.31625 74.7157ZM83.1439 71.3747L84.7463 69.7563H82.4688H11.0077H8.73025L10.3326 71.3747L40.2101 101.551L40.21 101.551L40.2194 101.56C43.7145 104.994 49.731 105.121 53.1789 101.639L83.1439 71.3747ZM93.05 64.95V135.05H0.95V64.95H93.05Z" fill="white" stroke="#366A71" stroke-width="1.9"/>
<path d="M337.75 110.798V91.6772L344.375 85.0597V118.94H280V54.4459H330.021L323.373 61.088H288.125H286.625V62.588V110.798V112.298H288.125H336.25H337.75V110.798ZM300.965 78.7022L311.168 88.9232L312.228 89.985L313.29 88.9249L348.701 53.5635L353.38 58.2652L312.222 99.3685L296.28 83.3963L300.965 78.7022Z" fill="white" stroke="#366A71" stroke-width="3"/>
</svg>
