<svg width="56" height="56" viewBox="0 0 56 56" fill="none"
xmlns="http://www.w3.org/2000/svg">
<path d="M53.1522 20.3834L24.6602 48.5275C19.9393 53.1912 12.2844 53.1912 7.5635 48.5275C2.84256 43.8638 2.84256 36.3035 7.5635 31.6398L33.2076 6.31037C36.3556 3.20186 41.4568 3.20186 44.6049 6.31037C47.7528 9.4188 47.7528 14.4604 44.6049 17.5688L18.9606 42.8983C17.3877 44.4536 14.8361 44.4536 13.2611 42.8983C11.6881 41.3451 11.6881 38.8244 13.2611 37.2691L36.0555 14.7542L33.2056 11.9396L10.4133 34.4565C7.26537 37.565 7.26537 42.6065 10.4133 45.7149C13.5613 48.8234 18.6625 48.8234 21.8105 45.7149L47.4547 20.3854C52.1756 15.7217 52.1756 8.16146 47.4547 3.49773C42.7337 -1.16591 35.0789 -1.16591 30.358 3.49773L3.28883 30.2345L3.38693 30.3324C-1.53019 36.5773 -1.09792 45.6049 4.71375 51.344C10.5254 57.0832 19.6611 57.513 25.985 52.6534L26.0831 52.7514L56 23.1999L53.1522 20.3834Z"
fill="black" />
</svg>